<?xml version="1.0" encoding="utf-8"?>
<!-- Generator: Adobe Illustrator 16.0.0, SVG Export Plug-In . SVG Version: 6.00 Build 0)  -->
<!DOCTYPE svg PUBLIC "-//W3C//DTD SVG 1.1//EN" "http://www.w3.org/Graphics/SVG/1.1/DTD/svg11.dtd">
<svg version="1.1" id="Layer_1" xmlns="http://www.w3.org/2000/svg" xmlns:xlink="http://www.w3.org/1999/xlink" x="0px" y="0px"
	 width="148.834px" height="63.491px" viewBox="6.833 4.319 148.834 63.491" enable-background="new 6.833 4.319 148.834 63.491"
	 xml:space="preserve">
<g>
	<circle fill="#FFFFFF" cx="38.58" cy="36.065" r="31.746"/>
	<path fill="#231F20" d="M40.004,51.215c0.021,0.332-0.103,0.498-0.39,0.523c-0.364,0.034-0.532-0.106-0.541-0.445
		c-0.01-0.329,0.118-0.472,0.424-0.485C39.829,50.793,39.986,50.917,40.004,51.215z M42.022,50.808
		c-0.356,0-0.491,0.152-0.466,0.524c0.02,0.295,0.177,0.422,0.506,0.406c0.308-0.015,0.434-0.156,0.425-0.484
		C42.479,50.938,42.348,50.808,42.022,50.808z M44.505,50.808c-0.355,0-0.491,0.152-0.465,0.524c0.02,0.295,0.175,0.422,0.504,0.406
		c0.309-0.015,0.435-0.156,0.427-0.484C44.963,50.938,44.83,50.808,44.505,50.808z M47.028,50.808
		c-0.376-0.018-0.515,0.115-0.505,0.485c0.008,0.316,0.14,0.445,0.466,0.445c0.325,0,0.457-0.129,0.466-0.445
		C47.462,50.964,47.339,50.821,47.028,50.808z M49.458,50.963c-0.34,0.006-0.481,0.171-0.452,0.535
		c0.023,0.29,0.188,0.416,0.518,0.396c0.3-0.02,0.426-0.173,0.414-0.499C49.926,51.084,49.784,50.956,49.458,50.963z M51.934,50.963
		c-0.315,0.007-0.446,0.14-0.446,0.465c0,0.355,0.154,0.49,0.526,0.467c0.296-0.021,0.421-0.177,0.405-0.506
		C52.406,51.078,52.264,50.954,51.934,50.963z M54.464,50.963c-0.34-0.011-0.473,0.104-0.491,0.419
		c-0.02,0.33,0.109,0.489,0.399,0.513c0.367,0.025,0.529-0.117,0.532-0.461C54.905,51.106,54.782,50.973,54.464,50.963z
		 M56.921,50.963c-0.356,0-0.49,0.15-0.467,0.524c0.02,0.296,0.177,0.422,0.506,0.407c0.308-0.016,0.435-0.156,0.426-0.485
		C57.381,51.092,57.244,50.963,56.921,50.963z M59.423,50.963c-0.329-0.009-0.472,0.115-0.485,0.426
		c-0.019,0.376,0.113,0.513,0.485,0.506c0.318-0.008,0.447-0.141,0.447-0.467C59.871,51.103,59.741,50.97,59.423,50.963z
		 M50.745,49.721c-0.329-0.014-0.479,0.112-0.499,0.413c-0.02,0.373,0.118,0.521,0.474,0.519c0.322-0.002,0.455-0.134,0.46-0.454
		C51.185,49.874,51.057,49.733,50.745,49.721z M53.138,49.721c-0.297,0.02-0.423,0.176-0.407,0.503
		c0.013,0.31,0.157,0.435,0.485,0.428c0.318-0.009,0.446-0.141,0.446-0.467C53.662,49.83,53.511,49.695,53.138,49.721z
		 M55.706,49.721c-0.341-0.012-0.475,0.103-0.491,0.421c-0.02,0.328,0.107,0.489,0.399,0.51c0.366,0.027,0.528-0.115,0.53-0.457
		C56.148,49.866,56.023,49.729,55.706,49.721z M58.163,49.721c-0.355,0-0.492,0.153-0.464,0.523
		c0.019,0.298,0.176,0.422,0.501,0.408c0.312-0.014,0.435-0.157,0.427-0.485C58.62,49.849,58.487,49.721,58.163,49.721z
		 M60.697,49.721c-0.371-0.023-0.519,0.114-0.515,0.474c0.001,0.319,0.132,0.452,0.451,0.457c0.327,0.005,0.467-0.121,0.478-0.433
		C61.124,49.89,60.998,49.739,60.697,49.721z M43.205,52.048c-0.297,0.021-0.423,0.178-0.407,0.505
		c0.013,0.307,0.155,0.435,0.484,0.427c0.318-0.009,0.444-0.142,0.444-0.468C43.728,52.159,43.577,52.024,43.205,52.048z
		 M45.747,52.048c-0.356,0-0.49,0.151-0.464,0.524c0.02,0.297,0.175,0.421,0.503,0.408c0.311-0.016,0.435-0.157,0.427-0.485
		C46.206,52.177,46.071,52.048,45.747,52.048z M48.23,52.205c-0.355,0-0.49,0.149-0.464,0.522c0.019,0.296,0.175,0.421,0.503,0.407
		c0.31-0.014,0.435-0.156,0.427-0.484C48.689,52.334,48.554,52.205,48.23,52.205z M50.693,52.205
		c-0.317,0.006-0.447,0.139-0.447,0.463c0,0.358,0.155,0.493,0.525,0.466c0.297-0.021,0.424-0.176,0.408-0.503
		C51.165,52.321,51.021,52.195,50.693,52.205z M53.222,52.205c-0.34-0.012-0.474,0.101-0.491,0.418
		c-0.018,0.329,0.108,0.488,0.401,0.511c0.366,0.027,0.527-0.114,0.529-0.459C53.665,52.349,53.539,52.214,53.222,52.205z
		 M55.711,52.205c-0.327-0.015-0.479,0.111-0.495,0.411c-0.024,0.371,0.113,0.521,0.472,0.519c0.321-0.003,0.453-0.132,0.457-0.452
		C56.15,52.354,56.023,52.216,55.711,52.205z M58.215,52.205c-0.373-0.023-0.521,0.112-0.516,0.47
		c0.002,0.322,0.131,0.456,0.451,0.459c0.327,0.005,0.468-0.12,0.479-0.433C58.64,52.372,58.516,52.223,58.215,52.205z
		 M60.181,52.669c0,0.217,0.062,0.342,0.189,0.409c0.202-0.26,0.405-0.521,0.598-0.788c-0.077-0.061-0.187-0.091-0.342-0.085
		C60.307,52.211,60.181,52.345,60.181,52.669z M40.742,52.048c-0.309,0.015-0.435,0.159-0.426,0.486
		c0.005,0.318,0.139,0.446,0.464,0.446c0.356,0,0.491-0.152,0.467-0.524C41.227,52.159,41.071,52.033,40.742,52.048z M55.719,47.238
		c-0.377-0.018-0.514,0.112-0.503,0.483c0.007,0.319,0.139,0.447,0.465,0.447c0.325,0,0.457-0.128,0.464-0.447
		C56.153,47.394,56.027,47.251,55.719,47.238z M58.189,47.238c-0.343-0.012-0.474,0.103-0.491,0.42
		c-0.019,0.327,0.106,0.49,0.399,0.51c0.364,0.027,0.528-0.114,0.529-0.46C58.631,47.382,58.506,47.247,58.189,47.238z
		 M60.685,47.238c-0.375-0.018-0.515,0.112-0.504,0.483c0.005,0.319,0.139,0.447,0.465,0.447c0.325,0,0.459-0.128,0.464-0.447
		C61.118,47.394,60.994,47.251,60.685,47.238z M63.208,48.169c0.283-0.024,0.41-0.191,0.387-0.523
		c-0.021-0.299-0.175-0.421-0.505-0.407c-0.311,0.013-0.434,0.155-0.427,0.483C62.671,48.062,62.839,48.2,63.208,48.169z
		 M40.762,47.084c-0.318,0.005-0.447,0.139-0.447,0.463c0,0.357,0.152,0.492,0.523,0.466c0.296-0.02,0.423-0.177,0.408-0.505
		C41.233,47.199,41.089,47.075,40.762,47.084z M43.289,47.084c-0.341-0.013-0.474,0.103-0.491,0.419
		c-0.018,0.33,0.106,0.489,0.401,0.51c0.364,0.027,0.527-0.114,0.527-0.458C43.734,47.227,43.606,47.093,43.289,47.084z
		 M45.708,47.084c-0.311,0.011-0.436,0.156-0.427,0.483c0.007,0.339,0.177,0.479,0.544,0.445c0.286-0.022,0.409-0.19,0.386-0.523
		C46.194,47.193,46.038,47.067,45.708,47.084z M48.23,47.238c-0.355,0-0.49,0.149-0.464,0.522c0.019,0.297,0.175,0.421,0.503,0.408
		c0.31-0.014,0.435-0.156,0.427-0.485C48.689,47.365,48.554,47.238,48.23,47.238z M50.765,47.238
		c-0.371-0.023-0.521,0.112-0.52,0.47c0.003,0.323,0.134,0.455,0.454,0.46c0.327,0.004,0.468-0.122,0.479-0.434
		C51.192,47.406,51.067,47.256,50.765,47.238z M53.177,47.238c-0.319,0.006-0.446,0.141-0.446,0.464
		c0,0.355,0.151,0.491,0.524,0.466c0.296-0.019,0.421-0.175,0.406-0.505C53.647,47.354,53.504,47.23,53.177,47.238z M40.798,49.565
		c-0.328-0.008-0.47,0.116-0.483,0.427c-0.017,0.375,0.115,0.513,0.485,0.503c0.318-0.008,0.447-0.14,0.447-0.466
		C41.248,49.706,41.118,49.573,40.798,49.565z M43.311,49.565c-0.331-0.019-0.491,0.107-0.512,0.4
		c-0.028,0.366,0.114,0.529,0.459,0.53c0.326,0.003,0.462-0.123,0.47-0.439C43.739,49.717,43.626,49.583,43.311,49.565z
		 M45.768,49.565c-0.331-0.008-0.472,0.116-0.486,0.427c-0.017,0.375,0.115,0.513,0.486,0.503c0.317-0.006,0.444-0.14,0.444-0.466
		C46.212,49.706,46.082,49.573,45.768,49.565z M48.282,49.721c-0.372-0.023-0.521,0.114-0.516,0.474
		c0.001,0.319,0.133,0.452,0.452,0.457c0.327,0.005,0.467-0.121,0.479-0.433C48.709,49.89,48.584,49.739,48.282,49.721z
		 M39.583,48.324c-0.328-0.018-0.488,0.107-0.51,0.399c-0.028,0.366,0.116,0.53,0.458,0.53c0.328,0.004,0.464-0.122,0.473-0.438
		C40.015,48.474,39.901,48.341,39.583,48.324z M42.017,48.324c-0.322,0.002-0.455,0.133-0.46,0.451
		c-0.006,0.328,0.121,0.468,0.434,0.479c0.378,0.017,0.51-0.111,0.498-0.49C42.479,48.448,42.342,48.321,42.017,48.324z
		 M44.485,48.324c-0.337,0.007-0.479,0.177-0.445,0.545c0.024,0.285,0.192,0.407,0.524,0.385c0.297-0.019,0.422-0.176,0.407-0.504
		C44.957,48.441,44.814,48.315,44.485,48.324z M46.97,48.324c-0.318,0.007-0.447,0.142-0.447,0.465c0,0.355,0.152,0.491,0.524,0.465
		c0.296-0.019,0.423-0.176,0.408-0.504C47.441,48.441,47.299,48.315,46.97,48.324z M49.473,48.479c-0.356,0-0.492,0.152-0.466,0.524
		c0.019,0.297,0.175,0.423,0.505,0.408c0.308-0.015,0.434-0.157,0.426-0.486C49.93,48.608,49.795,48.479,49.473,48.479z
		 M51.896,48.479c-0.294,0.021-0.422,0.179-0.408,0.505c0.016,0.309,0.158,0.435,0.487,0.427c0.318-0.008,0.444-0.141,0.444-0.465
		C52.419,48.588,52.27,48.455,51.896,48.479z M54.419,48.479c-0.32,0.008-0.446,0.142-0.446,0.467c0,0.354,0.15,0.49,0.525,0.465
		c0.294-0.02,0.42-0.174,0.406-0.505C54.889,48.597,54.747,48.47,54.419,48.479z M56.902,48.479
		c-0.318,0.008-0.448,0.142-0.448,0.467c0,0.354,0.153,0.49,0.524,0.465c0.295-0.02,0.423-0.174,0.408-0.505
		C57.372,48.597,57.23,48.47,56.902,48.479z M59.423,48.479c-0.329-0.009-0.472,0.119-0.485,0.427
		c-0.019,0.377,0.113,0.514,0.485,0.505c0.318-0.008,0.447-0.141,0.447-0.465C59.871,48.62,59.741,48.486,59.423,48.479z
		 M61.893,49.41c0.323-0.002,0.454-0.132,0.458-0.454c0.007-0.326-0.119-0.466-0.432-0.479c-0.328-0.012-0.48,0.113-0.497,0.414
		C61.399,49.264,61.536,49.412,61.893,49.41z M40.813,57.015c-0.33-0.011-0.479,0.113-0.497,0.415
		c-0.022,0.371,0.114,0.521,0.473,0.518c0.322-0.003,0.453-0.134,0.459-0.453C41.252,57.167,41.124,57.025,40.813,57.015z
		 M43.205,57.015c-0.297,0.021-0.423,0.179-0.407,0.505c0.013,0.31,0.155,0.434,0.484,0.427c0.318-0.01,0.444-0.142,0.444-0.465
		C43.728,57.126,43.577,56.99,43.205,57.015z M45.688,57.015c-0.298,0.021-0.421,0.179-0.407,0.505
		c0.014,0.31,0.155,0.434,0.483,0.427c0.317-0.01,0.448-0.142,0.448-0.465C46.212,57.126,46.062,56.99,45.688,57.015z M48.212,57.17
		c-0.34,0.01-0.481,0.179-0.446,0.542c0.024,0.289,0.193,0.413,0.522,0.39c0.297-0.02,0.423-0.175,0.408-0.505
		C48.683,57.288,48.541,57.162,48.212,57.17z M50.707,57.17c-0.32,0.004-0.454,0.135-0.46,0.453
		c-0.003,0.327,0.123,0.467,0.435,0.479c0.378,0.015,0.51-0.115,0.498-0.492C51.168,57.294,51.033,57.167,50.707,57.17z
		 M53.138,57.17c-0.297,0.021-0.423,0.175-0.407,0.505c0.013,0.308,0.157,0.435,0.485,0.427c0.318-0.009,0.446-0.142,0.446-0.465
		C53.662,57.278,53.511,57.146,53.138,57.17z M39.578,58.256c-0.375-0.017-0.514,0.115-0.504,0.486
		c0.008,0.318,0.14,0.446,0.466,0.446c0.322,0,0.457-0.13,0.464-0.446C40.014,58.411,39.886,58.271,39.578,58.256z M42.062,58.256
		c-0.376-0.017-0.514,0.115-0.506,0.486c0.008,0.318,0.142,0.446,0.466,0.446c0.326,0,0.458-0.13,0.466-0.446
		C42.496,58.411,42.371,58.271,42.062,58.256z M44.542,58.256c-0.376-0.017-0.511,0.115-0.502,0.486
		c0.005,0.318,0.14,0.446,0.465,0.446c0.324,0,0.458-0.13,0.466-0.446C44.979,58.411,44.854,58.271,44.542,58.256z M46.97,58.256
		c-0.318,0.009-0.447,0.141-0.447,0.467c0,0.353,0.152,0.489,0.524,0.464c0.296-0.02,0.423-0.176,0.408-0.503
		C47.441,58.374,47.299,58.247,46.97,58.256z M49.473,58.41c-0.356,0-0.492,0.154-0.466,0.524c0.019,0.298,0.175,0.425,0.505,0.409
		c0.309-0.014,0.434-0.157,0.426-0.485C49.93,58.54,49.795,58.41,49.473,58.41z M51.975,58.41c-0.329-0.006-0.472,0.12-0.487,0.427
		c-0.016,0.377,0.116,0.515,0.487,0.505c0.318-0.007,0.444-0.139,0.444-0.464C52.419,58.552,52.293,58.42,51.975,58.41z
		 M39.52,53.289c-0.318,0.01-0.446,0.141-0.446,0.468c0,0.355,0.152,0.489,0.522,0.465c0.298-0.021,0.425-0.176,0.409-0.505
		C39.99,53.409,39.848,53.282,39.52,53.289z M41.964,53.289c-0.296,0.021-0.423,0.176-0.408,0.506
		c0.014,0.308,0.157,0.434,0.485,0.427c0.318-0.008,0.447-0.142,0.447-0.465C42.488,53.4,42.336,53.265,41.964,53.289z
		 M44.485,53.289c-0.318,0.01-0.445,0.141-0.445,0.468c0,0.355,0.153,0.489,0.524,0.465c0.297-0.021,0.422-0.176,0.407-0.505
		C44.957,53.409,44.814,53.282,44.485,53.289z M46.976,53.289c-0.342,0.007-0.482,0.174-0.453,0.536
		c0.023,0.291,0.188,0.415,0.52,0.396c0.298-0.019,0.424-0.171,0.412-0.5C47.444,53.412,47.302,53.285,46.976,53.289z
		 M49.453,53.445c-0.34,0.008-0.478,0.177-0.446,0.543c0.023,0.288,0.193,0.411,0.524,0.389c0.296-0.021,0.421-0.177,0.408-0.504
		C49.923,53.563,49.78,53.438,49.453,53.445z M51.934,53.445c-0.315,0.008-0.446,0.142-0.446,0.465c0,0.355,0.154,0.491,0.526,0.467
		c0.296-0.021,0.421-0.177,0.405-0.506C52.406,53.563,52.264,53.438,51.934,53.445z M54.431,53.445
		c-0.321,0.003-0.454,0.134-0.458,0.452c-0.006,0.327,0.122,0.467,0.432,0.481c0.378,0.014,0.51-0.117,0.498-0.493
		C54.895,53.568,54.759,53.442,54.431,53.445z M56.954,53.445c-0.33-0.014-0.48,0.113-0.5,0.415
		c-0.02,0.371,0.114,0.521,0.473,0.519c0.323-0.006,0.455-0.135,0.459-0.454C57.391,53.598,57.264,53.457,56.954,53.445z
		 M39.52,55.774c-0.339,0.007-0.476,0.177-0.446,0.543c0.024,0.285,0.193,0.409,0.522,0.387c0.298-0.021,0.425-0.177,0.409-0.504
		C39.99,55.891,39.848,55.765,39.52,55.774z M41.95,55.774c-0.287,0.021-0.412,0.186-0.394,0.515c0.02,0.302,0.17,0.428,0.498,0.415
		c0.312-0.013,0.438-0.151,0.434-0.479C42.483,55.885,42.314,55.743,41.95,55.774z M44.558,55.774
		c-0.371-0.023-0.521,0.112-0.518,0.472c0.002,0.322,0.134,0.454,0.453,0.458c0.326,0.006,0.466-0.12,0.478-0.433
		C44.984,55.942,44.858,55.794,44.558,55.774z M47.015,55.774c-0.34-0.012-0.474,0.103-0.492,0.419
		c-0.017,0.329,0.109,0.489,0.4,0.511c0.365,0.025,0.529-0.113,0.532-0.458C47.456,55.918,47.33,55.783,47.015,55.774z
		 M49.414,55.928c-0.297,0.02-0.422,0.177-0.407,0.504c0.014,0.31,0.155,0.436,0.485,0.428c0.317-0.008,0.447-0.141,0.447-0.466
		C49.938,56.038,49.785,55.904,49.414,55.928z M51.953,55.928c-0.352,0-0.489,0.153-0.465,0.525
		c0.022,0.295,0.177,0.422,0.505,0.408c0.309-0.015,0.436-0.159,0.426-0.486C52.414,56.058,52.28,55.928,51.953,55.928z
		 M54.438,55.928c-0.356,0-0.49,0.153-0.465,0.525c0.02,0.295,0.175,0.422,0.503,0.408c0.31-0.015,0.434-0.159,0.427-0.486
		C54.897,56.058,54.763,55.928,54.438,55.928z M40.762,54.532c-0.34,0.007-0.479,0.178-0.447,0.543
		c0.023,0.286,0.192,0.409,0.523,0.388c0.296-0.021,0.423-0.176,0.408-0.504C41.233,54.65,41.09,54.524,40.762,54.532z
		 M43.264,54.532c-0.356,0-0.492,0.151-0.465,0.523c0.02,0.298,0.177,0.422,0.503,0.408c0.31-0.015,0.435-0.156,0.425-0.484
		C43.722,54.66,43.59,54.532,43.264,54.532z M45.785,54.532c-0.376-0.018-0.512,0.116-0.503,0.486
		c0.007,0.318,0.14,0.445,0.464,0.445c0.324,0,0.459-0.127,0.466-0.445C46.22,54.689,46.096,54.546,45.785,54.532z M48.25,54.686
		c-0.329-0.006-0.473,0.12-0.485,0.428c-0.018,0.376,0.114,0.514,0.485,0.505c0.318-0.007,0.445-0.141,0.445-0.466
		S48.568,54.695,48.25,54.686z M50.714,54.686c-0.356,0-0.493,0.152-0.469,0.525c0.022,0.297,0.177,0.424,0.507,0.408
		c0.309-0.014,0.434-0.155,0.427-0.484C51.171,54.815,51.037,54.686,50.714,54.686z M53.195,54.686c-0.355,0-0.49,0.155-0.464,0.525
		c0.019,0.297,0.174,0.424,0.505,0.408c0.309-0.014,0.435-0.155,0.426-0.484C53.653,54.815,53.522,54.686,53.195,54.686z
		 M55.66,54.686c-0.337,0.012-0.479,0.18-0.445,0.543c0.024,0.288,0.19,0.412,0.522,0.39c0.297-0.021,0.424-0.176,0.407-0.505
		C56.131,54.804,55.988,54.68,55.66,54.686z M58.196,37.305c-0.33-0.014-0.48,0.113-0.497,0.414
		c-0.023,0.371,0.113,0.521,0.471,0.518c0.321-0.004,0.454-0.134,0.458-0.452C58.632,37.457,58.506,37.318,58.196,37.305z
		 M60.689,37.305c-0.328-0.018-0.488,0.109-0.508,0.4c-0.028,0.364,0.114,0.527,0.458,0.531c0.327,0.004,0.463-0.124,0.472-0.438
		C61.121,37.455,61.008,37.322,60.689,37.305z M63.129,38.236c0.324,0,0.459-0.128,0.466-0.446c0.007-0.33-0.118-0.472-0.427-0.486
		c-0.376-0.017-0.514,0.117-0.505,0.486C62.671,38.108,62.806,38.236,63.129,38.236z M65.599,38.236
		c0.327,0.004,0.466-0.122,0.479-0.435c0.013-0.328-0.112-0.479-0.415-0.497c-0.371-0.021-0.519,0.113-0.518,0.472
		C65.148,38.1,65.28,38.23,65.599,38.236z M58.104,39.788c-0.297,0.019-0.423,0.176-0.406,0.504
		c0.013,0.309,0.153,0.435,0.484,0.425c0.318-0.007,0.444-0.14,0.444-0.464C58.627,39.897,58.477,39.763,58.104,39.788z
		 M60.697,39.788c-0.371-0.021-0.519,0.113-0.515,0.472c0.001,0.322,0.132,0.453,0.451,0.457c0.327,0.008,0.467-0.12,0.478-0.431
		C61.124,39.958,60.998,39.807,60.697,39.788z M63.148,40.719c0.317-0.008,0.447-0.141,0.447-0.464c0-0.355-0.153-0.492-0.524-0.466
		c-0.297,0.02-0.422,0.175-0.408,0.504C62.677,40.601,62.82,40.727,63.148,40.719z M56.902,38.547
		c-0.318,0.008-0.448,0.141-0.448,0.467c0,0.354,0.153,0.49,0.524,0.465c0.295-0.02,0.423-0.177,0.408-0.505
		C57.372,38.665,57.23,38.54,56.902,38.547z M59.404,38.547c-0.356,0-0.491,0.151-0.466,0.524c0.02,0.295,0.173,0.421,0.503,0.408
		c0.311-0.017,0.435-0.157,0.428-0.485C59.861,38.673,59.729,38.547,59.404,38.547z M61.926,39.479
		c0.31-0.016,0.436-0.157,0.426-0.485c-0.008-0.32-0.14-0.446-0.464-0.446c-0.356,0-0.493,0.15-0.465,0.523
		C61.44,39.366,61.598,39.492,61.926,39.479z M64.402,39.479c0.312-0.012,0.438-0.153,0.433-0.479
		c-0.004-0.342-0.17-0.483-0.536-0.452c-0.289,0.021-0.415,0.188-0.394,0.517C63.922,39.365,64.075,39.49,64.402,39.479z
		 M58.092,34.821c-0.29,0.024-0.414,0.188-0.393,0.517c0.017,0.3,0.168,0.426,0.497,0.414c0.311-0.01,0.437-0.152,0.431-0.478
		C58.623,34.934,58.456,34.792,58.092,34.821z M60.633,34.821c-0.34,0.006-0.481,0.172-0.452,0.537
		c0.022,0.288,0.187,0.415,0.515,0.394c0.3-0.018,0.427-0.168,0.414-0.497C61.1,34.944,60.959,34.818,60.633,34.821z M63.188,35.752
		c0.295-0.02,0.421-0.175,0.408-0.503c-0.014-0.31-0.156-0.436-0.485-0.428c-0.339,0.008-0.477,0.177-0.447,0.544
		C62.69,35.649,62.856,35.776,63.188,35.752z M65.612,35.752c0.325,0,0.46-0.127,0.466-0.447c0.007-0.328-0.118-0.469-0.427-0.484
		c-0.377-0.018-0.514,0.114-0.506,0.485C65.154,35.625,65.289,35.752,65.612,35.752z M57.056,33.58
		c-0.338,0.008-0.479,0.178-0.446,0.544c0.025,0.285,0.194,0.409,0.523,0.387c0.296-0.02,0.424-0.174,0.408-0.504
		C57.529,33.698,57.384,33.575,57.056,33.58z M59.546,33.58c-0.34,0.006-0.482,0.171-0.452,0.537
		c0.022,0.291,0.187,0.415,0.518,0.394c0.298-0.017,0.425-0.169,0.413-0.498C60.014,33.702,59.873,33.576,59.546,33.58z
		 M62.081,34.511c0.309-0.014,0.435-0.156,0.427-0.486c-0.007-0.318-0.141-0.445-0.465-0.445c-0.355,0-0.492,0.153-0.466,0.523
		C61.596,34.402,61.751,34.526,62.081,34.511z M64.604,34.511c0.285-0.025,0.411-0.191,0.386-0.524
		c-0.019-0.295-0.175-0.42-0.502-0.407c-0.311,0.015-0.436,0.157-0.428,0.486C64.069,34.404,64.238,34.543,64.604,34.511z
		 M56.96,36.063c-0.376-0.016-0.513,0.114-0.506,0.485c0.007,0.32,0.143,0.447,0.467,0.447c0.323,0,0.459-0.129,0.465-0.447
		C57.395,36.22,57.269,36.077,56.96,36.063z M59.384,36.063c-0.339,0.007-0.478,0.177-0.446,0.542
		c0.025,0.286,0.192,0.41,0.524,0.389c0.295-0.02,0.42-0.175,0.408-0.504C59.856,36.181,59.713,36.056,59.384,36.063z
		 M61.926,36.995c0.31-0.015,0.436-0.157,0.426-0.485c-0.008-0.318-0.14-0.447-0.464-0.447c-0.356,0-0.493,0.152-0.465,0.525
		C61.44,36.884,61.598,37.01,61.926,36.995z M64.41,36.995c0.307-0.015,0.434-0.157,0.425-0.485
		c-0.005-0.318-0.139-0.447-0.465-0.447c-0.355,0-0.49,0.152-0.465,0.525C63.924,36.884,64.08,37.01,64.41,36.995z M40.723,44.599
		c-0.296,0.02-0.423,0.175-0.408,0.503c0.013,0.311,0.155,0.437,0.483,0.429c0.32-0.008,0.449-0.14,0.449-0.466
		C41.248,44.707,41.094,44.575,40.723,44.599z M43.317,44.599c-0.37-0.021-0.522,0.114-0.518,0.472
		c0.001,0.323,0.132,0.454,0.453,0.46c0.325,0.006,0.465-0.124,0.476-0.435C43.741,44.769,43.616,44.616,43.317,44.599z
		 M45.728,44.599c-0.339,0.009-0.479,0.177-0.446,0.543c0.025,0.287,0.191,0.412,0.522,0.389c0.3-0.021,0.423-0.176,0.408-0.505
		C46.199,44.718,46.057,44.591,45.728,44.599z M48.25,44.754c-0.329-0.008-0.473,0.119-0.485,0.427
		c-0.018,0.376,0.114,0.513,0.485,0.503c0.318-0.007,0.445-0.14,0.445-0.464S48.568,44.762,48.25,44.754z M50.693,44.754
		c-0.317,0.008-0.447,0.142-0.447,0.466c0,0.354,0.155,0.49,0.525,0.464c0.297-0.02,0.424-0.176,0.408-0.503
		C51.165,44.872,51.021,44.746,50.693,44.754z M53.184,44.754c-0.343,0.005-0.483,0.173-0.453,0.536
		c0.022,0.29,0.185,0.414,0.518,0.394c0.299-0.018,0.428-0.168,0.413-0.497C53.65,44.877,53.511,44.748,53.184,44.754z
		 M55.691,44.754c-0.327-0.006-0.467,0.123-0.476,0.433c-0.017,0.381,0.114,0.511,0.491,0.497c0.317-0.009,0.443-0.144,0.439-0.47
		C56.143,44.893,56.012,44.759,55.691,44.754z M58.148,44.754c-0.339,0.005-0.481,0.173-0.451,0.536
		c0.021,0.29,0.187,0.414,0.516,0.394c0.301-0.018,0.426-0.168,0.413-0.497C58.616,44.877,58.475,44.748,58.148,44.754z
		 M56.921,43.513c-0.356,0-0.49,0.151-0.467,0.524c0.02,0.297,0.178,0.422,0.506,0.407c0.308-0.015,0.435-0.155,0.426-0.484
		C57.381,43.64,57.244,43.513,56.921,43.513z M59.442,43.513c-0.375-0.018-0.514,0.115-0.503,0.486
		c0.007,0.316,0.142,0.445,0.466,0.445c0.324,0,0.457-0.129,0.466-0.445C59.877,43.67,59.753,43.527,59.442,43.513z M61.908,44.443
		c0.315-0.008,0.443-0.142,0.443-0.465c0-0.325-0.127-0.459-0.443-0.466c-0.33-0.008-0.473,0.118-0.486,0.428
		C61.405,44.315,61.537,44.452,61.908,44.443z M64.429,44.443c0.295-0.02,0.42-0.175,0.406-0.503
		c-0.012-0.31-0.156-0.436-0.483-0.428c-0.338,0.009-0.478,0.179-0.446,0.543C63.931,44.343,64.099,44.467,64.429,44.443z
		 M39.54,45.84c-0.356,0-0.491,0.153-0.466,0.525c0.02,0.297,0.176,0.422,0.504,0.408c0.31-0.015,0.437-0.157,0.427-0.486
		C39.997,45.969,39.863,45.84,39.54,45.84z M41.964,45.84c-0.296,0.021-0.423,0.177-0.408,0.506c0.014,0.31,0.157,0.434,0.485,0.427
		c0.318-0.008,0.447-0.143,0.447-0.466C42.488,45.951,42.336,45.815,41.964,45.84z M44.551,45.84
		c-0.33-0.017-0.488,0.108-0.511,0.403c-0.027,0.364,0.113,0.527,0.459,0.53c0.328,0.002,0.461-0.124,0.473-0.441
		C44.984,45.991,44.865,45.857,44.551,45.84z M46.976,45.84c-0.342,0.007-0.482,0.174-0.453,0.537
		c0.023,0.288,0.188,0.415,0.52,0.396c0.298-0.021,0.424-0.169,0.412-0.5C47.444,45.963,47.302,45.835,46.976,45.84z M49.473,45.996
		c-0.356,0-0.492,0.151-0.466,0.522c0.019,0.298,0.175,0.425,0.505,0.409c0.308-0.016,0.434-0.157,0.426-0.485
		C49.93,46.124,49.795,45.996,49.473,45.996z M51.993,45.996c-0.375-0.018-0.514,0.115-0.505,0.485
		c0.009,0.318,0.141,0.446,0.465,0.446c0.327,0,0.46-0.128,0.466-0.446C52.429,46.152,52.302,46.01,51.993,45.996z M54.438,45.996
		c-0.356,0-0.49,0.152-0.465,0.522c0.02,0.298,0.175,0.425,0.503,0.409c0.31-0.016,0.434-0.157,0.427-0.485
		C54.897,46.124,54.763,45.996,54.438,45.996z M56.882,45.996c-0.309,0.016-0.434,0.156-0.428,0.485
		c0.007,0.339,0.178,0.479,0.543,0.446c0.288-0.025,0.411-0.193,0.389-0.524C57.367,46.106,57.211,45.98,56.882,45.996z
		 M59.399,45.996c-0.322,0.002-0.454,0.134-0.459,0.454c-0.006,0.325,0.121,0.466,0.434,0.478c0.379,0.015,0.51-0.113,0.499-0.491
		C59.858,46.119,59.726,45.993,59.399,45.996z M61.946,46.927c0.296-0.02,0.422-0.177,0.404-0.505
		c-0.013-0.309-0.155-0.434-0.484-0.426c-0.317,0.006-0.445,0.143-0.445,0.465C61.422,46.816,61.573,46.953,61.946,46.927z
		 M60.66,44.754c-0.326-0.006-0.467,0.123-0.479,0.433c-0.016,0.381,0.115,0.511,0.489,0.497c0.318-0.009,0.444-0.144,0.44-0.47
		C61.109,44.893,60.979,44.759,60.66,44.754z M63.188,45.684c0.295-0.019,0.421-0.176,0.408-0.503
		c-0.014-0.307-0.156-0.435-0.485-0.426c-0.339,0.009-0.477,0.177-0.447,0.543C62.69,45.582,62.856,45.709,63.188,45.684z
		 M56.954,41.029c-0.33-0.014-0.48,0.114-0.5,0.415c-0.02,0.369,0.114,0.519,0.473,0.516c0.323-0.002,0.455-0.133,0.459-0.451
		C57.391,41.182,57.264,41.043,56.954,41.029z M59.365,41.029c-0.311,0.014-0.435,0.156-0.427,0.487
		c0.007,0.336,0.176,0.478,0.542,0.444c0.286-0.024,0.411-0.192,0.39-0.524C59.851,41.139,59.694,41.014,59.365,41.029z
		 M61.908,41.96c0.315-0.007,0.443-0.141,0.443-0.466s-0.127-0.457-0.443-0.465c-0.33-0.008-0.473,0.119-0.486,0.428
		C61.405,41.833,61.537,41.969,61.908,41.96z M64.409,41.96c0.308-0.013,0.434-0.156,0.426-0.486
		c-0.005-0.314-0.139-0.446-0.465-0.446c-0.355,0-0.49,0.153-0.465,0.525C63.924,41.85,64.08,41.975,64.409,41.96z M65.558,42.277
		c-0.282,0.016-0.408,0.144-0.412,0.447c-0.003,0.223,0.062,0.354,0.201,0.421C65.422,42.86,65.491,42.568,65.558,42.277z
		 M58.196,42.271c-0.33-0.014-0.48,0.112-0.497,0.416c-0.023,0.368,0.113,0.518,0.471,0.516c0.321-0.004,0.454-0.135,0.458-0.454
		C58.632,42.423,58.506,42.282,58.196,42.271z M60.646,42.271c-0.354,0-0.49,0.151-0.465,0.523c0.019,0.298,0.174,0.422,0.504,0.408
		c0.309-0.016,0.434-0.157,0.425-0.485C61.104,42.399,60.971,42.271,60.646,42.271z M63.148,43.203
		c0.317-0.009,0.447-0.141,0.447-0.466c0-0.324-0.13-0.458-0.447-0.465c-0.329-0.007-0.472,0.117-0.485,0.426
		C62.647,43.074,62.78,43.211,63.148,43.203z M39.481,60.739c-0.298,0.02-0.423,0.176-0.407,0.504
		c0.014,0.31,0.157,0.436,0.484,0.428c0.318-0.008,0.447-0.14,0.447-0.464C40.004,60.85,39.851,60.715,39.481,60.739z
		 M41.983,60.739c-0.308,0.016-0.434,0.155-0.427,0.486c0.008,0.317,0.142,0.445,0.466,0.445c0.356,0,0.489-0.149,0.466-0.523
		C42.469,60.85,42.313,60.724,41.983,60.739z M44.524,60.739c-0.329-0.008-0.472,0.118-0.484,0.429
		c-0.017,0.374,0.115,0.513,0.484,0.503c0.318-0.008,0.447-0.14,0.447-0.464C44.972,60.881,44.842,60.747,44.524,60.739z
		 M47.021,60.739c-0.33-0.012-0.479,0.114-0.499,0.416c-0.021,0.369,0.114,0.52,0.473,0.516c0.321-0.002,0.454-0.132,0.459-0.452
		C47.459,60.891,47.332,60.751,47.021,60.739z M40.779,59.499c-0.355,0-0.491,0.151-0.464,0.523c0.02,0.296,0.176,0.422,0.504,0.406
		c0.309-0.014,0.434-0.155,0.428-0.483C41.239,59.627,41.105,59.499,40.779,59.499z M43.283,59.499
		c-0.33-0.008-0.472,0.116-0.484,0.427c-0.018,0.374,0.114,0.512,0.484,0.502c0.318-0.006,0.444-0.139,0.444-0.463
		C43.727,59.64,43.602,59.505,43.283,59.499z M45.728,59.499c-0.318,0.006-0.446,0.141-0.446,0.466c0,0.353,0.152,0.49,0.522,0.463
		c0.3-0.019,0.423-0.174,0.408-0.502C46.199,59.615,46.057,59.49,45.728,59.499z M48.23,59.652c-0.355,0-0.49,0.153-0.464,0.525
		c0.019,0.297,0.175,0.421,0.503,0.409c0.31-0.017,0.435-0.158,0.427-0.486C48.689,59.78,48.554,59.652,48.23,59.652z
		 M50.693,59.652c-0.338,0.01-0.477,0.179-0.447,0.544c0.026,0.287,0.194,0.411,0.525,0.39c0.297-0.021,0.424-0.177,0.408-0.505
		C51.165,59.771,51.021,59.646,50.693,59.652z M40.798,61.98c-0.328-0.007-0.47,0.119-0.483,0.429
		c-0.017,0.374,0.115,0.512,0.485,0.503c0.318-0.007,0.447-0.141,0.447-0.465S41.118,61.989,40.798,61.98z M43.264,61.98
		c-0.356,0-0.492,0.153-0.465,0.524c0.02,0.296,0.177,0.424,0.503,0.408c0.31-0.016,0.435-0.157,0.425-0.485
		C43.722,62.109,43.59,61.98,43.264,61.98z M55.828,24.889c-0.321,0.003-0.454,0.134-0.459,0.454
		c-0.005,0.325,0.123,0.467,0.434,0.478c0.379,0.015,0.51-0.116,0.499-0.492C56.289,25.012,56.156,24.888,55.828,24.889z
		 M58.331,24.889c-0.324-0.004-0.465,0.123-0.479,0.434c-0.014,0.377,0.116,0.51,0.493,0.498c0.316-0.009,0.442-0.143,0.44-0.473
		C58.781,25.027,58.651,24.895,58.331,24.889z M60.729,24.889c-0.287,0.023-0.414,0.188-0.393,0.518
		c0.017,0.3,0.171,0.427,0.497,0.414c0.312-0.011,0.439-0.153,0.434-0.478C61.262,24.999,61.096,24.859,60.729,24.889z
		 M63.324,25.821c0.311-0.014,0.434-0.157,0.427-0.485c-0.007-0.318-0.142-0.447-0.465-0.447c-0.355,0-0.491,0.152-0.466,0.524
		C62.838,25.708,62.994,25.836,63.324,25.821z M40.914,24.733c-0.315,0.007-0.445,0.142-0.445,0.466
		c0,0.355,0.155,0.491,0.524,0.468c0.296-0.021,0.423-0.177,0.407-0.506C41.388,24.852,41.245,24.727,40.914,24.733z M43.398,24.733
		c-0.337,0.009-0.477,0.178-0.444,0.542c0.024,0.287,0.191,0.412,0.522,0.39c0.297-0.021,0.423-0.177,0.409-0.506
		C43.871,24.853,43.728,24.727,43.398,24.733z M45.954,24.733c-0.37-0.021-0.52,0.116-0.519,0.474
		c0.002,0.322,0.133,0.454,0.454,0.459c0.326,0.005,0.466-0.124,0.479-0.434C46.379,24.904,46.254,24.754,45.954,24.733z
		 M48.404,24.889c-0.33-0.007-0.471,0.119-0.485,0.428c-0.017,0.375,0.114,0.514,0.485,0.504c0.318-0.007,0.445-0.141,0.445-0.465
		C48.849,25.031,48.722,24.896,48.404,24.889z M50.856,24.889c-0.343,0.006-0.484,0.172-0.453,0.537
		c0.023,0.289,0.186,0.415,0.516,0.395c0.301-0.018,0.426-0.171,0.415-0.498C51.322,25.012,51.182,24.885,50.856,24.889z
		 M53.332,24.889c-0.338,0.008-0.478,0.179-0.444,0.543c0.022,0.287,0.191,0.411,0.521,0.389c0.297-0.02,0.425-0.175,0.41-0.504
		C53.803,25.007,53.662,24.882,53.332,24.889z M39.655,25.975c-0.308,0.015-0.434,0.157-0.427,0.485
		c0.008,0.34,0.18,0.479,0.543,0.448c0.286-0.027,0.411-0.194,0.39-0.525C40.14,26.087,39.986,25.96,39.655,25.975z M42.214,25.975
		c-0.375-0.017-0.51,0.116-0.501,0.485c0.006,0.319,0.14,0.448,0.465,0.448c0.324,0,0.458-0.127,0.465-0.448
		C42.651,26.132,42.527,25.99,42.214,25.975z M44.693,25.975c-0.328-0.013-0.479,0.115-0.499,0.415
		c-0.021,0.371,0.114,0.519,0.473,0.518c0.321-0.003,0.454-0.132,0.458-0.453C45.132,26.128,45.004,25.988,44.693,25.975z
		 M47.145,25.975c-0.356,0-0.494,0.153-0.465,0.522c0.019,0.298,0.174,0.425,0.503,0.41c0.31-0.015,0.436-0.158,0.427-0.485
		C47.602,26.103,47.469,25.975,47.145,25.975z M49.628,26.132c-0.355,0-0.492,0.15-0.466,0.522c0.02,0.295,0.177,0.423,0.505,0.409
		c0.31-0.015,0.434-0.157,0.426-0.487C50.085,26.258,49.952,26.132,49.628,26.132z M52.07,26.132
		c-0.308,0.014-0.433,0.156-0.426,0.484c0.008,0.339,0.178,0.478,0.542,0.447c0.287-0.025,0.41-0.193,0.39-0.525
		C52.555,26.241,52.4,26.116,52.07,26.132z M54.639,26.132c-0.33-0.018-0.49,0.107-0.512,0.399
		c-0.028,0.365,0.115,0.528,0.459,0.532c0.328,0.002,0.463-0.123,0.472-0.439C55.068,26.281,54.955,26.147,54.639,26.132z
		 M57.121,26.132c-0.329-0.018-0.488,0.107-0.51,0.399c-0.027,0.365,0.115,0.528,0.458,0.532c0.329,0.002,0.462-0.123,0.473-0.439
		C57.552,26.281,57.438,26.147,57.121,26.132z M59.574,26.132c-0.327-0.005-0.469,0.121-0.479,0.433
		c-0.014,0.378,0.114,0.508,0.49,0.498c0.315-0.011,0.44-0.146,0.44-0.474C60.023,26.268,59.894,26.137,59.574,26.132z
		 M62.081,27.063c0.309-0.015,0.435-0.157,0.427-0.485c-0.007-0.319-0.141-0.446-0.465-0.446c-0.355,0-0.492,0.15-0.466,0.522
		C61.596,26.95,61.753,27.077,62.081,27.063z M40.974,22.251c-0.375-0.018-0.512,0.114-0.504,0.485
		c0.009,0.318,0.143,0.447,0.465,0.447c0.325,0,0.458-0.127,0.466-0.447C41.408,22.407,41.284,22.266,40.974,22.251z M43.36,22.251
		c-0.297,0.019-0.421,0.175-0.407,0.504c0.013,0.309,0.156,0.435,0.485,0.427c0.318-0.006,0.446-0.141,0.446-0.468
		C43.884,22.362,43.734,22.227,43.36,22.251z M45.922,22.251c-0.328-0.008-0.471,0.117-0.486,0.426
		c-0.016,0.377,0.116,0.514,0.486,0.505c0.317-0.006,0.446-0.141,0.446-0.468C46.368,22.392,46.24,22.258,45.922,22.251z
		 M48.329,22.405c-0.298,0.021-0.424,0.175-0.409,0.505c0.015,0.31,0.155,0.434,0.485,0.426c0.318-0.006,0.445-0.14,0.445-0.466
		C48.849,22.516,48.7,22.383,48.329,22.405z M50.895,22.405c-0.343-0.01-0.476,0.104-0.492,0.421c-0.018,0.33,0.107,0.488,0.4,0.51
		c0.364,0.027,0.529-0.114,0.53-0.458C51.335,22.55,51.211,22.415,50.895,22.405z M53.376,22.405
		c-0.338-0.01-0.473,0.104-0.489,0.421c-0.019,0.33,0.106,0.488,0.4,0.51c0.364,0.027,0.526-0.114,0.53-0.458
		C53.819,22.55,53.693,22.415,53.376,22.405z M55.833,22.405c-0.355,0-0.49,0.152-0.466,0.525c0.022,0.296,0.177,0.423,0.506,0.407
		c0.308-0.014,0.434-0.155,0.426-0.484C56.292,22.534,56.159,22.405,55.833,22.405z M58.319,22.405
		c-0.356,0-0.492,0.152-0.467,0.525c0.022,0.296,0.175,0.423,0.505,0.407c0.311-0.014,0.436-0.155,0.427-0.484
		C58.775,22.534,58.643,22.405,58.319,22.405z M60.813,22.405c-0.325-0.003-0.466,0.123-0.477,0.434
		c-0.016,0.38,0.114,0.511,0.491,0.498c0.317-0.009,0.443-0.145,0.441-0.473C61.264,22.543,61.135,22.41,60.813,22.405z
		 M39.675,21.009c-0.34,0.008-0.479,0.176-0.448,0.544c0.026,0.284,0.194,0.41,0.525,0.387c0.297-0.02,0.422-0.176,0.409-0.502
		C40.146,21.126,40.004,21.002,39.675,21.009z M42.195,21.009c-0.328-0.007-0.47,0.118-0.483,0.429
		c-0.018,0.374,0.114,0.512,0.483,0.502c0.32-0.008,0.447-0.141,0.447-0.465C42.644,21.15,42.516,21.017,42.195,21.009z
		 M44.641,21.009c-0.319,0.008-0.446,0.14-0.446,0.467c0,0.354,0.152,0.49,0.524,0.465c0.296-0.02,0.423-0.176,0.407-0.503
		C45.112,21.126,44.972,21.002,44.641,21.009z M47.105,21.009c-0.308,0.015-0.434,0.157-0.426,0.484
		c0.007,0.341,0.176,0.479,0.541,0.447c0.287-0.024,0.411-0.193,0.39-0.524C47.59,21.12,47.433,20.994,47.105,21.009z
		 M49.569,21.165c-0.296,0.02-0.424,0.175-0.408,0.505c0.015,0.31,0.157,0.434,0.485,0.427c0.317-0.007,0.446-0.142,0.446-0.466
		C50.092,21.274,49.94,21.14,49.569,21.165z M52.039,21.165c-0.287,0.023-0.414,0.188-0.394,0.518
		c0.018,0.299,0.17,0.425,0.496,0.414c0.311-0.012,0.439-0.154,0.435-0.479C52.571,21.276,52.404,21.134,52.039,21.165z
		 M54.536,21.165c-0.298,0.02-0.422,0.175-0.409,0.505c0.013,0.31,0.155,0.434,0.484,0.427c0.321-0.007,0.448-0.142,0.448-0.466
		C55.059,21.274,54.907,21.14,54.536,21.165z M57.019,21.165c-0.297,0.02-0.422,0.175-0.408,0.505
		c0.015,0.31,0.157,0.434,0.485,0.427c0.319-0.007,0.446-0.142,0.446-0.466C57.542,21.274,57.391,21.14,57.019,21.165z
		 M59.598,21.165c-0.375-0.016-0.512,0.114-0.502,0.486c0.006,0.318,0.139,0.446,0.465,0.446c0.324,0,0.458-0.129,0.465-0.446
		C60.032,21.321,59.908,21.179,59.598,21.165z M39.675,23.493c-0.34,0.007-0.479,0.178-0.448,0.543
		c0.026,0.284,0.194,0.411,0.525,0.388c0.297-0.02,0.422-0.175,0.409-0.504C40.146,23.611,40.004,23.484,39.675,23.493z
		 M42.164,23.493c-0.34,0.004-0.482,0.172-0.451,0.537c0.021,0.289,0.187,0.415,0.516,0.394c0.301-0.017,0.427-0.169,0.414-0.497
		C42.631,23.614,42.492,23.488,42.164,23.493z M44.68,23.493c-0.328-0.008-0.472,0.118-0.485,0.427
		c-0.016,0.375,0.116,0.511,0.485,0.504c0.318-0.006,0.446-0.141,0.446-0.466S44.998,23.5,44.68,23.493z M47.176,23.493
		c-0.328-0.012-0.479,0.113-0.496,0.415c-0.023,0.371,0.113,0.519,0.47,0.517c0.323-0.002,0.454-0.133,0.46-0.454
		C47.614,23.644,47.488,23.505,47.176,23.493z M49.639,23.649c-0.326-0.006-0.466,0.12-0.479,0.433
		c-0.014,0.379,0.114,0.51,0.493,0.498c0.315-0.012,0.441-0.144,0.438-0.473C50.091,23.783,49.959,23.653,49.639,23.649z
		 M52.108,23.649c-0.353,0-0.489,0.152-0.463,0.521c0.019,0.296,0.176,0.422,0.505,0.409c0.309-0.016,0.434-0.157,0.427-0.486
		C52.569,23.775,52.435,23.649,52.108,23.649z M54.536,23.649c-0.298,0.018-0.422,0.174-0.409,0.503
		c0.013,0.309,0.155,0.434,0.484,0.427c0.321-0.007,0.448-0.14,0.448-0.465C55.059,23.757,54.906,23.625,54.536,23.649z
		 M57.108,23.649c-0.328-0.014-0.48,0.113-0.498,0.413c-0.021,0.369,0.115,0.521,0.471,0.518c0.322-0.002,0.454-0.132,0.459-0.454
		C57.546,23.801,57.42,23.66,57.108,23.649z M59.574,23.649c-0.327-0.006-0.469,0.12-0.479,0.433
		c-0.014,0.379,0.114,0.51,0.49,0.498c0.315-0.012,0.44-0.144,0.44-0.473C60.023,23.783,59.894,23.653,59.574,23.649z
		 M62.081,24.579c0.309-0.016,0.435-0.157,0.427-0.486c-0.007-0.317-0.141-0.444-0.465-0.444c-0.355,0-0.492,0.152-0.466,0.521
		C61.596,24.468,61.753,24.593,62.081,24.579z M62.068,32.028c0.318-0.009,0.441-0.145,0.44-0.471
		c-0.001-0.322-0.133-0.455-0.451-0.46c-0.329-0.005-0.469,0.123-0.479,0.434C61.562,31.909,61.691,32.041,62.068,32.028z
		 M64.551,32.028c0.318-0.009,0.443-0.145,0.438-0.471c-0.001-0.322-0.13-0.455-0.45-0.46c-0.327-0.005-0.467,0.123-0.48,0.434
		C64.046,31.909,64.175,32.041,64.551,32.028z M57.117,31.096c-0.376-0.016-0.514,0.116-0.506,0.485
		c0.006,0.318,0.139,0.447,0.464,0.447c0.326,0,0.459-0.128,0.466-0.447C57.55,31.253,57.425,31.112,57.117,31.096z M59.502,31.096
		c-0.298,0.02-0.421,0.175-0.408,0.505c0.015,0.311,0.156,0.435,0.483,0.427c0.318-0.007,0.446-0.14,0.446-0.465
		C60.025,31.208,59.875,31.072,59.502,31.096z M58.317,32.338c-0.355,0-0.49,0.153-0.466,0.524c0.022,0.297,0.177,0.423,0.505,0.408
		c0.311-0.013,0.436-0.155,0.427-0.485C58.775,32.467,58.643,32.338,58.317,32.338z M60.744,32.338
		c-0.295,0.02-0.423,0.176-0.408,0.504c0.016,0.31,0.156,0.435,0.485,0.427c0.317-0.007,0.446-0.14,0.446-0.464
		C61.268,32.449,61.116,32.313,60.744,32.338z M63.316,33.27c0.312-0.012,0.438-0.152,0.434-0.479
		c-0.005-0.341-0.172-0.481-0.537-0.454c-0.291,0.024-0.415,0.188-0.395,0.517C62.836,33.157,62.988,33.282,63.316,33.27z
		 M57.103,28.615c-0.341-0.01-0.475,0.103-0.493,0.419c-0.016,0.329,0.107,0.491,0.401,0.512c0.363,0.026,0.528-0.115,0.529-0.459
		C57.546,28.76,57.419,28.623,57.103,28.615z M59.598,28.615c-0.375-0.017-0.512,0.113-0.502,0.486
		c0.006,0.315,0.139,0.445,0.465,0.445c0.324,0,0.458-0.13,0.465-0.445C60.032,28.77,59.908,28.628,59.598,28.615z M62.081,29.546
		c0.309-0.014,0.435-0.156,0.427-0.486c-0.007-0.318-0.141-0.446-0.465-0.446c-0.355,0-0.492,0.151-0.466,0.524
		C61.596,29.435,61.751,29.56,62.081,29.546z M64.564,29.546c0.31-0.014,0.434-0.156,0.425-0.486
		c-0.007-0.318-0.14-0.446-0.463-0.446c-0.357,0-0.492,0.15-0.468,0.524C64.08,29.435,64.235,29.56,64.564,29.546z M58.338,27.372
		c-0.33-0.008-0.472,0.117-0.486,0.427c-0.018,0.375,0.116,0.512,0.486,0.505c0.318-0.009,0.446-0.141,0.446-0.467
		C58.784,27.513,58.656,27.38,58.338,27.372z M60.788,27.372c-0.34,0.007-0.482,0.172-0.452,0.537
		c0.023,0.289,0.188,0.415,0.516,0.395c0.303-0.018,0.426-0.171,0.415-0.499C61.255,27.494,61.116,27.368,60.788,27.372z
		 M63.31,28.304c0.318-0.011,0.443-0.146,0.44-0.473c-0.003-0.321-0.132-0.454-0.453-0.459c-0.327-0.004-0.467,0.121-0.479,0.434
		C62.806,28.185,62.934,28.316,63.31,28.304z M58.299,29.855c-0.34,0.008-0.479,0.178-0.447,0.543
		c0.025,0.285,0.194,0.411,0.523,0.389c0.297-0.02,0.425-0.177,0.409-0.505C58.77,29.973,58.627,29.847,58.299,29.855z
		 M60.796,29.855c-0.322,0.003-0.454,0.132-0.46,0.453c-0.004,0.327,0.121,0.468,0.434,0.479c0.376,0.013,0.508-0.115,0.497-0.493
		C61.258,29.978,61.121,29.854,60.796,29.855z M63.251,30.788c0.378,0.013,0.51-0.115,0.498-0.493
		c-0.008-0.318-0.146-0.441-0.473-0.439c-0.322,0.003-0.455,0.132-0.458,0.453C62.813,30.635,62.942,30.775,63.251,30.788z
		 M40.955,12.319c-0.327-0.008-0.472,0.118-0.485,0.427c-0.017,0.376,0.116,0.511,0.485,0.504c0.318-0.009,0.446-0.141,0.446-0.465
		C41.401,12.46,41.274,12.327,40.955,12.319z M43.36,12.319c-0.297,0.019-0.421,0.174-0.407,0.504
		c0.013,0.309,0.156,0.434,0.485,0.427c0.318-0.009,0.446-0.141,0.446-0.465C43.884,12.429,43.734,12.292,43.36,12.319z
		 M45.884,12.319c-0.342,0.008-0.478,0.177-0.448,0.542c0.026,0.287,0.195,0.411,0.525,0.389c0.297-0.02,0.421-0.176,0.407-0.504
		C46.355,12.437,46.212,12.311,45.884,12.319z M48.385,12.476c-0.355,0-0.491,0.149-0.466,0.522c0.02,0.295,0.175,0.422,0.505,0.407
		c0.307-0.014,0.434-0.156,0.425-0.485C48.844,12.601,48.71,12.476,48.385,12.476z M50.812,12.476
		c-0.298,0.018-0.424,0.173-0.408,0.503c0.013,0.308,0.156,0.435,0.483,0.426c0.319-0.008,0.447-0.14,0.447-0.465
		C51.334,12.583,51.183,12.449,50.812,12.476z M39.675,13.559c-0.317,0.009-0.448,0.143-0.448,0.468
		c0,0.354,0.154,0.489,0.525,0.465c0.297-0.019,0.422-0.174,0.409-0.504C40.146,13.678,40.004,13.552,39.675,13.559z M42.211,13.559
		c-0.332-0.01-0.482,0.116-0.498,0.415c-0.025,0.371,0.112,0.521,0.47,0.517c0.324-0.001,0.455-0.133,0.46-0.453
		C42.648,13.712,42.521,13.571,42.211,13.559z M44.661,13.559c-0.355,0-0.492,0.152-0.466,0.527c0.02,0.295,0.176,0.42,0.505,0.406
		c0.308-0.013,0.435-0.155,0.426-0.484C45.118,13.688,44.987,13.559,44.661,13.559z M47.158,13.559
		c-0.327-0.003-0.466,0.124-0.478,0.434c-0.016,0.38,0.113,0.511,0.492,0.5c0.314-0.009,0.44-0.144,0.439-0.472
		C47.607,13.698,47.477,13.565,47.158,13.559z M49.672,13.714c-0.33-0.016-0.489,0.11-0.511,0.402
		c-0.028,0.365,0.114,0.529,0.459,0.531c0.329,0.003,0.462-0.122,0.472-0.44C50.104,13.866,49.989,13.731,49.672,13.714z
		 M52.091,13.714c-0.317,0.01-0.446,0.143-0.446,0.468c0,0.355,0.152,0.49,0.523,0.464c0.299-0.02,0.424-0.176,0.409-0.503
		C52.562,13.834,52.419,13.708,52.091,13.714z M54.593,13.714c-0.356,0-0.491,0.153-0.466,0.526c0.02,0.296,0.177,0.422,0.504,0.407
		c0.311-0.014,0.434-0.156,0.427-0.485C55.051,13.844,54.918,13.714,54.593,13.714z M40.935,9.835c-0.353,0-0.49,0.152-0.465,0.523
		c0.022,0.298,0.177,0.423,0.504,0.409c0.311-0.016,0.435-0.157,0.427-0.486C41.392,9.962,41.26,9.835,40.935,9.835z M43.406,9.835
		c-0.343,0.005-0.482,0.172-0.453,0.537c0.023,0.288,0.188,0.414,0.518,0.395c0.299-0.02,0.425-0.17,0.412-0.499
		C43.872,9.957,43.734,9.83,43.406,9.835z M45.889,9.835c-0.341,0.005-0.483,0.172-0.454,0.537c0.026,0.288,0.188,0.414,0.519,0.395
		c0.3-0.02,0.425-0.17,0.414-0.499C46.355,9.957,46.215,9.83,45.889,9.835z M39.636,8.595c-0.297,0.019-0.423,0.174-0.408,0.503
		c0.016,0.31,0.158,0.435,0.485,0.427c0.319-0.007,0.449-0.14,0.449-0.465C40.161,8.704,40.006,8.569,39.636,8.595z M41.841,8.691
		c-0.099,0.082-0.143,0.217-0.128,0.427c0.02,0.295,0.173,0.422,0.501,0.406c0.312-0.015,0.437-0.157,0.429-0.485
		c-0.001-0.108-0.026-0.188-0.06-0.254C42.336,8.751,42.09,8.721,41.841,8.691z M39.694,11.077c-0.355,0-0.492,0.152-0.466,0.523
		c0.022,0.298,0.178,0.423,0.505,0.408c0.311-0.015,0.435-0.157,0.428-0.484C40.151,11.205,40.018,11.077,39.694,11.077z
		 M42.211,11.077c-0.332-0.013-0.482,0.113-0.498,0.413c-0.025,0.371,0.112,0.521,0.47,0.518c0.324-0.002,0.455-0.133,0.46-0.453
		C42.648,11.229,42.521,11.088,42.211,11.077z M44.661,11.077c-0.355,0-0.492,0.152-0.466,0.523c0.02,0.298,0.176,0.423,0.505,0.408
		c0.308-0.014,0.435-0.157,0.426-0.484C45.118,11.205,44.987,11.077,44.661,11.077z M47.195,11.077
		c-0.369-0.021-0.52,0.113-0.515,0.472c0.001,0.323,0.132,0.454,0.45,0.459c0.329,0.006,0.468-0.123,0.481-0.434
		C47.622,11.245,47.497,11.097,47.195,11.077z M49.661,11.232c-0.329-0.013-0.481,0.113-0.5,0.414
		c-0.023,0.371,0.114,0.521,0.474,0.518c0.322-0.001,0.454-0.134,0.458-0.453C50.098,11.384,49.972,11.243,49.661,11.232z
		 M52.108,12.164c0.094,0,0.167-0.013,0.232-0.036c-0.228-0.132-0.458-0.261-0.69-0.386C51.663,12.04,51.794,12.164,52.108,12.164z
		 M49.665,18.681c-0.375-0.016-0.513,0.115-0.503,0.486c0.007,0.317,0.141,0.445,0.466,0.445c0.324,0,0.458-0.127,0.465-0.446
		C50.101,18.838,49.974,18.696,49.665,18.681z M52.091,18.681c-0.317,0.006-0.446,0.141-0.446,0.467
		c0,0.354,0.152,0.491,0.523,0.464c0.299-0.02,0.424-0.175,0.409-0.502C52.562,18.798,52.419,18.673,52.091,18.681z M54.586,18.681
		c-0.323,0.001-0.456,0.135-0.459,0.453c-0.006,0.326,0.122,0.466,0.433,0.477c0.378,0.015,0.51-0.113,0.499-0.491
		C55.049,18.805,54.915,18.678,54.586,18.681z M57.103,18.681c-0.341-0.009-0.475,0.104-0.493,0.42
		c-0.016,0.33,0.107,0.49,0.401,0.51c0.363,0.028,0.528-0.111,0.529-0.459C57.546,18.827,57.419,18.691,57.103,18.681z
		 M59.488,18.681c-0.291,0.024-0.414,0.189-0.394,0.519c0.017,0.3,0.168,0.425,0.499,0.412c0.309-0.011,0.438-0.152,0.431-0.477
		C60.02,18.794,59.854,18.653,59.488,18.681z M39.636,18.525c-0.297,0.02-0.423,0.175-0.408,0.506
		c0.016,0.308,0.158,0.434,0.485,0.426c0.319-0.007,0.449-0.142,0.449-0.466C40.161,18.636,40.006,18.501,39.636,18.525z
		 M42.164,18.525c-0.34,0.005-0.482,0.173-0.451,0.539c0.021,0.289,0.187,0.413,0.516,0.393c0.301-0.017,0.427-0.17,0.414-0.498
		C42.631,18.647,42.492,18.521,42.164,18.525z M44.641,18.525c-0.339,0.009-0.479,0.178-0.446,0.544
		c0.024,0.286,0.193,0.41,0.524,0.388c0.296-0.02,0.423-0.174,0.407-0.504C45.112,18.643,44.972,18.519,44.641,18.525z
		 M47.145,18.525c-0.356,0-0.494,0.153-0.465,0.525c0.019,0.295,0.174,0.421,0.503,0.407c0.31-0.014,0.436-0.156,0.427-0.486
		C47.602,18.654,47.469,18.525,47.145,18.525z M40.974,19.767c-0.375-0.016-0.512,0.116-0.504,0.484
		c0.009,0.319,0.143,0.448,0.465,0.448c0.325,0,0.458-0.129,0.466-0.448C41.408,19.923,41.284,19.782,40.974,19.767z M43.419,19.767
		c-0.356,0-0.492,0.152-0.466,0.524c0.021,0.297,0.175,0.422,0.503,0.408c0.311-0.015,0.436-0.157,0.427-0.486
		C43.877,19.896,43.744,19.767,43.419,19.767z M45.94,19.767c-0.374-0.016-0.511,0.116-0.505,0.484
		c0.008,0.319,0.142,0.448,0.466,0.448c0.326,0,0.458-0.129,0.466-0.448C46.376,19.923,46.251,19.782,45.94,19.767z M48.437,19.922
		c-0.369-0.021-0.521,0.116-0.518,0.473c0.002,0.322,0.134,0.454,0.454,0.459c0.325,0.005,0.464-0.119,0.477-0.433
		C48.863,20.091,48.738,19.941,48.437,19.922z M50.812,19.922c-0.298,0.021-0.424,0.177-0.408,0.506
		c0.013,0.31,0.156,0.434,0.483,0.427c0.317-0.006,0.447-0.14,0.447-0.465C51.334,20.035,51.183,19.898,50.812,19.922z
		 M53.402,19.922c-0.37-0.021-0.517,0.116-0.515,0.473c0.001,0.322,0.13,0.454,0.45,0.459c0.328,0.005,0.467-0.119,0.481-0.433
		C53.831,20.091,53.703,19.941,53.402,19.922z M55.815,19.922c-0.319,0.007-0.447,0.143-0.447,0.467c0,0.355,0.153,0.49,0.524,0.465
		c0.295-0.02,0.423-0.174,0.408-0.504C56.286,20.04,56.143,19.915,55.815,19.922z M58.319,19.922c-0.356,0-0.492,0.152-0.467,0.525
		c0.022,0.297,0.175,0.421,0.505,0.407c0.311-0.012,0.436-0.156,0.427-0.484C58.775,20.051,58.643,19.922,58.319,19.922z
		 M39.733,16.043c-0.375-0.018-0.514,0.116-0.505,0.485c0.008,0.318,0.144,0.447,0.466,0.447c0.325,0,0.458-0.13,0.467-0.448
		C40.167,16.198,40.042,16.056,39.733,16.043z M42.191,16.043c-0.327-0.006-0.466,0.122-0.478,0.433
		c-0.016,0.379,0.113,0.512,0.489,0.5c0.317-0.011,0.442-0.145,0.441-0.473C42.641,16.18,42.51,16.049,42.191,16.043z
		 M44.688,16.043c-0.342-0.011-0.476,0.104-0.494,0.421c-0.018,0.329,0.11,0.49,0.402,0.511c0.364,0.025,0.527-0.115,0.53-0.46
		C45.129,16.187,45.002,16.053,44.688,16.043z M47.158,16.043c-0.327-0.006-0.466,0.122-0.478,0.433
		c-0.016,0.379,0.113,0.512,0.492,0.5c0.314-0.011,0.44-0.145,0.439-0.473C47.607,16.18,47.477,16.049,47.158,16.043z
		 M49.608,16.197c-0.318,0.008-0.446,0.141-0.446,0.466c0,0.356,0.153,0.491,0.524,0.467c0.297-0.021,0.421-0.177,0.407-0.506
		C50.079,16.315,49.937,16.191,49.608,16.197z M52.091,16.197c-0.339,0.008-0.479,0.178-0.446,0.544
		c0.025,0.286,0.192,0.409,0.523,0.39c0.299-0.021,0.424-0.177,0.409-0.506C52.562,16.315,52.419,16.191,52.091,16.197z
		 M54.536,16.197c-0.298,0.021-0.422,0.176-0.409,0.504c0.013,0.311,0.155,0.435,0.484,0.429c0.321-0.009,0.448-0.144,0.448-0.467
		C55.059,16.309,54.906,16.175,54.536,16.197z M57.019,16.197c-0.297,0.021-0.422,0.176-0.408,0.504
		c0.015,0.311,0.157,0.435,0.485,0.429c0.319-0.009,0.446-0.144,0.446-0.467C57.542,16.309,57.391,16.175,57.019,16.197z
		 M40.93,14.801c-0.321,0.003-0.454,0.134-0.46,0.452c-0.005,0.328,0.125,0.467,0.435,0.479c0.379,0.016,0.508-0.115,0.496-0.491
		C41.391,14.926,41.258,14.799,40.93,14.801z M43.406,14.801c-0.343,0.006-0.482,0.173-0.453,0.538
		c0.023,0.289,0.188,0.415,0.518,0.394c0.299-0.018,0.425-0.168,0.412-0.497C43.872,14.925,43.734,14.795,43.406,14.801z
		 M45.935,14.801c-0.328-0.011-0.48,0.115-0.5,0.415c-0.022,0.37,0.116,0.52,0.475,0.516c0.321-0.004,0.453-0.132,0.458-0.452
		C46.374,14.954,46.246,14.812,45.935,14.801z M48.424,14.955c-0.376-0.016-0.514,0.118-0.505,0.488
		c0.007,0.316,0.14,0.446,0.466,0.446c0.326,0,0.458-0.129,0.464-0.446C48.858,15.114,48.731,14.972,48.424,14.955z M50.849,14.955
		c-0.318,0.01-0.445,0.143-0.445,0.468c0,0.354,0.152,0.489,0.524,0.465c0.297-0.02,0.421-0.175,0.407-0.505
		C51.318,15.074,51.176,14.949,50.849,14.955z M53.344,14.955c-0.322,0.004-0.454,0.136-0.456,0.453
		c-0.007,0.329,0.119,0.469,0.431,0.481c0.38,0.015,0.511-0.116,0.499-0.491C53.807,15.08,53.672,14.954,53.344,14.955z
		 M55.815,14.955c-0.319,0.01-0.447,0.143-0.447,0.468c0,0.354,0.153,0.489,0.524,0.465c0.295-0.02,0.423-0.175,0.408-0.505
		C56.286,15.074,56.143,14.949,55.815,14.955z M40.917,17.286c-0.318,0.009-0.447,0.14-0.447,0.465c0,0.355,0.152,0.49,0.524,0.466
		c0.296-0.02,0.423-0.176,0.407-0.506C41.388,17.402,41.245,17.277,40.917,17.286z M43.457,17.286
		c-0.375-0.018-0.511,0.114-0.503,0.485c0.007,0.317,0.141,0.446,0.466,0.446c0.324,0,0.458-0.129,0.465-0.446
		C43.893,17.441,43.768,17.299,43.457,17.286z M45.884,17.286c-0.342,0.009-0.478,0.176-0.448,0.544
		c0.026,0.285,0.195,0.409,0.525,0.386c0.297-0.02,0.421-0.176,0.407-0.506C46.355,17.402,46.212,17.277,45.884,17.286z
		 M48.346,17.441c-0.308,0.014-0.434,0.155-0.427,0.483c0.007,0.318,0.14,0.447,0.466,0.447c0.355,0,0.492-0.151,0.464-0.524
		C48.829,17.551,48.676,17.425,48.346,17.441z M50.908,17.441c-0.376-0.019-0.514,0.114-0.503,0.485
		c0.007,0.316,0.139,0.445,0.465,0.445c0.324,0,0.458-0.128,0.466-0.447C51.343,17.595,51.215,17.455,50.908,17.441z M53.389,17.441
		c-0.376-0.019-0.512,0.114-0.501,0.485c0.005,0.316,0.139,0.445,0.465,0.445c0.324,0,0.458-0.128,0.466-0.447
		C53.825,17.595,53.7,17.455,53.389,17.441z M55.835,17.441c-0.356,0-0.492,0.15-0.468,0.522c0.022,0.298,0.177,0.423,0.506,0.408
		c0.308-0.014,0.434-0.157,0.426-0.484C56.292,17.568,56.159,17.441,55.835,17.441z M58.26,17.441
		c-0.297,0.019-0.422,0.174-0.409,0.503c0.016,0.309,0.157,0.435,0.486,0.427c0.318-0.007,0.446-0.141,0.446-0.465
		C58.784,17.551,58.632,17.415,58.26,17.441z M68.829,36.065c0,16.602-13.508,30.111-30.111,30.111v0.046
		c-16.655,0-30.158-13.503-30.158-30.157c0-16.656,13.502-30.157,30.158-30.157v0.045C55.321,5.953,68.829,19.461,68.829,36.065z
		 M38.694,31.723c-1.428-2.217-3.916-3.687-6.749-3.687c-4.433,0-8.027,3.594-8.027,8.029c0,4.435,3.594,8.029,8.027,8.029
		c2.84,0,5.324-1.484,6.749-3.711V31.723z M65.565,29.888c0.068,0.297,0.134,0.593,0.193,0.893
		C65.699,30.48,65.635,30.185,65.565,29.888z M64.419,26.15c0.113,0.291,0.22,0.581,0.321,0.875
		C64.639,26.731,64.532,26.439,64.419,26.15z M61.891,21.185c0.171,0.265,0.339,0.532,0.502,0.803
		C62.23,21.717,62.062,21.45,61.891,21.185z M48.019,10.129c0.276,0.1,0.55,0.208,0.823,0.315
		C48.568,10.336,48.295,10.229,48.019,10.129z M44.203,9.06c0.271,0.055,0.537,0.118,0.803,0.183
		C44.74,9.179,44.473,9.114,44.203,9.06z M46.185,62.583c-0.263,0.074-0.525,0.146-0.789,0.215
		C45.661,62.73,45.923,62.659,46.185,62.583z M54.693,58.495c-0.231,0.166-0.464,0.333-0.702,0.491
		C54.229,58.828,54.462,58.661,54.693,58.495z M61.447,51.618c-0.013-0.05-0.024-0.104-0.025-0.17
		c-0.009-0.354,0.121-0.485,0.455-0.483c1.005-1.554,1.856-3.217,2.535-4.965c-0.111,0.285-0.221,0.573-0.341,0.853
		c-0.103-0.066-0.157-0.177-0.166-0.352c-0.014-0.332,0.11-0.485,0.408-0.506c0.039-0.004,0.066,0.005,0.1,0.005
		c0.661-1.704,1.158-3.489,1.47-5.338c-0.059,0.029-0.126,0.051-0.212,0.055c-0.331,0.023-0.499-0.1-0.525-0.387
		c-0.031-0.366,0.108-0.534,0.447-0.542c0.202-0.004,0.326,0.048,0.401,0.154c-0.034,0.241-0.073,0.481-0.112,0.72
		c0.251-1.496,0.39-3.03,0.39-4.597c0-0.983-0.055-1.955-0.155-2.913c-0.064,0.064-0.15,0.107-0.272,0.117
		c-0.366,0.033-0.536-0.107-0.544-0.446c-0.006-0.328,0.118-0.471,0.428-0.485c0.123-0.005,0.214,0.016,0.291,0.052
		c0.013,0.099,0.024,0.198,0.039,0.295c-0.081-0.642-0.176-1.276-0.299-1.903c-0.315,0.002-0.458-0.132-0.458-0.462
		c0-0.251,0.08-0.386,0.264-0.438c-0.224-0.97-0.497-1.922-0.821-2.851c-0.062,0.02-0.135,0.033-0.226,0.031
		c-0.346-0.003-0.485-0.166-0.46-0.531c0.019-0.239,0.136-0.361,0.356-0.39c-0.375-0.969-0.802-1.911-1.279-2.823
		c-0.213-0.039-0.311-0.167-0.317-0.428c-0.001-0.054,0.007-0.097,0.013-0.141c0.101,0.183,0.198,0.369,0.295,0.554
		c-0.234-0.446-0.476-0.886-0.735-1.316c-0.075,0.071-0.186,0.107-0.35,0.107c-0.325,0-0.458-0.129-0.466-0.446
		c-0.007-0.282,0.093-0.42,0.313-0.465c-0.208-0.323-0.421-0.641-0.643-0.955c0.009,0.048,0.019,0.098,0.019,0.158
		c0,0.325-0.129,0.458-0.446,0.465c-0.371,0.009-0.504-0.127-0.485-0.503c0.015-0.311,0.155-0.435,0.485-0.428
		c0.106,0.002,0.184,0.025,0.25,0.059c0.023,0.033,0.046,0.067,0.071,0.1c-1.987-2.78-4.477-5.176-7.336-7.057
		c-0.03,0.283-0.186,0.407-0.518,0.381c-0.294-0.021-0.419-0.182-0.4-0.51c0.008-0.18,0.062-0.29,0.166-0.354
		c0.011,0.006,0.021,0.015,0.033,0.021c-1.341-0.822-2.76-1.529-4.238-2.115c0,0.001,0,0.003,0,0.003
		c0.004,0.328-0.121,0.461-0.438,0.47c-0.378,0.013-0.506-0.118-0.491-0.497c0.004-0.133,0.04-0.226,0.097-0.296
		c-0.947-0.341-1.921-0.625-2.915-0.863c-0.05,0.178-0.181,0.256-0.421,0.261C44.323,9.53,44.192,9.4,44.196,9.055
		c-1.771-0.358-3.604-0.548-5.48-0.548v1.38c0.142,0.068,0.206,0.202,0.2,0.432c-0.004,0.208-0.069,0.328-0.2,0.39v1.665
		c0.126,0.063,0.193,0.179,0.2,0.375c0.009,0.234-0.055,0.374-0.2,0.444v1.661c0.13,0.063,0.196,0.182,0.2,0.39
		c0.006,0.23-0.058,0.364-0.2,0.432v1.662c0.13,0.062,0.196,0.183,0.2,0.391c0.006,0.229-0.058,0.363-0.2,0.431v1.66
		c0.13,0.064,0.196,0.184,0.2,0.391c0.006,0.23-0.058,0.364-0.2,0.431v1.66c0.132,0.064,0.2,0.192,0.2,0.411
		c0,0.22-0.064,0.347-0.2,0.412v1.664c0.126,0.062,0.193,0.179,0.2,0.376c0.009,0.236-0.055,0.375-0.2,0.445v1.66
		c0.13,0.064,0.196,0.183,0.2,0.39c0.001,0.018-0.004,0.031-0.004,0.048h0.607h0.878h0.076c-0.001-0.032-0.008-0.056-0.005-0.092
		c0.023-0.292,0.182-0.416,0.511-0.4c0.317,0.017,0.433,0.151,0.421,0.492v0.001h1.557c-0.001-0.01-0.004-0.015-0.004-0.026
		c0-0.327,0.129-0.459,0.444-0.467c0.33-0.008,0.473,0.119,0.486,0.427c0.001,0.026-0.006,0.043-0.006,0.066h1.559
		c0-0.002-0.002-0.004-0.002-0.007c-0.006-0.329,0.12-0.473,0.427-0.486c0.331-0.013,0.487,0.111,0.505,0.408
		c0.001,0.032-0.005,0.054-0.006,0.084h1.569c0.034-0.211,0.157-0.321,0.397-0.337c0.319-0.02,0.466,0.085,0.505,0.337h1.587
		c0.035-0.229,0.166-0.335,0.443-0.337c0.285-0.003,0.417,0.102,0.455,0.337h1.578c0.034-0.208,0.156-0.319,0.385-0.337
		c0.316-0.026,0.475,0.087,0.518,0.337h1.583c0.034-0.219,0.158-0.325,0.414-0.337c0.327-0.015,0.483,0.111,0.504,0.407
		c0.025,0.372-0.11,0.525-0.466,0.525c-0.209,0-0.332-0.062-0.399-0.185v1.911c0.072-0.128,0.204-0.185,0.44-0.174
		c0.308,0.014,0.434,0.156,0.426,0.485c-0.007,0.318-0.142,0.447-0.466,0.447c-0.209,0-0.332-0.062-0.399-0.185v1.92
		c0.067-0.119,0.183-0.18,0.381-0.184c0.327-0.007,0.472,0.118,0.485,0.427c0.016,0.33-0.111,0.486-0.408,0.504
		c-0.242,0.017-0.384-0.044-0.459-0.181v1.774c0.058-0.023,0.125-0.037,0.207-0.041c0.328-0.016,0.481,0.112,0.503,0.408
		c0.022,0.331-0.104,0.499-0.389,0.523c-0.138,0.011-0.238-0.008-0.322-0.046v1.641c0.072-0.028,0.157-0.046,0.272-0.042
		c0.317,0.01,0.443,0.144,0.439,0.472c-0.002,0.345-0.165,0.486-0.53,0.46c-0.07-0.006-0.128-0.021-0.181-0.041v1.639
		c0.069-0.029,0.151-0.049,0.257-0.047c0.32,0.005,0.45,0.138,0.453,0.458c0.003,0.328-0.123,0.462-0.439,0.472
		c-0.115,0.004-0.199-0.012-0.272-0.037v1.639c0.078-0.034,0.168-0.057,0.291-0.049c0.317,0.018,0.431,0.149,0.42,0.49
		c-0.01,0.316-0.145,0.441-0.472,0.441c-0.097,0-0.174-0.018-0.239-0.044v1.261H54.61c-0.042,0.01-0.082,0.021-0.136,0.023
		c-0.092,0.005-0.167-0.006-0.235-0.023h-2.094c-0.054,0.016-0.114,0.022-0.186,0.023c-0.078,0-0.139-0.01-0.197-0.023h-2.072
		c-0.068,0.02-0.15,0.027-0.253,0.023c-0.056-0.002-0.1-0.014-0.143-0.023H38.724h-0.006v0.398c0.028,0.066,0.045,0.144,0.045,0.246
		c0,0.104-0.018,0.181-0.045,0.248v1.994c0.028,0.067,0.047,0.147,0.045,0.256c-0.001,0.096-0.019,0.17-0.045,0.234v1.979
		c0.024,0.056,0.04,0.119,0.045,0.196c0.007,0.125-0.013,0.22-0.045,0.299v1.991c0.031,0.073,0.05,0.159,0.045,0.279
		c-0.003,0.092-0.02,0.163-0.045,0.225v1.985c0.027,0.063,0.044,0.14,0.045,0.233c0,0.107-0.018,0.187-0.045,0.257v1.989
		c0.025,0.061,0.042,0.133,0.045,0.224c0.003,0.124-0.016,0.214-0.045,0.288v1.967c0.024,0.057,0.04,0.121,0.045,0.198
		c0.009,0.134-0.01,0.228-0.045,0.307v1.981c0.025,0.062,0.042,0.134,0.045,0.226c0.003,0.124-0.016,0.213-0.045,0.287v0.914
		c0.267,0,0.529-0.016,0.792-0.021c-0.144,0.005-0.286,0.01-0.429,0.012c0.02-0.244,0.142-0.371,0.399-0.388
		c0.331-0.021,0.479,0.092,0.509,0.364c0.632-0.026,1.259-0.081,1.878-0.152c-0.094,0.012-0.187,0.026-0.281,0.036
		c0.058-0.179,0.198-0.254,0.453-0.248c0.175,0.005,0.289,0.053,0.358,0.144c1.017-0.137,2.015-0.324,2.994-0.568
		c-0.067-0.069-0.104-0.17-0.111-0.312c-0.015-0.331,0.108-0.486,0.407-0.506c0.373-0.022,0.524,0.11,0.524,0.467
		c0,0.053-0.01,0.092-0.016,0.134c0.975-0.275,1.928-0.602,2.854-0.979c-0.033-0.079-0.054-0.176-0.043-0.305
		c0.021-0.295,0.181-0.419,0.511-0.402c0.258,0.015,0.379,0.111,0.409,0.333c-0.286,0.13-0.576,0.254-0.866,0.372
		c1.736-0.706,3.386-1.582,4.927-2.61c-0.006-0.035-0.014-0.064-0.014-0.106c-0.003-0.355,0.145-0.493,0.517-0.472
		c0.097,0.007,0.167,0.031,0.229,0.065c0.383-0.273,0.759-0.557,1.125-0.85c-0.164,0.132-0.328,0.264-0.496,0.391
		c-0.091-0.074-0.134-0.197-0.134-0.381c0-0.325,0.125-0.458,0.445-0.466c0.253-0.007,0.395,0.069,0.452,0.246
		c0.229-0.185,0.452-0.378,0.673-0.572c-0.224-0.038-0.329-0.17-0.331-0.443c-0.001-0.357,0.148-0.494,0.517-0.472
		c0.264,0.017,0.387,0.143,0.406,0.391c-0.19,0.174-0.384,0.342-0.578,0.512c0.631-0.549,1.236-1.127,1.814-1.73
		c-0.165,0.172-0.326,0.346-0.497,0.513c-0.315-0.008-0.434-0.142-0.418-0.493c0.011-0.311,0.15-0.438,0.478-0.435
		c0.298,0.008,0.427,0.13,0.443,0.408c0.336-0.353,0.665-0.713,0.982-1.082c-0.103,0.119-0.203,0.239-0.307,0.355
		c-0.224-0.029-0.34-0.153-0.355-0.397c-0.025-0.372,0.11-0.524,0.466-0.524c0.259,0,0.392,0.088,0.442,0.283
		C60.412,53.052,60.947,52.349,61.447,51.618z M40.713,42.433h12.735V29.697H40.713V42.433z M61.45,51.615
		c0.142-0.208,0.278-0.418,0.415-0.629C61.729,51.197,61.592,51.409,61.45,51.615z"/>
	<path fill="#231F20" d="M81.822,35.539c0.762,0,1.693-0.085,2.117-0.169v-2.004c-0.396,0.113-0.986,0.198-1.523,0.198
		c-1.807,0-2.314-0.79-2.314-2.371v-8.75h3.867v-2.004h-3.867v-5.306h-2.427v5.306h-2.597v2.004h2.597v9.287
		C77.674,34.324,78.689,35.539,81.822,35.539z M87.24,35.341h2.456V24.615c1.554-1.468,3.048-2.399,4.826-2.399
		c1.892,0,2.737,0.931,2.737,2.907v10.218h2.428V24.587c0-2.823-1.553-4.459-4.402-4.459c-2.428,0-4.291,1.27-5.589,2.54v-8.214
		H87.24V35.341z M103.949,17.248h2.539v-2.371h-2.539V17.248z M104.003,35.341h2.429V20.438h-2.429V35.341z M110.891,35.341h2.456
		V24.615c1.553-1.468,3.048-2.399,4.826-2.399c1.892,0,2.738,0.931,2.738,2.907v10.218h2.426V24.587
		c0-2.823-1.551-4.459-4.402-4.459c-2.428,0-4.29,1.27-5.588,2.54v-2.23h-2.456V35.341z M127.485,35.341h2.429v-4.573l2.963-3.189
		l4.403,7.762h2.599l-5.42-9.569l4.881-5.334h-2.766l-6.66,7.451V14.454h-2.429V35.341L127.485,35.341z M81.625,57.91
		c3.388,0,5.957-1.523,5.957-4.374c0-3.076-2.315-3.896-5.674-4.714c-2.344-0.537-3.529-1.045-3.529-2.428
		c0-1.045,0.848-2.004,3.021-2.004c1.666,0,3.189,0.733,4.318,1.778l1.27-1.608c-1.383-1.3-3.076-2.146-5.699-2.146
		c-3.248,0-5.223,1.807-5.223,4.062c0,2.881,2.173,3.728,5.334,4.489c2.54,0.593,3.838,1.156,3.838,2.652
		c0,1.524-1.27,2.344-3.584,2.344c-2.031,0-3.528-0.847-4.657-2.062l-1.468,1.469C76.742,56.839,78.943,57.91,81.625,57.91z
		 M91.05,63.273h2.428v-7.564c1.271,1.326,2.822,2.146,4.658,2.146c3.641,0,6.322-2.513,6.322-7.707
		c0-5.192-2.653-7.732-6.069-7.732c-2.229,0-3.781,1.129-4.911,2.371v-2.061H91.05V63.273z M97.796,55.879
		c-1.58,0-3.021-0.79-4.318-2.259v-6.83c1.242-1.354,2.625-2.286,4.348-2.286c2.398,0,4.205,1.863,4.205,5.673
		C102.03,54.129,100.393,55.879,97.796,55.879z M111.259,57.854c2.229,0,4.093-0.732,5.758-2.287c0,0.848,0.141,1.44,0.338,2.062
		h2.484c-0.312-0.763-0.424-1.863-0.424-3.67v-6.576c0-3.104-1.412-4.968-4.969-4.968c-2.963,0-5.193,1.187-6.914,2.767l1.271,1.523
		c1.467-1.27,3.132-2.258,5.391-2.258c1.834,0,2.822,0.902,2.822,2.767v0.677c-7.396,1.045-9.964,3.189-9.964,6.211
		C107.053,56.499,108.69,57.854,111.259,57.854z M111.964,55.936c-1.553,0-2.512-0.762-2.512-2.201c0-1.862,1.891-3.246,7.563-4.149
		v4.179C115.632,55.117,113.939,55.936,111.964,55.936z M129.349,57.939c3.218,0,4.939-1.75,6.098-4.234l-2.005-0.79
		c-0.96,2.174-2.116,2.992-4.009,2.992c-2.512,0-4.262-2.062-4.262-5.73c0-4.204,2.175-5.7,4.317-5.7
		c1.948,0,3.104,1.045,3.839,2.963l2.062-0.848c-0.903-2.199-2.484-4.177-5.844-4.177c-3.33,0-6.83,2.313-6.83,7.762
		C122.716,55.286,125.905,57.939,129.349,57.939z M144.589,57.939c2.793,0,4.686-1.187,6.068-3.162l-1.412-1.241
		c-1.129,1.553-2.343,2.428-4.488,2.428c-2.454,0-4.402-1.807-4.486-5.166h10.527V50.29c0-5.392-2.682-7.875-6.209-7.875
		c-3.133,0-6.745,2.343-6.745,7.762C137.843,55.371,141.061,57.939,144.589,57.939z M140.328,48.907
		c0.338-3.077,2.229-4.46,4.232-4.46c2.456,0,3.727,1.807,3.924,4.46H140.328z"/>
	<g>
		<rect x="142.123" y="34.436" fill="#231F20" width="10.254" height="1.81"/>
	</g>
</g>
</svg>
