<?xml version="1.0" encoding="utf-8"?>
<!-- Generator: Adobe Illustrator 16.0.0, SVG Export Plug-In . SVG Version: 6.00 Build 0)  -->
<!DOCTYPE svg PUBLIC "-//W3C//DTD SVG 1.1//EN" "http://www.w3.org/Graphics/SVG/1.1/DTD/svg11.dtd">
<svg version="1.1" id="Layer_1" xmlns="http://www.w3.org/2000/svg" xmlns:xlink="http://www.w3.org/1999/xlink" x="0px" y="0px"
	 width="155.667px" height="72px" viewBox="0 0 155.667 72" enable-background="new 0 0 155.667 72" xml:space="preserve">
<g>
	<circle fill-rule="evenodd" clip-rule="evenodd" fill="#FFFFFF" cx="36.808" cy="36.065" r="33.517"/>
	<path fill-rule="evenodd" clip-rule="evenodd" fill="#00B3E3" d="M38.312,52.061c0.023,0.349-0.109,0.525-0.411,0.552
		c-0.385,0.035-0.562-0.113-0.571-0.47c-0.01-0.348,0.125-0.498,0.448-0.513C38.127,51.614,38.293,51.746,38.312,52.061z
		 M40.443,51.63c-0.376,0-0.518,0.161-0.492,0.553c0.021,0.312,0.187,0.446,0.534,0.43c0.325-0.016,0.458-0.165,0.449-0.511
		C40.926,51.767,40.787,51.63,40.443,51.63z M43.065,51.63c-0.375,0-0.518,0.161-0.492,0.553c0.021,0.312,0.185,0.446,0.533,0.43
		c0.326-0.016,0.459-0.165,0.451-0.511C43.548,51.767,43.407,51.63,43.065,51.63z M45.728,51.63
		c-0.397-0.019-0.544,0.122-0.533,0.513c0.008,0.334,0.148,0.47,0.492,0.47c0.343,0,0.483-0.136,0.492-0.47
		C46.186,51.795,46.056,51.645,45.728,51.63z M48.293,51.794c-0.359,0.006-0.508,0.181-0.477,0.566
		c0.024,0.305,0.198,0.438,0.547,0.417c0.316-0.02,0.45-0.181,0.437-0.526C48.788,51.922,48.638,51.787,48.293,51.794z
		 M50.908,51.794c-0.333,0.008-0.471,0.148-0.471,0.491c0,0.375,0.162,0.518,0.555,0.492c0.312-0.021,0.445-0.186,0.428-0.533
		C51.406,51.916,51.256,51.785,50.908,51.794z M53.579,51.794c-0.359-0.011-0.5,0.11-0.518,0.442
		c-0.021,0.349,0.115,0.517,0.421,0.541c0.387,0.027,0.559-0.123,0.562-0.486C54.045,51.946,53.915,51.804,53.579,51.794z
		 M56.173,51.794c-0.376,0-0.517,0.159-0.493,0.553c0.021,0.313,0.187,0.446,0.535,0.431c0.325-0.016,0.459-0.165,0.449-0.513
		C56.659,51.929,56.514,51.794,56.173,51.794z M58.815,51.794c-0.347-0.009-0.498,0.122-0.512,0.45
		c-0.02,0.397,0.12,0.541,0.512,0.533c0.336-0.008,0.472-0.148,0.472-0.492C59.287,51.942,59.151,51.802,58.815,51.794z
		 M49.653,50.482c-0.348-0.014-0.506,0.12-0.527,0.437c-0.021,0.393,0.124,0.55,0.5,0.547c0.34-0.002,0.48-0.141,0.486-0.479
		C50.117,50.645,49.982,50.496,49.653,50.482z M52.179,50.482c-0.314,0.021-0.446,0.186-0.43,0.532
		c0.014,0.327,0.166,0.458,0.512,0.451c0.336-0.009,0.471-0.149,0.471-0.492C52.732,50.597,52.573,50.456,52.179,50.482z
		 M54.89,50.482c-0.359-0.011-0.501,0.109-0.518,0.445c-0.021,0.346,0.114,0.517,0.422,0.538c0.386,0.029,0.557-0.121,0.56-0.483
		C55.357,50.636,55.225,50.492,54.89,50.482z M57.484,50.482c-0.375,0-0.519,0.162-0.49,0.553c0.02,0.314,0.186,0.445,0.529,0.431
		c0.329-0.014,0.459-0.166,0.451-0.512C57.967,50.618,57.826,50.482,57.484,50.482z M60.16,50.482
		c-0.392-0.024-0.547,0.121-0.544,0.5c0.001,0.339,0.14,0.478,0.477,0.483c0.345,0.006,0.493-0.128,0.504-0.456
		C60.61,50.661,60.477,50.502,60.16,50.482z M41.692,52.94c-0.314,0.021-0.447,0.187-0.43,0.532
		c0.014,0.325,0.164,0.459,0.512,0.451c0.336-0.009,0.469-0.149,0.469-0.493C42.244,53.056,42.085,52.915,41.692,52.94z
		 M44.375,52.94c-0.376,0-0.517,0.159-0.49,0.553c0.021,0.313,0.185,0.445,0.531,0.431c0.328-0.016,0.459-0.166,0.451-0.512
		C44.86,53.076,44.718,52.94,44.375,52.94z M46.997,53.105c-0.375,0-0.517,0.158-0.49,0.552c0.02,0.313,0.185,0.445,0.531,0.43
		c0.327-0.014,0.459-0.165,0.451-0.511C47.482,53.241,47.339,53.105,46.997,53.105z M49.598,53.105
		c-0.335,0.006-0.472,0.147-0.472,0.49c0,0.377,0.163,0.52,0.554,0.491c0.313-0.021,0.448-0.186,0.431-0.531
		C50.096,53.229,49.944,53.096,49.598,53.105z M52.268,53.105c-0.359-0.012-0.5,0.107-0.519,0.442
		c-0.019,0.347,0.115,0.516,0.424,0.539c0.386,0.029,0.557-0.12,0.559-0.485C52.735,53.257,52.602,53.115,52.268,53.105z
		 M54.896,53.105c-0.345-0.015-0.506,0.118-0.523,0.435c-0.025,0.392,0.119,0.55,0.498,0.547c0.339-0.003,0.478-0.139,0.483-0.478
		C55.359,53.264,55.225,53.117,54.896,53.105z M57.539,53.105c-0.393-0.024-0.55,0.119-0.545,0.496
		c0.002,0.341,0.139,0.482,0.476,0.485c0.345,0.006,0.494-0.127,0.505-0.457C57.988,53.282,57.857,53.124,57.539,53.105z
		 M59.615,53.596c0,0.228,0.066,0.36,0.2,0.431c0.214-0.274,0.428-0.55,0.632-0.831c-0.082-0.064-0.197-0.096-0.361-0.09
		C59.748,53.111,59.615,53.253,59.615,53.596z M39.091,52.94c-0.326,0.015-0.459,0.167-0.45,0.513
		c0.006,0.336,0.147,0.471,0.49,0.471c0.376,0,0.518-0.16,0.493-0.554C39.603,53.056,39.439,52.924,39.091,52.94z M54.904,47.862
		c-0.398-0.019-0.543,0.119-0.532,0.51c0.008,0.337,0.147,0.473,0.491,0.473c0.343,0,0.482-0.136,0.49-0.473
		C55.362,48.026,55.229,47.875,54.904,47.862z M57.512,47.862c-0.362-0.013-0.5,0.108-0.518,0.443
		c-0.02,0.346,0.112,0.517,0.422,0.539c0.384,0.028,0.557-0.121,0.558-0.486C57.979,48.013,57.846,47.871,57.512,47.862z
		 M60.147,47.862c-0.396-0.019-0.543,0.119-0.532,0.51c0.005,0.337,0.147,0.473,0.491,0.473c0.343,0,0.485-0.136,0.49-0.473
		C60.604,48.026,60.473,47.875,60.147,47.862z M62.811,48.845c0.299-0.027,0.433-0.203,0.408-0.553
		c-0.022-0.315-0.185-0.445-0.533-0.43c-0.328,0.013-0.458,0.164-0.451,0.51C62.244,48.731,62.422,48.877,62.811,48.845z
		 M39.113,47.698c-0.336,0.006-0.472,0.148-0.472,0.49c0,0.377,0.161,0.519,0.553,0.491c0.313-0.021,0.446-0.187,0.43-0.532
		C39.61,47.821,39.458,47.69,39.113,47.698z M41.781,47.698c-0.36-0.012-0.501,0.108-0.519,0.443
		c-0.018,0.348,0.113,0.516,0.424,0.538c0.385,0.029,0.557-0.12,0.557-0.484C42.25,47.85,42.115,47.708,41.781,47.698z
		 M44.335,47.698c-0.328,0.012-0.46,0.165-0.451,0.511c0.007,0.358,0.187,0.505,0.574,0.471c0.302-0.025,0.432-0.202,0.408-0.553
		C44.847,47.814,44.683,47.681,44.335,47.698z M46.997,47.862c-0.375,0-0.517,0.158-0.49,0.551c0.02,0.314,0.185,0.445,0.531,0.432
		c0.327-0.015,0.459-0.165,0.451-0.513C47.482,47.996,47.339,47.862,46.997,47.862z M49.674,47.862
		c-0.392-0.025-0.55,0.119-0.549,0.496c0.004,0.341,0.142,0.48,0.479,0.486c0.345,0.004,0.494-0.129,0.506-0.458
		C50.125,48.039,49.992,47.88,49.674,47.862z M52.22,47.862c-0.336,0.006-0.471,0.148-0.471,0.49c0,0.375,0.16,0.518,0.554,0.492
		c0.312-0.021,0.445-0.186,0.429-0.533C52.717,47.985,52.566,47.854,52.22,47.862z M39.151,50.318
		c-0.346-0.008-0.496,0.124-0.51,0.451c-0.018,0.396,0.121,0.542,0.512,0.531c0.336-0.008,0.472-0.147,0.472-0.491
		C39.625,50.467,39.489,50.327,39.151,50.318z M41.803,50.318c-0.349-0.019-0.518,0.114-0.54,0.423
		c-0.029,0.387,0.121,0.559,0.485,0.56c0.344,0.003,0.488-0.129,0.496-0.464C42.256,50.479,42.136,50.337,41.803,50.318z
		 M44.398,50.318c-0.349-0.008-0.498,0.124-0.513,0.451c-0.018,0.396,0.122,0.542,0.513,0.531c0.335-0.006,0.469-0.147,0.469-0.491
		C44.867,50.467,44.729,50.327,44.398,50.318z M47.052,50.482c-0.393-0.024-0.55,0.121-0.545,0.5
		c0.001,0.339,0.14,0.478,0.477,0.483c0.345,0.006,0.493-0.128,0.505-0.456C47.503,50.661,47.371,50.502,47.052,50.482z
		 M37.868,49.008c-0.346-0.019-0.515,0.114-0.538,0.422c-0.029,0.386,0.122,0.559,0.483,0.56c0.346,0.004,0.49-0.129,0.499-0.463
		C38.324,49.166,38.203,49.026,37.868,49.008z M40.437,49.008c-0.34,0.003-0.48,0.141-0.486,0.477
		c-0.006,0.346,0.128,0.494,0.458,0.505c0.4,0.017,0.539-0.118,0.526-0.517C40.925,49.138,40.781,49.005,40.437,49.008z
		 M43.043,49.008c-0.356,0.008-0.505,0.188-0.47,0.575c0.026,0.302,0.203,0.431,0.554,0.406c0.314-0.019,0.446-0.184,0.43-0.531
		C43.541,49.132,43.391,48.999,43.043,49.008z M45.667,49.008c-0.336,0.007-0.472,0.149-0.472,0.491c0,0.375,0.161,0.519,0.553,0.49
		c0.313-0.019,0.447-0.184,0.431-0.531C46.164,49.132,46.014,48.999,45.667,49.008z M48.309,49.171
		c-0.376,0-0.519,0.161-0.492,0.554c0.02,0.313,0.185,0.446,0.533,0.43c0.325-0.015,0.458-0.165,0.45-0.512
		C48.792,49.308,48.65,49.171,48.309,49.171z M50.867,49.171c-0.311,0.022-0.445,0.188-0.43,0.533
		c0.016,0.326,0.167,0.459,0.514,0.45c0.336-0.008,0.469-0.148,0.469-0.49C51.42,49.286,51.262,49.146,50.867,49.171z
		 M53.532,49.171c-0.338,0.009-0.471,0.149-0.471,0.493c0,0.374,0.158,0.517,0.554,0.49c0.311-0.02,0.444-0.184,0.429-0.532
		C54.028,49.296,53.878,49.162,53.532,49.171z M56.153,49.171c-0.336,0.009-0.473,0.149-0.473,0.493c0,0.374,0.162,0.517,0.554,0.49
		c0.312-0.02,0.446-0.184,0.43-0.532C56.649,49.296,56.5,49.162,56.153,49.171z M58.815,49.171
		c-0.347-0.009-0.498,0.126-0.512,0.451c-0.02,0.397,0.12,0.542,0.512,0.532c0.336-0.008,0.472-0.148,0.472-0.49
		C59.287,49.32,59.15,49.18,58.815,49.171z M61.423,50.154c0.34-0.002,0.479-0.139,0.483-0.479c0.007-0.344-0.126-0.491-0.457-0.505
		c-0.346-0.012-0.506,0.12-0.524,0.438C60.901,50,61.046,50.157,61.423,50.154z M39.167,58.184
		c-0.348-0.012-0.506,0.119-0.525,0.438c-0.024,0.392,0.12,0.549,0.499,0.546c0.34-0.003,0.478-0.141,0.485-0.479
		C39.63,58.345,39.494,58.196,39.167,58.184z M41.692,58.184c-0.314,0.022-0.447,0.188-0.43,0.533
		c0.014,0.326,0.164,0.458,0.512,0.45c0.336-0.01,0.469-0.15,0.469-0.49C42.244,58.301,42.085,58.157,41.692,58.184z M44.314,58.184
		c-0.315,0.022-0.445,0.188-0.43,0.533c0.015,0.326,0.164,0.458,0.51,0.45c0.335-0.01,0.473-0.15,0.473-0.49
		C44.867,58.301,44.708,58.157,44.314,58.184z M46.978,58.348c-0.359,0.009-0.508,0.188-0.471,0.572
		c0.025,0.304,0.204,0.435,0.551,0.411c0.314-0.021,0.447-0.185,0.431-0.533C47.475,58.472,47.325,58.339,46.978,58.348z
		 M49.612,58.348c-0.338,0.003-0.479,0.141-0.486,0.478c-0.004,0.345,0.13,0.492,0.459,0.506c0.399,0.016,0.539-0.122,0.526-0.519
		C50.099,58.479,49.957,58.345,49.612,58.348z M52.179,58.348c-0.314,0.021-0.446,0.184-0.43,0.533
		c0.014,0.324,0.166,0.459,0.512,0.45c0.336-0.009,0.471-0.149,0.471-0.491C52.732,58.462,52.573,58.322,52.179,58.348z
		 M37.862,59.494c-0.396-0.018-0.542,0.121-0.532,0.514c0.009,0.336,0.148,0.47,0.492,0.47c0.34,0,0.482-0.136,0.49-0.47
		C38.323,59.658,38.188,59.51,37.862,59.494z M40.485,59.494c-0.397-0.018-0.542,0.121-0.534,0.514
		c0.008,0.336,0.15,0.47,0.492,0.47c0.344,0,0.483-0.136,0.492-0.47C40.943,59.658,40.811,59.51,40.485,59.494z M43.104,59.494
		c-0.397-0.018-0.54,0.121-0.531,0.514c0.006,0.336,0.148,0.47,0.492,0.47c0.342,0,0.483-0.136,0.492-0.47
		C43.565,59.658,43.432,59.51,43.104,59.494z M45.667,59.494c-0.336,0.009-0.472,0.149-0.472,0.493c0,0.373,0.161,0.516,0.553,0.49
		c0.313-0.021,0.447-0.186,0.431-0.532C46.164,59.619,46.014,59.485,45.667,59.494z M48.309,59.657
		c-0.376,0-0.519,0.163-0.492,0.554c0.02,0.314,0.185,0.448,0.533,0.431c0.326-0.014,0.458-0.166,0.45-0.512
		C48.792,59.794,48.65,59.657,48.309,59.657z M50.951,59.657c-0.347-0.007-0.498,0.126-0.514,0.451
		c-0.017,0.398,0.122,0.542,0.514,0.533c0.336-0.008,0.469-0.147,0.469-0.491S51.287,59.667,50.951,59.657z M37.801,54.25
		c-0.336,0.011-0.471,0.148-0.471,0.494c0,0.375,0.16,0.517,0.552,0.49c0.315-0.021,0.448-0.185,0.431-0.532
		C38.298,54.377,38.148,54.243,37.801,54.25z M40.382,54.25c-0.312,0.021-0.447,0.186-0.431,0.534
		c0.015,0.326,0.166,0.458,0.512,0.45c0.336-0.008,0.472-0.149,0.472-0.49C40.935,54.367,40.775,54.225,40.382,54.25z M43.043,54.25
		c-0.336,0.011-0.47,0.148-0.47,0.494c0,0.375,0.162,0.517,0.554,0.49c0.314-0.021,0.446-0.185,0.43-0.532
		C43.541,54.377,43.391,54.243,43.043,54.25z M45.673,54.25c-0.361,0.007-0.509,0.183-0.478,0.567
		c0.024,0.306,0.198,0.437,0.549,0.417c0.315-0.019,0.448-0.18,0.435-0.527C46.167,54.38,46.017,54.246,45.673,54.25z
		 M48.288,54.415c-0.359,0.008-0.505,0.187-0.471,0.573c0.025,0.304,0.204,0.435,0.553,0.411c0.313-0.022,0.445-0.187,0.431-0.533
		C48.785,54.54,48.634,54.408,48.288,54.415z M50.908,54.415c-0.333,0.008-0.471,0.149-0.471,0.491c0,0.375,0.162,0.519,0.555,0.493
		c0.312-0.022,0.445-0.187,0.428-0.535C51.406,54.54,51.256,54.408,50.908,54.415z M53.544,54.415
		c-0.339,0.003-0.479,0.141-0.483,0.478c-0.007,0.345,0.128,0.492,0.456,0.507c0.399,0.015,0.538-0.122,0.526-0.52
		C54.034,54.545,53.89,54.412,53.544,54.415z M56.208,54.415c-0.348-0.014-0.507,0.12-0.528,0.438
		c-0.021,0.392,0.121,0.549,0.499,0.547c0.341-0.005,0.48-0.141,0.485-0.479C56.669,54.576,56.535,54.428,56.208,54.415z
		 M37.801,56.874c-0.358,0.007-0.503,0.186-0.471,0.573c0.026,0.301,0.204,0.432,0.552,0.408c0.315-0.021,0.448-0.186,0.431-0.532
		C38.298,56.997,38.148,56.864,37.801,56.874z M40.367,56.874c-0.303,0.022-0.435,0.196-0.416,0.543
		c0.021,0.32,0.18,0.452,0.525,0.438c0.33-0.013,0.463-0.16,0.458-0.505C40.929,56.99,40.751,56.841,40.367,56.874z M43.12,56.874
		c-0.392-0.024-0.55,0.119-0.547,0.498c0.003,0.34,0.142,0.479,0.479,0.483c0.344,0.006,0.492-0.127,0.504-0.457
		C43.57,57.052,43.437,56.894,43.12,56.874z M45.714,56.874c-0.359-0.012-0.5,0.109-0.519,0.443
		c-0.018,0.347,0.115,0.516,0.422,0.538c0.386,0.028,0.559-0.119,0.562-0.483C46.18,57.025,46.047,56.884,45.714,56.874z
		 M48.247,57.036c-0.314,0.021-0.446,0.186-0.43,0.533c0.014,0.326,0.164,0.459,0.512,0.451c0.335-0.008,0.472-0.149,0.472-0.493
		C48.8,57.153,48.639,57.011,48.247,57.036z M50.928,57.036c-0.372,0-0.516,0.162-0.491,0.555c0.023,0.312,0.187,0.445,0.533,0.43
		c0.327-0.015,0.46-0.167,0.45-0.513C51.414,57.173,51.273,57.036,50.928,57.036z M53.552,57.036c-0.376,0-0.518,0.162-0.491,0.555
		c0.021,0.312,0.184,0.445,0.531,0.43c0.327-0.015,0.458-0.167,0.451-0.513C54.036,57.173,53.895,57.036,53.552,57.036z
		 M39.113,55.562c-0.359,0.009-0.506,0.188-0.472,0.574c0.025,0.301,0.203,0.433,0.553,0.409c0.313-0.021,0.446-0.186,0.43-0.531
		C39.61,55.688,39.459,55.554,39.113,55.562z M41.754,55.562c-0.376,0-0.519,0.161-0.492,0.553c0.021,0.314,0.187,0.446,0.532,0.431
		c0.327-0.015,0.459-0.165,0.449-0.511C42.238,55.697,42.098,55.562,41.754,55.562z M44.416,55.562
		c-0.397-0.018-0.541,0.123-0.531,0.514c0.007,0.336,0.147,0.47,0.49,0.47s0.485-0.134,0.492-0.47
		C44.875,55.728,44.744,55.577,44.416,55.562z M47.019,55.725c-0.347-0.007-0.499,0.126-0.512,0.451
		c-0.019,0.397,0.12,0.543,0.512,0.533c0.336-0.007,0.47-0.148,0.47-0.492C47.489,55.874,47.354,55.735,47.019,55.725z
		 M49.62,55.725c-0.376,0-0.52,0.161-0.495,0.554c0.024,0.314,0.187,0.447,0.535,0.431c0.327-0.014,0.458-0.164,0.451-0.512
		C50.102,55.861,49.961,55.725,49.62,55.725z M52.239,55.725c-0.375,0-0.517,0.163-0.49,0.554c0.02,0.314,0.184,0.447,0.533,0.431
		c0.326-0.014,0.459-0.164,0.45-0.512C52.723,55.861,52.585,55.725,52.239,55.725z M54.842,55.725
		c-0.356,0.011-0.505,0.189-0.47,0.573c0.026,0.304,0.201,0.434,0.552,0.411c0.314-0.021,0.447-0.185,0.43-0.533
		C55.339,55.849,55.188,55.718,54.842,55.725z M57.519,37.374c-0.348-0.014-0.507,0.119-0.525,0.437
		c-0.024,0.392,0.12,0.55,0.497,0.547c0.339-0.004,0.479-0.142,0.483-0.478C57.98,37.534,57.847,37.389,57.519,37.374z
		 M60.152,37.374c-0.347-0.019-0.516,0.115-0.537,0.423c-0.029,0.385,0.121,0.557,0.483,0.561c0.345,0.003,0.489-0.132,0.498-0.464
		C60.607,37.532,60.488,37.392,60.152,37.374z M62.728,38.357c0.342,0,0.485-0.135,0.492-0.47c0.008-0.349-0.124-0.499-0.451-0.514
		c-0.397-0.018-0.543,0.123-0.533,0.514C62.244,38.223,62.386,38.357,62.728,38.357z M65.335,38.357
		c0.345,0.004,0.492-0.129,0.506-0.458c0.013-0.347-0.119-0.506-0.438-0.525c-0.392-0.022-0.548,0.119-0.547,0.498
		C64.859,38.213,64.999,38.351,65.335,38.357z M57.423,39.996c-0.314,0.02-0.447,0.185-0.429,0.532
		c0.014,0.326,0.162,0.458,0.511,0.449c0.336-0.008,0.469-0.148,0.469-0.49C57.974,40.112,57.816,39.969,57.423,39.996z
		 M60.16,39.996c-0.392-0.024-0.547,0.119-0.544,0.498c0.001,0.34,0.14,0.479,0.477,0.483c0.345,0.007,0.493-0.128,0.504-0.455
		C60.61,40.175,60.477,40.016,60.16,39.996z M62.748,40.978c0.335-0.008,0.472-0.148,0.472-0.49c0-0.375-0.161-0.519-0.553-0.491
		c-0.314,0.02-0.446,0.185-0.43,0.532C62.25,40.854,62.401,40.986,62.748,40.978z M56.153,38.686
		c-0.336,0.007-0.473,0.148-0.473,0.492c0,0.374,0.162,0.517,0.554,0.491c0.312-0.021,0.446-0.187,0.43-0.533
		C56.649,38.81,56.5,38.678,56.153,38.686z M58.795,38.686c-0.376,0-0.518,0.159-0.492,0.553c0.021,0.312,0.183,0.445,0.531,0.431
		c0.328-0.017,0.459-0.166,0.452-0.513C59.277,38.819,59.137,38.686,58.795,38.686z M61.457,39.669
		c0.327-0.017,0.46-0.166,0.45-0.513c-0.008-0.337-0.147-0.471-0.49-0.471c-0.376,0-0.52,0.159-0.491,0.553
		C60.945,39.551,61.111,39.684,61.457,39.669z M64.072,39.669c0.33-0.013,0.462-0.162,0.457-0.506
		c-0.005-0.361-0.18-0.51-0.566-0.478c-0.305,0.023-0.438,0.198-0.416,0.546C63.565,39.549,63.726,39.681,64.072,39.669z
		 M57.409,34.752c-0.306,0.026-0.437,0.198-0.415,0.546c0.018,0.316,0.178,0.45,0.525,0.437c0.328-0.011,0.461-0.161,0.455-0.504
		C57.97,34.871,57.794,34.721,57.409,34.752z M60.092,34.752c-0.359,0.006-0.508,0.182-0.477,0.567
		c0.023,0.304,0.197,0.438,0.544,0.416c0.317-0.019,0.451-0.178,0.437-0.524C60.585,34.882,60.437,34.748,60.092,34.752z
		 M62.789,35.735c0.312-0.021,0.445-0.185,0.431-0.531c-0.015-0.327-0.165-0.46-0.512-0.452c-0.358,0.009-0.504,0.187-0.472,0.574
		C62.264,35.626,62.44,35.76,62.789,35.735z M65.349,35.735c0.343,0,0.486-0.134,0.493-0.472c0.007-0.346-0.125-0.495-0.451-0.511
		c-0.398-0.019-0.543,0.12-0.534,0.512C64.865,35.601,65.008,35.735,65.349,35.735z M56.316,33.441
		c-0.357,0.008-0.506,0.188-0.471,0.574c0.027,0.301,0.205,0.432,0.553,0.409c0.312-0.021,0.447-0.184,0.43-0.532
		C56.815,33.566,56.662,33.436,56.316,33.441z M58.945,33.441c-0.359,0.006-0.509,0.181-0.477,0.567
		c0.023,0.307,0.197,0.438,0.546,0.416c0.315-0.018,0.449-0.179,0.436-0.525C59.439,33.57,59.29,33.437,58.945,33.441z
		 M61.621,34.424c0.326-0.015,0.459-0.165,0.451-0.513c-0.008-0.336-0.149-0.47-0.491-0.47c-0.375,0-0.52,0.161-0.492,0.552
		C61.109,34.309,61.273,34.44,61.621,34.424z M64.284,34.424c0.301-0.026,0.434-0.202,0.408-0.553
		c-0.02-0.312-0.185-0.444-0.53-0.43c-0.328,0.016-0.46,0.166-0.452,0.513C63.72,34.311,63.898,34.458,64.284,34.424z
		 M56.215,36.063c-0.397-0.017-0.542,0.12-0.535,0.512c0.008,0.338,0.151,0.472,0.493,0.472c0.341,0,0.485-0.136,0.491-0.472
		C56.674,36.229,56.54,36.077,56.215,36.063z M58.774,36.063c-0.358,0.008-0.505,0.187-0.471,0.573
		c0.027,0.302,0.203,0.433,0.554,0.41c0.312-0.021,0.444-0.184,0.43-0.533C59.272,36.187,59.121,36.055,58.774,36.063z
		 M61.457,37.047c0.327-0.016,0.46-0.166,0.45-0.513c-0.008-0.336-0.147-0.471-0.49-0.471c-0.376,0-0.52,0.16-0.491,0.554
		C60.945,36.93,61.111,37.062,61.457,37.047z M64.08,37.047c0.324-0.016,0.458-0.166,0.449-0.513
		c-0.006-0.336-0.147-0.471-0.491-0.471c-0.375,0-0.517,0.16-0.491,0.554C63.567,36.93,63.731,37.062,64.08,37.047z M39.072,45.075
		c-0.313,0.021-0.447,0.185-0.431,0.531c0.014,0.328,0.164,0.46,0.51,0.452c0.338-0.008,0.474-0.147,0.474-0.492
		C39.625,45.19,39.463,45.05,39.072,45.075z M41.81,45.075c-0.391-0.023-0.551,0.12-0.547,0.498c0.001,0.341,0.14,0.479,0.478,0.485
		c0.344,0.006,0.492-0.13,0.503-0.458C42.258,45.254,42.126,45.094,41.81,45.075z M44.355,45.075
		c-0.358,0.009-0.505,0.187-0.471,0.573c0.026,0.303,0.202,0.435,0.551,0.41c0.317-0.021,0.447-0.185,0.431-0.532
		C44.853,45.2,44.703,45.067,44.355,45.075z M47.019,45.238c-0.347-0.008-0.499,0.126-0.512,0.451
		c-0.019,0.397,0.12,0.542,0.512,0.531c0.336-0.007,0.47-0.147,0.47-0.49C47.489,45.389,47.354,45.247,47.019,45.238z
		 M49.598,45.238c-0.335,0.009-0.472,0.15-0.472,0.492c0,0.374,0.163,0.518,0.554,0.49c0.313-0.021,0.448-0.186,0.431-0.531
		C50.096,45.363,49.944,45.23,49.598,45.238z M52.227,45.238c-0.362,0.006-0.51,0.183-0.478,0.567
		c0.024,0.306,0.196,0.437,0.547,0.415c0.316-0.018,0.451-0.177,0.436-0.524C52.719,45.368,52.573,45.233,52.227,45.238z
		 M54.875,45.238c-0.345-0.005-0.493,0.13-0.503,0.458c-0.017,0.401,0.121,0.538,0.518,0.524c0.335-0.009,0.468-0.152,0.464-0.495
		C55.351,45.385,55.213,45.244,54.875,45.238z M57.469,45.238c-0.358,0.006-0.508,0.183-0.476,0.567
		c0.023,0.306,0.197,0.437,0.545,0.415c0.318-0.018,0.45-0.177,0.436-0.524C57.963,45.368,57.814,45.233,57.469,45.238z
		 M56.173,43.928c-0.376,0-0.517,0.16-0.493,0.555c0.021,0.312,0.188,0.445,0.535,0.429c0.325-0.015,0.459-0.164,0.449-0.512
		C56.659,44.062,56.514,43.928,56.173,43.928z M58.835,43.928c-0.396-0.019-0.542,0.122-0.531,0.513
		c0.008,0.335,0.15,0.471,0.492,0.471s0.482-0.136,0.492-0.471C59.294,44.095,59.163,43.943,58.835,43.928z M61.438,44.911
		c0.333-0.008,0.468-0.149,0.468-0.491c0-0.343-0.135-0.484-0.468-0.492c-0.348-0.008-0.499,0.125-0.513,0.452
		C60.907,44.775,61.047,44.92,61.438,44.911z M64.1,44.911c0.312-0.02,0.444-0.184,0.429-0.531c-0.013-0.327-0.165-0.46-0.511-0.452
		c-0.357,0.01-0.504,0.189-0.471,0.574C63.574,44.805,63.751,44.936,64.1,44.911z M37.822,46.386c-0.376,0-0.519,0.161-0.492,0.553
		c0.021,0.314,0.186,0.447,0.532,0.432c0.327-0.016,0.461-0.166,0.451-0.513C38.304,46.521,38.163,46.386,37.822,46.386z
		 M40.382,46.386c-0.312,0.021-0.447,0.186-0.431,0.533c0.015,0.327,0.166,0.458,0.512,0.451c0.336-0.008,0.472-0.15,0.472-0.492
		C40.935,46.503,40.775,46.359,40.382,46.386z M43.113,46.386c-0.349-0.018-0.516,0.114-0.54,0.425
		c-0.028,0.384,0.12,0.557,0.485,0.56c0.346,0.002,0.487-0.131,0.499-0.466C43.57,46.545,43.445,46.404,43.113,46.386z
		 M45.673,46.386c-0.361,0.007-0.509,0.182-0.478,0.566c0.024,0.305,0.198,0.438,0.549,0.418c0.315-0.022,0.448-0.179,0.435-0.528
		C46.167,46.516,46.017,46.38,45.673,46.386z M48.309,46.55c-0.376,0-0.519,0.16-0.492,0.552c0.02,0.314,0.185,0.448,0.533,0.432
		c0.325-0.016,0.458-0.166,0.45-0.512C48.792,46.686,48.65,46.55,48.309,46.55z M50.97,46.55c-0.396-0.019-0.542,0.122-0.533,0.513
		c0.009,0.336,0.149,0.471,0.491,0.471c0.345,0,0.486-0.135,0.492-0.471C51.43,46.715,51.297,46.565,50.97,46.55z M53.552,46.55
		c-0.376,0-0.518,0.161-0.491,0.552c0.021,0.314,0.184,0.448,0.531,0.432c0.327-0.016,0.458-0.166,0.451-0.512
		C54.036,46.686,53.895,46.55,53.552,46.55z M56.132,46.55c-0.326,0.016-0.458,0.165-0.452,0.513
		c0.008,0.357,0.188,0.505,0.574,0.471c0.304-0.027,0.434-0.204,0.41-0.553C56.644,46.667,56.479,46.534,56.132,46.55z
		 M58.789,46.55c-0.34,0.002-0.479,0.142-0.485,0.479c-0.006,0.344,0.128,0.492,0.458,0.505c0.4,0.015,0.539-0.12,0.526-0.519
		C59.274,46.679,59.135,46.547,58.789,46.55z M61.479,47.533c0.312-0.021,0.446-0.187,0.427-0.533
		c-0.014-0.326-0.164-0.458-0.512-0.45c-0.335,0.007-0.469,0.15-0.469,0.491C60.926,47.416,61.085,47.56,61.479,47.533z
		 M60.12,45.238c-0.344-0.005-0.493,0.13-0.505,0.458c-0.017,0.401,0.122,0.538,0.517,0.524c0.336-0.009,0.468-0.152,0.464-0.495
		C60.595,45.385,60.458,45.244,60.12,45.238z M62.789,46.221c0.312-0.021,0.445-0.186,0.431-0.531
		c-0.015-0.325-0.165-0.459-0.512-0.451c-0.358,0.01-0.504,0.188-0.472,0.574C62.264,46.113,62.44,46.247,62.789,46.221z
		 M56.208,41.306c-0.348-0.014-0.507,0.121-0.528,0.438c-0.021,0.39,0.121,0.548,0.499,0.545c0.341-0.002,0.48-0.14,0.485-0.477
		C56.669,41.467,56.535,41.32,56.208,41.306z M58.754,41.306c-0.328,0.015-0.459,0.165-0.451,0.514
		c0.008,0.356,0.186,0.505,0.572,0.47c0.302-0.026,0.434-0.203,0.411-0.553C59.266,41.422,59.101,41.29,58.754,41.306z
		 M61.438,42.289c0.333-0.008,0.468-0.148,0.468-0.492c0-0.343-0.135-0.482-0.468-0.491c-0.348-0.008-0.499,0.125-0.513,0.452
		C60.907,42.155,61.047,42.298,61.438,42.289z M64.079,42.289c0.325-0.014,0.458-0.165,0.45-0.513
		c-0.006-0.333-0.147-0.471-0.491-0.471c-0.375,0-0.517,0.161-0.491,0.555C63.567,42.173,63.731,42.305,64.079,42.289z
		 M65.292,42.624c-0.298,0.017-0.43,0.152-0.435,0.472c-0.003,0.235,0.066,0.374,0.212,0.445
		C65.149,43.239,65.221,42.932,65.292,42.624z M57.519,42.618c-0.348-0.015-0.507,0.118-0.525,0.438
		c-0.024,0.39,0.12,0.548,0.497,0.545c0.339-0.003,0.479-0.142,0.483-0.479C57.98,42.777,57.847,42.629,57.519,42.618z
		 M60.106,42.618c-0.374,0-0.517,0.159-0.491,0.553c0.02,0.313,0.184,0.445,0.532,0.431c0.326-0.017,0.458-0.167,0.449-0.513
		C60.589,42.753,60.449,42.618,60.106,42.618z M62.748,43.602c0.335-0.01,0.472-0.149,0.472-0.493c0-0.342-0.137-0.483-0.472-0.49
		c-0.347-0.008-0.498,0.123-0.512,0.449C62.219,43.465,62.359,43.609,62.748,43.602z M37.76,62.116
		c-0.314,0.021-0.447,0.186-0.43,0.532c0.015,0.327,0.166,0.459,0.511,0.451c0.336-0.008,0.472-0.147,0.472-0.49
		C38.312,62.233,38.151,62.09,37.76,62.116z M40.402,62.116c-0.325,0.017-0.458,0.164-0.451,0.514c0.008,0.335,0.15,0.47,0.492,0.47
		c0.376,0,0.516-0.159,0.492-0.553C40.915,62.233,40.75,62.1,40.402,62.116z M43.085,62.116c-0.347-0.008-0.498,0.124-0.512,0.452
		c-0.017,0.396,0.122,0.541,0.512,0.531c0.336-0.008,0.472-0.147,0.472-0.49C43.557,62.265,43.42,62.124,43.085,62.116z
		 M45.721,62.116c-0.348-0.013-0.506,0.12-0.526,0.438c-0.022,0.391,0.12,0.549,0.499,0.546c0.339-0.003,0.479-0.14,0.485-0.478
		C46.183,62.276,46.049,62.128,45.721,62.116z M39.131,60.806c-0.375,0-0.518,0.16-0.49,0.554c0.021,0.312,0.186,0.445,0.533,0.428
		c0.326-0.014,0.458-0.164,0.451-0.51C39.616,60.941,39.475,60.806,39.131,60.806z M41.774,60.806
		c-0.348-0.008-0.498,0.123-0.512,0.451c-0.018,0.396,0.121,0.54,0.512,0.53c0.336-0.006,0.469-0.146,0.469-0.489
		S42.111,60.812,41.774,60.806z M44.355,60.806c-0.336,0.007-0.471,0.149-0.471,0.492c0,0.373,0.161,0.518,0.551,0.489
		c0.317-0.019,0.447-0.184,0.431-0.53C44.853,60.929,44.703,60.797,44.355,60.806z M46.997,60.969c-0.375,0-0.517,0.161-0.49,0.554
		c0.02,0.314,0.185,0.445,0.531,0.432c0.327-0.017,0.459-0.167,0.451-0.514C47.482,61.104,47.339,60.969,46.997,60.969z
		 M49.598,60.969c-0.357,0.01-0.504,0.188-0.472,0.574c0.028,0.303,0.205,0.433,0.554,0.411c0.313-0.022,0.448-0.187,0.431-0.533
		C50.096,61.094,49.944,60.961,49.598,60.969z M39.151,63.427c-0.346-0.008-0.496,0.125-0.51,0.452
		c-0.018,0.395,0.121,0.54,0.512,0.531c0.336-0.008,0.472-0.148,0.472-0.491C39.625,63.577,39.489,63.436,39.151,63.427z
		 M41.754,63.427c-0.376,0-0.519,0.161-0.492,0.554c0.021,0.312,0.187,0.447,0.532,0.43c0.327-0.016,0.459-0.166,0.449-0.513
		C42.238,63.562,42.098,63.427,41.754,63.427z M55.019,24.265c-0.339,0.003-0.479,0.141-0.485,0.479
		c-0.005,0.343,0.13,0.493,0.458,0.504c0.4,0.016,0.539-0.122,0.526-0.519C55.506,24.395,55.365,24.264,55.019,24.265z
		 M57.661,24.265c-0.342-0.004-0.491,0.13-0.505,0.458c-0.015,0.399,0.122,0.539,0.52,0.526c0.334-0.01,0.467-0.151,0.464-0.499
		C58.137,24.411,58,24.271,57.661,24.265z M60.194,24.265c-0.303,0.025-0.437,0.199-0.415,0.547c0.018,0.317,0.18,0.451,0.524,0.437
		c0.33-0.011,0.464-0.161,0.458-0.504C60.756,24.382,60.581,24.234,60.194,24.265z M62.933,25.249
		c0.328-0.014,0.458-0.166,0.451-0.512c-0.008-0.336-0.15-0.472-0.491-0.472c-0.375,0-0.518,0.161-0.492,0.554
		C62.421,25.131,62.585,25.265,62.933,25.249z M39.273,24.101c-0.333,0.008-0.47,0.15-0.47,0.492c0,0.375,0.164,0.518,0.554,0.494
		c0.313-0.022,0.447-0.187,0.43-0.534C39.773,24.226,39.622,24.094,39.273,24.101z M41.896,24.101
		c-0.356,0.01-0.503,0.188-0.469,0.573c0.025,0.303,0.202,0.435,0.551,0.412c0.314-0.022,0.447-0.187,0.432-0.534
		C42.395,24.227,42.244,24.094,41.896,24.101z M44.594,24.101c-0.39-0.022-0.548,0.122-0.547,0.5c0.002,0.34,0.14,0.479,0.479,0.485
		c0.344,0.005,0.492-0.131,0.505-0.458C45.043,24.281,44.911,24.123,44.594,24.101z M47.181,24.265
		c-0.348-0.007-0.497,0.125-0.512,0.452c-0.018,0.396,0.12,0.542,0.512,0.532c0.336-0.007,0.47-0.149,0.47-0.491
		C47.651,24.415,47.517,24.273,47.181,24.265z M49.77,24.265c-0.362,0.006-0.511,0.182-0.478,0.567
		c0.024,0.305,0.196,0.438,0.544,0.417c0.318-0.019,0.45-0.18,0.438-0.526C50.262,24.395,50.114,24.261,49.77,24.265z
		 M52.384,24.265c-0.357,0.009-0.504,0.189-0.469,0.574c0.024,0.303,0.202,0.434,0.55,0.41c0.314-0.021,0.448-0.185,0.433-0.532
		C52.881,24.39,52.732,24.258,52.384,24.265z M37.944,25.412c-0.325,0.016-0.458,0.166-0.451,0.512
		c0.009,0.359,0.19,0.506,0.574,0.473c0.301-0.029,0.434-0.205,0.411-0.554C38.456,25.53,38.293,25.396,37.944,25.412z
		 M40.646,25.412c-0.396-0.018-0.538,0.122-0.529,0.512c0.006,0.337,0.148,0.473,0.491,0.473c0.342,0,0.484-0.135,0.491-0.473
		C41.107,25.578,40.976,25.428,40.646,25.412z M43.263,25.412c-0.346-0.013-0.506,0.121-0.526,0.438
		c-0.022,0.392,0.12,0.548,0.499,0.547c0.339-0.004,0.479-0.14,0.484-0.478C43.726,25.574,43.592,25.426,43.263,25.412z
		 M45.851,25.412c-0.376,0-0.521,0.162-0.491,0.552c0.02,0.315,0.184,0.448,0.531,0.433c0.327-0.016,0.46-0.167,0.451-0.512
		C46.334,25.547,46.194,25.412,45.851,25.412z M48.473,25.578c-0.375,0-0.519,0.159-0.492,0.552
		c0.021,0.312,0.187,0.446,0.533,0.431c0.328-0.015,0.458-0.166,0.45-0.514C48.956,25.711,48.815,25.578,48.473,25.578z
		 M51.052,25.578c-0.325,0.015-0.458,0.165-0.45,0.511c0.009,0.358,0.188,0.505,0.572,0.472c0.303-0.027,0.433-0.204,0.412-0.554
		C51.564,25.693,51.4,25.561,51.052,25.578z M53.764,25.578c-0.348-0.019-0.517,0.113-0.541,0.422
		c-0.029,0.385,0.121,0.557,0.485,0.561c0.346,0.003,0.489-0.13,0.499-0.464C54.217,25.735,54.097,25.594,53.764,25.578z
		 M56.384,25.578c-0.348-0.019-0.516,0.113-0.539,0.422c-0.028,0.385,0.122,0.557,0.484,0.561c0.348,0.003,0.488-0.13,0.499-0.464
		C56.839,25.735,56.719,25.594,56.384,25.578z M58.974,25.578c-0.345-0.006-0.495,0.128-0.505,0.457
		c-0.015,0.4,0.121,0.537,0.518,0.526c0.333-0.011,0.464-0.154,0.464-0.5C59.448,25.721,59.312,25.583,58.974,25.578z
		 M61.621,26.561c0.326-0.015,0.459-0.166,0.451-0.512c-0.008-0.337-0.149-0.471-0.491-0.471c-0.375,0-0.52,0.159-0.492,0.552
		C61.109,26.442,61.275,26.575,61.621,26.561z M39.336,21.48c-0.396-0.019-0.54,0.12-0.533,0.512
		c0.01,0.336,0.151,0.472,0.492,0.472c0.343,0,0.483-0.135,0.492-0.472C39.795,21.645,39.664,21.496,39.336,21.48z M41.856,21.48
		c-0.314,0.02-0.445,0.185-0.43,0.532c0.014,0.326,0.165,0.459,0.512,0.451c0.336-0.007,0.471-0.149,0.471-0.494
		C42.409,21.597,42.25,21.455,41.856,21.48z M44.56,21.48c-0.346-0.008-0.497,0.124-0.513,0.45
		c-0.017,0.398,0.122,0.543,0.513,0.534c0.335-0.007,0.471-0.149,0.471-0.494C45.031,21.629,44.896,21.488,44.56,21.48z
		 M47.101,21.643c-0.314,0.022-0.447,0.185-0.431,0.534c0.015,0.327,0.164,0.458,0.512,0.45c0.336-0.007,0.47-0.148,0.47-0.492
		C47.651,21.76,47.493,21.619,47.101,21.643z M49.811,21.643c-0.362-0.01-0.503,0.11-0.519,0.445
		c-0.019,0.348,0.113,0.515,0.422,0.539c0.384,0.028,0.559-0.12,0.56-0.484C50.276,21.796,50.145,21.653,49.811,21.643z
		 M52.43,21.643c-0.357-0.01-0.499,0.11-0.516,0.445c-0.02,0.348,0.113,0.515,0.423,0.539c0.384,0.028,0.555-0.12,0.56-0.484
		C52.898,21.796,52.765,21.653,52.43,21.643z M55.025,21.643c-0.375,0-0.517,0.161-0.492,0.554c0.023,0.313,0.187,0.447,0.535,0.43
		c0.325-0.015,0.458-0.164,0.449-0.512C55.51,21.779,55.368,21.643,55.025,21.643z M57.649,21.643c-0.376,0-0.519,0.161-0.493,0.554
		c0.023,0.313,0.185,0.447,0.533,0.43c0.328-0.015,0.46-0.164,0.451-0.512C58.131,21.779,57.991,21.643,57.649,21.643z
		 M60.282,21.643c-0.343-0.003-0.492,0.13-0.503,0.458c-0.017,0.401,0.12,0.539,0.518,0.526c0.335-0.01,0.467-0.153,0.465-0.499
		C60.759,21.789,60.622,21.648,60.282,21.643z M37.965,20.169c-0.359,0.008-0.506,0.186-0.473,0.574
		c0.027,0.3,0.205,0.433,0.555,0.409c0.313-0.021,0.445-0.186,0.431-0.531C38.462,20.293,38.312,20.162,37.965,20.169z
		 M40.626,20.169c-0.346-0.008-0.496,0.124-0.51,0.452c-0.019,0.395,0.12,0.541,0.51,0.531c0.338-0.009,0.472-0.149,0.472-0.491
		C41.099,20.318,40.964,20.177,40.626,20.169z M43.208,20.169c-0.337,0.008-0.471,0.148-0.471,0.493
		c0,0.373,0.161,0.517,0.553,0.491c0.313-0.021,0.447-0.186,0.43-0.531C43.705,20.293,43.557,20.162,43.208,20.169z M45.81,20.169
		c-0.325,0.015-0.458,0.166-0.45,0.511c0.007,0.36,0.186,0.506,0.571,0.472c0.303-0.026,0.434-0.204,0.412-0.554
		C46.322,20.286,46.156,20.153,45.81,20.169z M48.411,20.333c-0.313,0.021-0.447,0.185-0.43,0.533
		c0.015,0.327,0.166,0.458,0.512,0.451c0.335-0.008,0.471-0.15,0.471-0.493C48.963,20.449,48.803,20.307,48.411,20.333z
		 M51.018,20.333c-0.302,0.025-0.437,0.198-0.416,0.547c0.019,0.316,0.18,0.449,0.524,0.437c0.328-0.013,0.464-0.163,0.459-0.506
		C51.58,20.451,51.404,20.301,51.018,20.333z M53.655,20.333c-0.315,0.021-0.446,0.185-0.432,0.533
		c0.014,0.327,0.164,0.458,0.511,0.451c0.339-0.008,0.473-0.15,0.473-0.493C54.207,20.449,54.047,20.307,53.655,20.333z
		 M56.276,20.333c-0.314,0.021-0.446,0.185-0.431,0.533c0.016,0.327,0.166,0.458,0.512,0.451c0.337-0.008,0.471-0.15,0.471-0.493
		C56.828,20.449,56.669,20.307,56.276,20.333z M58.999,20.333c-0.396-0.017-0.54,0.12-0.53,0.513
		c0.006,0.336,0.147,0.471,0.491,0.471c0.342,0,0.483-0.137,0.491-0.471C59.458,20.498,59.327,20.348,58.999,20.333z M37.965,22.791
		c-0.359,0.008-0.506,0.188-0.473,0.574c0.027,0.3,0.205,0.434,0.555,0.41c0.313-0.021,0.445-0.185,0.431-0.533
		C38.462,22.916,38.312,22.782,37.965,22.791z M40.593,22.791c-0.359,0.005-0.509,0.182-0.476,0.567
		c0.022,0.305,0.197,0.438,0.545,0.416c0.318-0.018,0.451-0.179,0.437-0.525C41.086,22.919,40.939,22.786,40.593,22.791z
		 M43.249,22.791c-0.346-0.009-0.498,0.125-0.512,0.451c-0.017,0.396,0.122,0.54,0.512,0.533c0.336-0.007,0.471-0.149,0.471-0.493
		C43.72,22.939,43.585,22.799,43.249,22.791z M45.885,22.791c-0.347-0.012-0.506,0.119-0.524,0.438
		c-0.025,0.391,0.119,0.548,0.496,0.546c0.341-0.002,0.479-0.14,0.486-0.479C46.347,22.951,46.214,22.804,45.885,22.791z
		 M48.485,22.956c-0.344-0.007-0.492,0.127-0.505,0.457c-0.015,0.4,0.12,0.538,0.52,0.525c0.333-0.012,0.466-0.152,0.463-0.499
		C48.962,23.098,48.823,22.961,48.485,22.956z M51.092,22.956c-0.373,0-0.516,0.161-0.489,0.551c0.02,0.313,0.186,0.445,0.533,0.431
		c0.326-0.016,0.458-0.165,0.451-0.513C51.578,23.09,51.437,22.956,51.092,22.956z M53.655,22.956
		c-0.315,0.019-0.446,0.184-0.432,0.532c0.014,0.326,0.164,0.458,0.511,0.451c0.339-0.008,0.473-0.148,0.473-0.492
		C54.207,23.071,54.046,22.93,53.655,22.956z M56.371,22.956c-0.346-0.014-0.507,0.119-0.526,0.436
		c-0.022,0.39,0.122,0.55,0.498,0.547c0.34-0.003,0.479-0.14,0.484-0.479C56.833,23.117,56.7,22.968,56.371,22.956z M58.974,22.956
		c-0.345-0.007-0.495,0.127-0.505,0.457c-0.015,0.4,0.121,0.538,0.518,0.525c0.333-0.012,0.464-0.152,0.464-0.499
		C59.448,23.098,59.312,22.961,58.974,22.956z M61.621,23.938c0.326-0.016,0.459-0.165,0.451-0.513
		c-0.008-0.335-0.149-0.469-0.491-0.469c-0.375,0-0.52,0.161-0.492,0.551C61.109,23.821,61.275,23.953,61.621,23.938z
		 M61.607,31.803c0.336-0.01,0.466-0.153,0.465-0.498c-0.002-0.34-0.141-0.48-0.477-0.486c-0.347-0.005-0.495,0.129-0.506,0.458
		C61.073,31.677,61.209,31.816,61.607,31.803z M64.229,31.803c0.336-0.01,0.468-0.153,0.463-0.498
		c-0.001-0.34-0.137-0.48-0.475-0.486c-0.346-0.005-0.493,0.129-0.507,0.458C63.696,31.677,63.832,31.816,64.229,31.803z
		 M56.38,30.819c-0.397-0.017-0.543,0.122-0.535,0.512c0.007,0.336,0.147,0.472,0.49,0.472c0.344,0,0.485-0.136,0.492-0.472
		C56.837,30.985,56.705,30.836,56.38,30.819z M58.898,30.819c-0.315,0.021-0.445,0.185-0.43,0.533
		c0.015,0.328,0.164,0.459,0.51,0.451c0.336-0.008,0.471-0.148,0.471-0.491C59.45,30.937,59.292,30.794,58.898,30.819z
		 M57.647,32.13c-0.375,0-0.517,0.162-0.492,0.553c0.023,0.314,0.187,0.447,0.533,0.431c0.328-0.014,0.46-0.164,0.451-0.512
		C58.131,32.266,57.991,32.13,57.647,32.13z M60.209,32.13c-0.312,0.021-0.447,0.186-0.43,0.532
		c0.016,0.327,0.164,0.459,0.512,0.451c0.335-0.007,0.471-0.148,0.471-0.49C60.762,32.247,60.602,32.104,60.209,32.13z
		 M62.925,33.114c0.33-0.013,0.462-0.161,0.458-0.505c-0.006-0.36-0.182-0.508-0.567-0.479c-0.307,0.025-0.438,0.199-0.417,0.546
		C62.418,32.995,62.578,33.127,62.925,33.114z M56.365,28.199c-0.36-0.011-0.501,0.108-0.52,0.443
		c-0.017,0.347,0.113,0.518,0.424,0.54c0.383,0.028,0.557-0.121,0.558-0.485C56.833,28.352,56.699,28.208,56.365,28.199z
		 M58.999,28.199c-0.396-0.018-0.54,0.12-0.53,0.513c0.006,0.333,0.147,0.47,0.491,0.47c0.342,0,0.483-0.137,0.491-0.47
		C59.458,28.363,59.327,28.213,58.999,28.199z M61.621,29.182c0.326-0.015,0.459-0.165,0.451-0.513
		c-0.008-0.336-0.149-0.471-0.491-0.471c-0.375,0-0.52,0.16-0.492,0.553C61.109,29.065,61.273,29.197,61.621,29.182z M64.243,29.182
		c0.327-0.015,0.458-0.165,0.449-0.513c-0.008-0.336-0.148-0.471-0.489-0.471c-0.377,0-0.519,0.159-0.494,0.553
		C63.731,29.065,63.895,29.197,64.243,29.182z M57.669,26.887c-0.348-0.008-0.498,0.124-0.513,0.451
		c-0.019,0.396,0.122,0.541,0.513,0.533c0.336-0.009,0.471-0.149,0.471-0.493C58.14,27.036,58.005,26.896,57.669,26.887z
		 M60.256,26.887c-0.359,0.007-0.509,0.182-0.477,0.567c0.024,0.305,0.198,0.438,0.544,0.417c0.32-0.019,0.45-0.18,0.438-0.526
		C60.749,27.016,60.602,26.883,60.256,26.887z M62.918,27.871c0.336-0.011,0.468-0.153,0.465-0.499
		c-0.004-0.339-0.14-0.479-0.478-0.485c-0.346-0.004-0.493,0.128-0.506,0.458C62.386,27.745,62.521,27.884,62.918,27.871z
		 M57.628,29.509c-0.359,0.008-0.506,0.188-0.472,0.574c0.026,0.301,0.205,0.434,0.552,0.41c0.314-0.021,0.449-0.187,0.432-0.533
		C58.125,29.633,57.974,29.5,57.628,29.509z M60.264,29.509c-0.34,0.003-0.479,0.139-0.485,0.478
		c-0.005,0.345,0.127,0.494,0.458,0.506c0.397,0.014,0.536-0.121,0.524-0.52C60.752,29.638,60.607,29.508,60.264,29.509z
		 M62.857,30.493c0.399,0.014,0.538-0.121,0.526-0.52c-0.009-0.336-0.154-0.466-0.499-0.464c-0.34,0.003-0.48,0.139-0.484,0.478
		C62.394,30.332,62.53,30.48,62.857,30.493z M39.316,10.994c-0.346-0.008-0.498,0.124-0.513,0.451
		c-0.018,0.397,0.123,0.54,0.513,0.532c0.336-0.009,0.471-0.149,0.471-0.491C39.787,11.143,39.653,11.002,39.316,10.994z
		 M41.856,10.994c-0.314,0.02-0.445,0.184-0.43,0.532c0.014,0.326,0.165,0.458,0.512,0.451c0.336-0.009,0.471-0.149,0.471-0.491
		C42.409,11.11,42.25,10.966,41.856,10.994z M44.52,10.994c-0.361,0.008-0.505,0.187-0.473,0.573
		c0.027,0.302,0.206,0.434,0.554,0.41c0.314-0.021,0.445-0.186,0.43-0.532C45.018,11.118,44.867,10.986,44.52,10.994z
		 M47.161,11.159c-0.375,0-0.518,0.158-0.492,0.552c0.021,0.312,0.185,0.445,0.533,0.43c0.325-0.015,0.458-0.165,0.449-0.512
		C47.645,11.292,47.504,11.159,47.161,11.159z M49.723,11.159c-0.315,0.019-0.447,0.183-0.43,0.532
		c0.013,0.325,0.164,0.459,0.51,0.45c0.337-0.008,0.472-0.148,0.472-0.491C50.275,11.273,50.115,11.131,49.723,11.159z
		 M37.965,12.303c-0.335,0.009-0.473,0.151-0.473,0.494c0,0.374,0.163,0.516,0.555,0.491c0.313-0.02,0.445-0.184,0.431-0.532
		C38.462,12.429,38.312,12.296,37.965,12.303z M40.643,12.303c-0.35-0.011-0.509,0.122-0.526,0.438
		c-0.026,0.392,0.118,0.55,0.496,0.546c0.342-0.001,0.48-0.14,0.486-0.478C41.104,12.465,40.97,12.316,40.643,12.303z
		 M43.229,12.303c-0.375,0-0.519,0.161-0.492,0.556c0.021,0.312,0.186,0.444,0.533,0.429c0.325-0.014,0.459-0.164,0.45-0.511
		C43.712,12.439,43.573,12.303,43.229,12.303z M45.865,12.303c-0.345-0.003-0.492,0.13-0.504,0.458
		c-0.017,0.401,0.119,0.539,0.519,0.527c0.332-0.009,0.465-0.152,0.464-0.498C46.34,12.45,46.202,12.31,45.865,12.303z
		 M48.52,12.467c-0.348-0.017-0.516,0.116-0.539,0.424c-0.03,0.386,0.12,0.558,0.485,0.56c0.347,0.004,0.488-0.128,0.498-0.464
		C48.975,12.627,48.854,12.485,48.52,12.467z M51.074,12.467c-0.335,0.01-0.471,0.15-0.471,0.494c0,0.375,0.16,0.517,0.552,0.49
		c0.315-0.021,0.448-0.186,0.432-0.531C51.571,12.594,51.42,12.46,51.074,12.467z M53.715,12.467c-0.376,0-0.518,0.162-0.492,0.555
		c0.021,0.313,0.187,0.446,0.533,0.429c0.328-0.014,0.458-0.164,0.451-0.512C54.199,12.604,54.059,12.467,53.715,12.467z
		 M39.295,8.372c-0.373,0-0.517,0.16-0.492,0.553c0.024,0.314,0.187,0.446,0.533,0.431c0.328-0.017,0.459-0.166,0.451-0.513
		C39.778,8.506,39.638,8.372,39.295,8.372z M41.904,8.372c-0.362,0.005-0.509,0.182-0.478,0.567
		c0.024,0.304,0.198,0.437,0.547,0.417c0.316-0.021,0.449-0.179,0.435-0.527C42.396,8.5,42.25,8.366,41.904,8.372z M44.526,8.372
		c-0.36,0.005-0.51,0.182-0.479,0.567c0.027,0.304,0.198,0.437,0.547,0.417c0.317-0.021,0.449-0.179,0.437-0.527
		C45.018,8.5,44.87,8.366,44.526,8.372z M37.924,7.062c-0.314,0.02-0.447,0.184-0.431,0.531c0.017,0.327,0.167,0.459,0.512,0.451
		c0.337-0.007,0.474-0.148,0.474-0.491C38.478,7.178,38.315,7.035,37.924,7.062z M40.252,7.164
		c-0.104,0.086-0.151,0.229-0.135,0.451c0.021,0.312,0.183,0.446,0.529,0.429c0.33-0.015,0.461-0.166,0.453-0.512
		c-0.001-0.114-0.027-0.198-0.063-0.268C40.775,7.227,40.515,7.195,40.252,7.164z M37.985,9.683c-0.375,0-0.519,0.161-0.492,0.553
		c0.023,0.314,0.188,0.446,0.533,0.43c0.328-0.016,0.459-0.166,0.452-0.511C38.468,9.818,38.327,9.683,37.985,9.683z M40.643,9.683
		c-0.35-0.014-0.509,0.12-0.526,0.436c-0.026,0.392,0.118,0.55,0.496,0.547c0.342-0.002,0.48-0.14,0.486-0.478
		C41.104,9.844,40.97,9.695,40.643,9.683z M43.229,9.683c-0.375,0-0.519,0.161-0.492,0.553c0.021,0.314,0.186,0.446,0.533,0.43
		c0.325-0.014,0.459-0.166,0.45-0.511C43.712,9.818,43.573,9.683,43.229,9.683z M45.905,9.683c-0.39-0.023-0.549,0.12-0.544,0.498
		c0.001,0.341,0.139,0.479,0.475,0.485c0.347,0.007,0.494-0.13,0.508-0.458C46.355,9.86,46.223,9.704,45.905,9.683z M48.508,9.846
		C48.16,9.833,48,9.966,47.98,10.283c-0.025,0.392,0.12,0.55,0.5,0.547c0.34-0.001,0.479-0.141,0.483-0.478
		C48.969,10.007,48.836,9.858,48.508,9.846z M51.092,10.83c0.099,0,0.177-0.014,0.245-0.038c-0.241-0.139-0.483-0.276-0.729-0.407
		C50.622,10.699,50.76,10.83,51.092,10.83z M48.512,17.711c-0.396-0.017-0.541,0.121-0.531,0.513c0.007,0.335,0.149,0.47,0.492,0.47
		c0.342,0,0.483-0.135,0.491-0.471C48.972,17.877,48.838,17.727,48.512,17.711z M51.074,17.711
		c-0.335,0.006-0.471,0.149-0.471,0.493c0,0.373,0.16,0.518,0.552,0.49c0.315-0.021,0.448-0.185,0.432-0.531
		C51.571,17.835,51.42,17.703,51.074,17.711z M53.708,17.711c-0.341,0.001-0.481,0.142-0.485,0.478
		c-0.006,0.344,0.129,0.492,0.457,0.504c0.4,0.016,0.539-0.12,0.527-0.518C54.197,17.842,54.055,17.708,53.708,17.711z
		 M56.365,17.711c-0.36-0.01-0.501,0.109-0.52,0.443c-0.017,0.348,0.113,0.517,0.424,0.539c0.383,0.029,0.557-0.118,0.558-0.485
		C56.833,17.865,56.699,17.722,56.365,17.711z M58.884,17.711c-0.307,0.025-0.437,0.199-0.416,0.548
		c0.017,0.316,0.177,0.448,0.526,0.435c0.326-0.012,0.462-0.161,0.455-0.504C59.445,17.83,59.269,17.681,58.884,17.711z
		 M37.924,17.547c-0.314,0.021-0.447,0.185-0.431,0.534c0.017,0.325,0.167,0.458,0.512,0.449c0.337-0.007,0.474-0.149,0.474-0.492
		C38.478,17.663,38.315,17.521,37.924,17.547z M40.593,17.547c-0.359,0.005-0.509,0.183-0.476,0.568
		c0.022,0.305,0.197,0.437,0.545,0.415c0.318-0.018,0.451-0.179,0.437-0.525C41.086,17.676,40.939,17.542,40.593,17.547z
		 M43.208,17.547c-0.358,0.009-0.505,0.188-0.471,0.574c0.025,0.302,0.204,0.433,0.553,0.409c0.313-0.02,0.447-0.184,0.43-0.532
		C43.705,17.671,43.557,17.54,43.208,17.547z M45.851,17.547c-0.376,0-0.521,0.161-0.491,0.554c0.02,0.312,0.184,0.445,0.531,0.429
		c0.327-0.014,0.46-0.165,0.451-0.513C46.334,17.683,46.194,17.547,45.851,17.547z M39.336,18.858
		c-0.396-0.017-0.54,0.122-0.533,0.511c0.01,0.337,0.151,0.473,0.492,0.473c0.343,0,0.483-0.137,0.492-0.473
		C39.795,19.022,39.664,18.873,39.336,18.858z M41.918,18.858c-0.376,0-0.519,0.16-0.492,0.553c0.022,0.314,0.185,0.446,0.531,0.431
		c0.328-0.016,0.46-0.166,0.451-0.513C42.402,18.994,42.261,18.858,41.918,18.858z M44.58,18.858
		c-0.395-0.017-0.54,0.122-0.533,0.511c0.008,0.337,0.15,0.473,0.492,0.473c0.344,0,0.484-0.137,0.492-0.473
		C45.04,19.022,44.908,18.873,44.58,18.858z M47.216,19.021c-0.39-0.022-0.55,0.123-0.547,0.499c0.002,0.34,0.141,0.479,0.479,0.485
		c0.343,0.005,0.49-0.126,0.503-0.457C47.666,19.2,47.533,19.042,47.216,19.021z M49.723,19.021
		c-0.315,0.022-0.447,0.187-0.43,0.534c0.013,0.327,0.164,0.458,0.51,0.451c0.335-0.007,0.472-0.148,0.472-0.491
		C50.275,19.14,50.115,18.996,49.723,19.021z M52.458,19.021c-0.39-0.022-0.546,0.123-0.544,0.499
		c0.001,0.34,0.138,0.479,0.475,0.485c0.346,0.005,0.493-0.126,0.508-0.457C52.91,19.2,52.776,19.042,52.458,19.021z M55.006,19.021
		c-0.337,0.008-0.472,0.151-0.472,0.493c0,0.375,0.162,0.517,0.554,0.491c0.312-0.021,0.446-0.184,0.43-0.533
		C55.503,19.146,55.351,19.014,55.006,19.021z M57.649,19.021c-0.376,0-0.519,0.161-0.493,0.554c0.023,0.314,0.185,0.445,0.533,0.43
		c0.328-0.013,0.46-0.165,0.451-0.512C58.131,19.157,57.991,19.021,57.649,19.021z M38.026,14.926
		c-0.396-0.019-0.542,0.122-0.533,0.512c0.009,0.336,0.152,0.472,0.492,0.472c0.343,0,0.483-0.137,0.493-0.473
		C38.485,15.09,38.353,14.94,38.026,14.926z M40.621,14.926c-0.345-0.006-0.492,0.128-0.504,0.457c-0.017,0.4,0.12,0.54,0.517,0.527
		c0.335-0.012,0.466-0.153,0.465-0.499C41.096,15.071,40.958,14.932,40.621,14.926z M43.257,14.926
		c-0.361-0.012-0.502,0.109-0.521,0.444c-0.019,0.348,0.116,0.517,0.424,0.54c0.384,0.027,0.557-0.122,0.559-0.486
		C43.723,15.078,43.589,14.936,43.257,14.926z M45.865,14.926c-0.345-0.006-0.492,0.128-0.504,0.457
		c-0.017,0.4,0.119,0.54,0.519,0.527c0.332-0.012,0.465-0.153,0.464-0.499C46.34,15.071,46.202,14.932,45.865,14.926z
		 M48.452,15.089c-0.336,0.008-0.471,0.149-0.471,0.492c0,0.376,0.161,0.518,0.553,0.493c0.313-0.022,0.445-0.187,0.43-0.534
		C48.949,15.213,48.799,15.082,48.452,15.089z M51.074,15.089c-0.358,0.008-0.505,0.188-0.471,0.574
		c0.026,0.302,0.202,0.432,0.552,0.411c0.315-0.022,0.448-0.187,0.432-0.534C51.571,15.213,51.42,15.082,51.074,15.089z
		 M53.655,15.089c-0.315,0.022-0.446,0.186-0.432,0.532c0.014,0.328,0.164,0.459,0.511,0.453c0.339-0.009,0.473-0.151,0.473-0.493
		C54.207,15.206,54.046,15.065,53.655,15.089z M56.276,15.089c-0.314,0.022-0.446,0.186-0.431,0.532
		c0.016,0.328,0.166,0.459,0.512,0.453c0.337-0.009,0.471-0.151,0.471-0.493C56.828,15.206,56.669,15.065,56.276,15.089z
		 M39.29,13.614c-0.339,0.003-0.479,0.142-0.486,0.478c-0.005,0.346,0.132,0.493,0.459,0.506c0.4,0.016,0.537-0.121,0.524-0.519
		C39.777,13.746,39.636,13.613,39.29,13.614z M41.904,13.614c-0.362,0.007-0.509,0.183-0.478,0.568
		c0.024,0.305,0.198,0.438,0.547,0.416c0.316-0.019,0.449-0.178,0.435-0.525C42.396,13.745,42.25,13.609,41.904,13.614z
		 M44.574,13.614c-0.346-0.011-0.507,0.122-0.527,0.439c-0.024,0.39,0.122,0.548,0.501,0.544c0.339-0.004,0.478-0.14,0.483-0.477
		C45.037,13.776,44.903,13.627,44.574,13.614z M47.202,13.777c-0.397-0.017-0.542,0.124-0.533,0.515
		c0.007,0.334,0.148,0.47,0.492,0.47s0.483-0.136,0.49-0.47C47.66,13.945,47.527,13.795,47.202,13.777z M49.762,13.777
		c-0.335,0.01-0.469,0.151-0.469,0.494c0,0.374,0.16,0.516,0.553,0.491c0.313-0.021,0.445-0.185,0.43-0.533
		C50.258,13.903,50.108,13.771,49.762,13.777z M52.397,13.777c-0.34,0.004-0.479,0.143-0.482,0.478
		c-0.007,0.347,0.126,0.495,0.455,0.507c0.401,0.016,0.539-0.122,0.527-0.518C52.885,13.909,52.743,13.776,52.397,13.777z
		 M55.006,13.777c-0.337,0.01-0.472,0.151-0.472,0.494c0,0.374,0.162,0.516,0.554,0.491c0.312-0.021,0.446-0.185,0.43-0.533
		C55.503,13.903,55.351,13.771,55.006,13.777z M39.276,16.238c-0.336,0.009-0.473,0.148-0.473,0.491
		c0,0.375,0.161,0.517,0.554,0.492c0.313-0.021,0.447-0.186,0.43-0.534C39.773,16.361,39.622,16.229,39.276,16.238z M41.958,16.238
		c-0.396-0.019-0.54,0.12-0.531,0.512c0.007,0.335,0.148,0.471,0.492,0.471c0.342,0,0.483-0.136,0.491-0.471
		C42.418,16.402,42.286,16.252,41.958,16.238z M44.52,16.238c-0.361,0.009-0.505,0.186-0.473,0.574
		c0.027,0.301,0.206,0.432,0.554,0.408c0.314-0.021,0.445-0.186,0.43-0.534C45.018,16.361,44.867,16.229,44.52,16.238z
		 M47.12,16.402c-0.325,0.014-0.458,0.163-0.451,0.51c0.007,0.336,0.148,0.472,0.492,0.472c0.375,0,0.519-0.16,0.49-0.554
		C47.63,16.518,47.468,16.385,47.12,16.402z M49.824,16.402c-0.397-0.02-0.542,0.12-0.531,0.512c0.007,0.334,0.147,0.47,0.491,0.47
		c0.342,0,0.483-0.135,0.492-0.472C50.284,16.564,50.149,16.416,49.824,16.402z M52.444,16.402c-0.397-0.02-0.541,0.12-0.53,0.512
		c0.006,0.334,0.147,0.47,0.491,0.47c0.342,0,0.483-0.135,0.492-0.472C52.904,16.564,52.772,16.416,52.444,16.402z M55.027,16.402
		c-0.376,0-0.519,0.158-0.494,0.551c0.023,0.314,0.187,0.447,0.535,0.431c0.325-0.015,0.458-0.166,0.449-0.511
		C55.51,16.536,55.368,16.402,55.027,16.402z M57.587,16.402c-0.314,0.02-0.446,0.184-0.431,0.531
		c0.016,0.327,0.165,0.459,0.513,0.451c0.336-0.008,0.471-0.149,0.471-0.491C58.14,16.518,57.98,16.374,57.587,16.402z
		 M68.745,36.065c0,17.529-14.261,31.791-31.791,31.791v0.048c-17.584,0-31.84-14.255-31.84-31.839
		c0-17.585,14.255-31.84,31.84-31.84v0.048C54.484,4.273,68.745,18.535,68.745,36.065z M36.929,31.481
		c-1.508-2.341-4.134-3.893-7.126-3.893c-4.68,0-8.475,3.795-8.475,8.477s3.795,8.477,8.475,8.477c2.999,0,5.622-1.568,7.126-3.918
		V31.481z M65.3,29.543c0.072,0.314,0.141,0.626,0.204,0.943C65.441,30.169,65.373,29.857,65.3,29.543z M64.09,25.597
		c0.119,0.307,0.232,0.614,0.339,0.924C64.322,26.21,64.209,25.902,64.09,25.597z M61.42,20.355c0.181,0.28,0.358,0.561,0.53,0.848
		C61.779,20.917,61.601,20.635,61.42,20.355z M46.774,8.682c0.292,0.106,0.581,0.22,0.869,0.333
		C47.354,8.901,47.066,8.787,46.774,8.682z M42.745,7.553c0.286,0.058,0.567,0.125,0.848,0.193
		C43.312,7.679,43.031,7.61,42.745,7.553z M44.838,64.062c-0.277,0.079-0.554,0.155-0.833,0.227
		C44.285,64.219,44.562,64.142,44.838,64.062z M53.821,59.746c-0.245,0.176-0.49,0.352-0.742,0.52
		C53.331,60.098,53.577,59.922,53.821,59.746z M60.952,52.487c-0.014-0.053-0.025-0.11-0.026-0.181
		c-0.01-0.373,0.127-0.512,0.48-0.51c1.061-1.641,1.959-3.396,2.676-5.241c-0.117,0.301-0.233,0.604-0.36,0.899
		c-0.108-0.069-0.166-0.187-0.174-0.371c-0.015-0.351,0.116-0.513,0.43-0.534c0.041-0.004,0.07,0.005,0.105,0.005
		c0.698-1.799,1.223-3.684,1.552-5.635c-0.062,0.03-0.133,0.053-0.224,0.058c-0.349,0.024-0.526-0.106-0.554-0.409
		c-0.033-0.386,0.114-0.564,0.472-0.572c0.213-0.005,0.345,0.05,0.424,0.163c-0.036,0.254-0.077,0.508-0.118,0.76
		c0.265-1.58,0.412-3.2,0.412-4.854c0-1.038-0.058-2.064-0.164-3.076c-0.068,0.068-0.159,0.113-0.288,0.124
		c-0.386,0.035-0.565-0.113-0.574-0.471c-0.007-0.346,0.124-0.497,0.452-0.512c0.13-0.006,0.226,0.017,0.307,0.055
		c0.014,0.104,0.025,0.209,0.041,0.312c-0.085-0.677-0.186-1.347-0.316-2.009c-0.333,0.002-0.483-0.14-0.483-0.488
		c0-0.265,0.084-0.407,0.279-0.462c-0.236-1.024-0.525-2.029-0.867-3.01c-0.065,0.021-0.142,0.034-0.238,0.032
		C63.83,26.557,63.683,26.385,63.71,26c0.02-0.253,0.144-0.382,0.376-0.412c-0.396-1.023-0.847-2.017-1.351-2.98
		c-0.225-0.041-0.328-0.176-0.335-0.452c-0.001-0.057,0.007-0.102,0.014-0.148c0.106,0.192,0.209,0.389,0.312,0.585
		c-0.247-0.471-0.503-0.936-0.776-1.39c-0.079,0.075-0.196,0.113-0.369,0.113c-0.343,0-0.484-0.137-0.492-0.471
		c-0.007-0.298,0.098-0.444,0.331-0.491c-0.219-0.341-0.445-0.677-0.679-1.008c0.01,0.051,0.02,0.103,0.02,0.167
		c0,0.343-0.136,0.484-0.471,0.491c-0.392,0.009-0.532-0.135-0.512-0.532c0.016-0.328,0.164-0.459,0.512-0.452
		c0.112,0.003,0.194,0.027,0.263,0.062c0.025,0.035,0.049,0.071,0.075,0.105c-2.098-2.935-4.726-5.465-7.745-7.45
		c-0.032,0.298-0.196,0.429-0.547,0.402c-0.31-0.023-0.443-0.192-0.423-0.539c0.009-0.19,0.066-0.306,0.175-0.373
		c0.011,0.007,0.022,0.016,0.035,0.022c-1.416-0.868-2.914-1.614-4.474-2.233c0,0.001,0,0.003,0,0.003
		c0.004,0.346-0.128,0.487-0.463,0.496c-0.399,0.014-0.534-0.125-0.519-0.525c0.005-0.14,0.042-0.238,0.102-0.312
		c-1-0.36-2.028-0.661-3.077-0.912c-0.053,0.188-0.191,0.27-0.445,0.276c-0.375,0.008-0.513-0.13-0.509-0.494
		c-1.87-0.378-3.805-0.579-5.786-0.579v1.457c0.15,0.071,0.218,0.213,0.211,0.456c-0.004,0.219-0.073,0.346-0.211,0.412v1.758
		c0.133,0.066,0.204,0.188,0.211,0.396c0.01,0.248-0.058,0.395-0.211,0.469v1.754c0.138,0.067,0.207,0.192,0.211,0.412
		c0.007,0.243-0.061,0.385-0.211,0.456v1.755c0.138,0.066,0.207,0.193,0.211,0.413c0.007,0.242-0.061,0.383-0.211,0.455v1.753
		c0.138,0.068,0.207,0.194,0.211,0.413c0.007,0.243-0.061,0.384-0.211,0.455v1.752c0.14,0.068,0.211,0.203,0.211,0.434
		c0,0.232-0.068,0.366-0.211,0.435v1.757c0.133,0.066,0.204,0.189,0.211,0.397c0.01,0.249-0.058,0.396-0.211,0.47v1.752
		c0.138,0.068,0.207,0.193,0.211,0.412c0.001,0.019-0.004,0.032-0.004,0.05h0.641h0.927h0.08c-0.001-0.033-0.008-0.059-0.005-0.097
		c0.024-0.309,0.192-0.439,0.54-0.423c0.335,0.018,0.457,0.16,0.444,0.519v0.001h1.644c-0.001-0.01-0.004-0.016-0.004-0.027
		c0-0.345,0.136-0.485,0.469-0.493c0.348-0.008,0.499,0.125,0.513,0.451c0.001,0.027-0.006,0.045-0.006,0.069h1.646
		c0-0.002-0.002-0.004-0.002-0.007c-0.007-0.347,0.126-0.499,0.451-0.513c0.349-0.014,0.514,0.117,0.533,0.431
		c0.001,0.034-0.005,0.057-0.006,0.089h1.656c0.036-0.223,0.166-0.338,0.419-0.356c0.337-0.021,0.493,0.09,0.534,0.356h1.675
		c0.037-0.242,0.175-0.354,0.468-0.356c0.301-0.003,0.441,0.107,0.48,0.356h1.666c0.036-0.219,0.165-0.337,0.406-0.356
		c0.334-0.028,0.501,0.092,0.547,0.356h1.672c0.036-0.231,0.167-0.343,0.437-0.356c0.345-0.016,0.51,0.117,0.532,0.43
		c0.027,0.393-0.116,0.554-0.492,0.554c-0.221,0-0.35-0.065-0.422-0.195v2.017c0.076-0.135,0.216-0.195,0.465-0.184
		c0.325,0.015,0.458,0.165,0.449,0.512c-0.007,0.336-0.15,0.472-0.492,0.472c-0.221,0-0.35-0.065-0.422-0.195v2.027
		c0.071-0.125,0.193-0.189,0.403-0.194c0.345-0.008,0.498,0.125,0.512,0.451c0.017,0.348-0.117,0.513-0.43,0.532
		c-0.256,0.018-0.406-0.047-0.485-0.191v1.873c0.061-0.024,0.133-0.039,0.219-0.043c0.346-0.017,0.508,0.118,0.531,0.43
		c0.024,0.349-0.109,0.527-0.41,0.553c-0.146,0.012-0.251-0.009-0.34-0.049v1.732c0.076-0.029,0.166-0.048,0.287-0.044
		c0.335,0.01,0.468,0.152,0.464,0.498c-0.003,0.364-0.174,0.514-0.56,0.485c-0.074-0.006-0.136-0.021-0.191-0.043v1.73
		c0.073-0.031,0.16-0.051,0.272-0.049c0.338,0.005,0.475,0.146,0.478,0.483c0.004,0.347-0.129,0.488-0.464,0.498
		c-0.121,0.005-0.21-0.012-0.287-0.038v1.729c0.082-0.036,0.178-0.059,0.307-0.051c0.335,0.018,0.456,0.158,0.444,0.518
		c-0.01,0.334-0.153,0.466-0.498,0.466c-0.102-0.001-0.184-0.019-0.253-0.047v1.331h-0.868c-0.044,0.011-0.086,0.022-0.143,0.025
		c-0.098,0.005-0.177-0.006-0.248-0.025h-2.211c-0.057,0.016-0.121,0.024-0.197,0.025c-0.082,0-0.147-0.01-0.208-0.025h-2.188
		c-0.072,0.02-0.158,0.029-0.267,0.025c-0.059-0.003-0.105-0.014-0.151-0.025H36.961h-0.007v0.42
		c0.03,0.071,0.048,0.152,0.048,0.261s-0.019,0.19-0.048,0.261v2.105c0.03,0.072,0.05,0.157,0.048,0.271
		c-0.001,0.101-0.02,0.18-0.048,0.247v2.09c0.026,0.059,0.042,0.126,0.048,0.208c0.008,0.132-0.013,0.231-0.048,0.316v2.101
		c0.033,0.077,0.053,0.168,0.048,0.295c-0.003,0.098-0.021,0.173-0.048,0.237v2.096c0.029,0.067,0.047,0.147,0.048,0.247
		c0.001,0.113-0.019,0.197-0.048,0.271v2.1c0.027,0.064,0.045,0.141,0.048,0.237c0.004,0.131-0.016,0.225-0.048,0.303v2.078
		c0.026,0.059,0.042,0.127,0.048,0.209c0.01,0.141-0.011,0.24-0.048,0.323v2.093c0.027,0.065,0.045,0.141,0.048,0.238
		c0.004,0.13-0.016,0.224-0.048,0.303v0.964c0.282,0,0.559-0.015,0.837-0.022c-0.152,0.005-0.302,0.011-0.453,0.012
		c0.021-0.258,0.15-0.391,0.421-0.409c0.349-0.023,0.506,0.097,0.538,0.385c0.667-0.029,1.329-0.086,1.983-0.161
		c-0.099,0.012-0.197,0.027-0.297,0.038c0.061-0.188,0.209-0.269,0.478-0.262c0.185,0.005,0.305,0.056,0.378,0.152
		c1.073-0.145,2.127-0.343,3.161-0.601c-0.071-0.073-0.11-0.178-0.117-0.33c-0.016-0.349,0.114-0.513,0.43-0.533
		c0.393-0.025,0.553,0.116,0.553,0.492c0,0.055-0.01,0.097-0.017,0.141c1.029-0.29,2.036-0.634,3.013-1.032
		c-0.035-0.085-0.057-0.186-0.046-0.322c0.022-0.311,0.191-0.443,0.539-0.425c0.273,0.015,0.4,0.118,0.432,0.352
		c-0.302,0.136-0.608,0.267-0.914,0.392c1.833-0.745,3.575-1.669,5.202-2.755c-0.006-0.037-0.014-0.069-0.014-0.113
		c-0.004-0.376,0.153-0.521,0.545-0.498c0.102,0.007,0.177,0.033,0.242,0.069c0.404-0.288,0.801-0.588,1.188-0.897
		c-0.173,0.139-0.346,0.278-0.523,0.412c-0.096-0.078-0.142-0.208-0.142-0.402c0-0.343,0.133-0.483,0.47-0.491
		c0.267-0.007,0.417,0.073,0.477,0.26c0.242-0.196,0.477-0.4,0.711-0.605c-0.237-0.04-0.348-0.179-0.35-0.468
		c-0.001-0.377,0.157-0.521,0.546-0.498c0.279,0.018,0.409,0.15,0.429,0.412c-0.201,0.184-0.405,0.362-0.61,0.541
		c0.666-0.58,1.305-1.19,1.916-1.827c-0.174,0.18-0.345,0.364-0.525,0.541c-0.333-0.009-0.458-0.15-0.442-0.521
		c0.012-0.328,0.159-0.463,0.505-0.458c0.315,0.007,0.45,0.136,0.468,0.43c0.355-0.372,0.702-0.752,1.037-1.142
		c-0.109,0.125-0.215,0.252-0.325,0.375c-0.236-0.031-0.358-0.161-0.375-0.42c-0.026-0.392,0.116-0.553,0.492-0.553
		c0.274,0,0.414,0.093,0.467,0.299C59.859,54,60.424,53.257,60.952,52.487z M39.061,42.788h13.446V29.342H39.061V42.788z
		 M60.955,52.483c0.15-0.219,0.294-0.441,0.438-0.665C61.249,52.042,61.105,52.265,60.955,52.483z"/>
	<path fill-rule="evenodd" clip-rule="evenodd" fill="#FFFFFF" d="M81.822,35.539c0.762,0,1.693-0.085,2.117-0.169v-2.004
		c-0.396,0.113-0.987,0.198-1.524,0.198c-1.806,0-2.314-0.79-2.314-2.371v-8.75h3.867v-2.004h-3.867v-5.306h-2.427v5.306h-2.597
		v2.004h2.597v9.287C77.674,34.324,78.689,35.539,81.822,35.539z M87.24,35.341h2.456V24.615c1.553-1.468,3.048-2.399,4.826-2.399
		c1.892,0,2.738,0.931,2.738,2.907v10.218h2.427V24.587c0-2.823-1.552-4.459-4.403-4.459c-2.427,0-4.29,1.27-5.588,2.54v-8.214
		H87.24V35.341z M103.948,17.248h2.54v-2.371h-2.54V17.248z M104.004,35.341h2.428V20.438h-2.428V35.341z M110.891,35.341h2.456
		V24.615c1.553-1.468,3.048-2.399,4.826-2.399c1.892,0,2.738,0.931,2.738,2.907v10.218h2.427V24.587
		c0-2.823-1.552-4.459-4.403-4.459c-2.427,0-4.29,1.27-5.588,2.54v-2.23h-2.456V35.341z M127.485,35.341h2.429v-4.573l2.963-3.189
		l4.403,7.762h2.598l-5.42-9.569l4.882-5.334h-2.767l-6.659,7.451V14.454h-2.429V35.341z M81.625,57.91
		c3.387,0,5.956-1.523,5.956-4.374c0-3.076-2.315-3.895-5.674-4.714c-2.343-0.537-3.528-1.044-3.528-2.427
		c0-1.045,0.847-2.004,3.021-2.004c1.666,0,3.189,0.733,4.318,1.778l1.27-1.609c-1.383-1.299-3.076-2.146-5.7-2.146
		c-3.247,0-5.222,1.807-5.222,4.063c0,2.88,2.173,3.727,5.334,4.489c2.54,0.593,3.838,1.156,3.838,2.652
		c0,1.525-1.27,2.344-3.584,2.344c-2.032,0-3.528-0.847-4.657-2.062l-1.468,1.469C76.742,56.839,78.943,57.91,81.625,57.91z
		 M91.051,63.274h2.427v-7.565c1.271,1.326,2.823,2.146,4.658,2.146c3.641,0,6.322-2.512,6.322-7.706
		c0-5.193-2.653-7.733-6.069-7.733c-2.229,0-3.781,1.129-4.911,2.371v-2.061h-2.427V63.274z M97.796,55.879
		c-1.58,0-3.02-0.79-4.318-2.259v-6.83c1.242-1.354,2.625-2.286,4.347-2.286c2.399,0,4.206,1.863,4.206,5.673
		C102.03,54.129,100.393,55.879,97.796,55.879z M111.259,57.854c2.229,0,4.093-0.733,5.758-2.287c0,0.847,0.141,1.44,0.338,2.062
		h2.484c-0.311-0.763-0.423-1.863-0.423-3.67v-6.576c0-3.104-1.412-4.968-4.969-4.968c-2.963,0-5.193,1.186-6.915,2.767l1.271,1.523
		c1.467-1.27,3.132-2.258,5.391-2.258c1.834,0,2.822,0.903,2.822,2.767v0.677c-7.395,1.044-9.964,3.189-9.964,6.21
		C107.053,56.499,108.69,57.854,111.259,57.854z M111.964,55.936c-1.553,0-2.512-0.762-2.512-2.202c0-1.862,1.891-3.246,7.564-4.149
		v4.178C115.633,55.117,113.939,55.936,111.964,55.936z M129.349,57.939c3.218,0,4.939-1.75,6.098-4.234l-2.005-0.79
		c-0.96,2.174-2.117,2.992-4.009,2.992c-2.512,0-4.262-2.062-4.262-5.73c0-4.205,2.175-5.701,4.318-5.701
		c1.948,0,3.105,1.045,3.839,2.963l2.062-0.847c-0.903-2.2-2.484-4.177-5.844-4.177c-3.33,0-6.83,2.314-6.83,7.762
		C122.716,55.286,125.905,57.939,129.349,57.939z M144.589,57.939c2.794,0,4.686-1.186,6.069-3.162l-1.412-1.241
		c-1.129,1.553-2.343,2.428-4.488,2.428c-2.455,0-4.403-1.807-4.487-5.166h10.527V50.29c0-5.392-2.681-7.875-6.209-7.875
		c-3.133,0-6.745,2.343-6.745,7.762C137.844,55.371,141.061,57.939,144.589,57.939z M140.327,48.907
		c0.339-3.077,2.229-4.46,4.233-4.46c2.456,0,3.726,1.807,3.924,4.46H140.327z"/>
	<g>
		<rect x="142.123" y="34.436" fill-rule="evenodd" clip-rule="evenodd" fill="#FFFFFF" width="10.253" height="1.81"/>
	</g>
</g>
</svg>
