<?xml version="1.0" encoding="utf-8"?>
<!-- Generator: Adobe Illustrator 16.0.0, SVG Export Plug-In . SVG Version: 6.00 Build 0)  -->
<!DOCTYPE svg PUBLIC "-//W3C//DTD SVG 1.1//EN" "http://www.w3.org/Graphics/SVG/1.1/DTD/svg11.dtd">
<svg version="1.1" id="Layer_1" xmlns="http://www.w3.org/2000/svg" xmlns:xlink="http://www.w3.org/1999/xlink" x="0px" y="0px"
	 width="115.2px" height="115.2px" viewBox="0 0 115.2 115.2" enable-background="new 0 0 115.2 115.2" xml:space="preserve">
<circle fill="#FFFFFF" cx="57.6" cy="57.599" r="47.023"/>
<g>
	<path d="M57.6,12.726c-24.745,0-44.876,20.132-44.876,44.876s20.131,44.875,44.876,44.875s44.876-20.131,44.876-44.875
		S82.345,12.726,57.6,12.726 M57.6,1.726c30.859,0,55.876,25.017,55.876,55.876c0,30.856-25.017,55.875-55.876,55.875
		S1.724,88.458,1.724,57.602C1.724,26.742,26.741,1.726,57.6,1.726L57.6,1.726z"/>
</g>
<polygon points="57.6,35.851 41.699,51.919 41.699,75.6 53.525,75.6 53.525,62.451 61.674,62.451 61.674,75.6 73.5,75.6 
	73.5,51.919 "/>
</svg>
