<?xml version="1.0" encoding="utf-8"?>
<!-- Generator: Adobe Illustrator 16.0.0, SVG Export Plug-In . SVG Version: 6.00 Build 0)  -->
<!DOCTYPE svg PUBLIC "-//W3C//DTD SVG 1.1//EN" "http://www.w3.org/Graphics/SVG/1.1/DTD/svg11.dtd">
<svg version="1.1" id="Layer_1" xmlns="http://www.w3.org/2000/svg" xmlns:xlink="http://www.w3.org/1999/xlink" x="0px" y="0px"
	 width="115.2px" height="115.2px" viewBox="0 0 115.2 115.2" enable-background="new 0 0 115.2 115.2" xml:space="preserve">
<circle fill="#FFFFFF" cx="57.6" cy="57.599" r="47.023"/>
<g>
	<path d="M57.231,67.29h0.098H70.26V40.253H39.551v16.391H45.9l-0.004-2.786l2.805-0.003l0.001,2.789h4.796l-0.002-2.794
		l2.801-0.003l0.004,2.797h0.931v2L57.231,67.29L57.231,67.29z M63.907,63.952l-2.804,0.002L61.1,61.153l2.804-0.002L63.907,63.952z
		 M63.899,56.64l-2.804,0.002l-0.003-2.801l2.805-0.002L63.899,56.64z M63.889,46.526l0.002,2.802l-2.805,0.003l-0.002-2.802
		L63.889,46.526z M45.891,49.348l-0.003-2.801l2.804-0.002l0.002,2.8L45.891,49.348z M53.489,49.34l-0.004-2.802l2.803-0.002
		l0.002,2.801L53.489,49.34z"/>
	<path d="M62.818,113.226c0.245-0.022,0.49-0.043,0.733-0.067c0.807-0.087,1.607-0.187,2.402-0.306
		c0.242-0.037,0.481-0.082,0.723-0.121c0.566-0.094,1.131-0.192,1.691-0.303c0.34-0.066,0.678-0.136,1.014-0.209
		c0.476-0.103,0.947-0.212,1.416-0.326c0.339-0.082,0.678-0.158,1.014-0.246c0.678-0.178,1.352-0.371,2.018-0.573
		c0.434-0.132,0.859-0.273,1.287-0.414c0.303-0.101,0.605-0.201,0.905-0.308c0.462-0.16,0.922-0.326,1.378-0.498
		c0.191-0.074,0.383-0.151,0.574-0.228c1.05-0.412,2.084-0.852,3.102-1.321c0.038-0.019,0.077-0.035,0.115-0.054
		c0.543-0.254,1.078-0.518,1.611-0.787c0.103-0.053,0.203-0.104,0.307-0.155c18.027-9.271,30.368-28.043,30.368-49.709
		c0-30.859-25.017-55.876-55.876-55.876c-30.86,0-55.876,25.016-55.876,55.876c0,18.478,8.975,34.854,22.797,45.024l0,0
		c0.05,0.037,0.102,0.072,0.151,0.107c0.878,0.643,1.777,1.254,2.693,1.846c0.229,0.148,0.459,0.297,0.691,0.443
		c0.414,0.258,0.832,0.51,1.254,0.758c0.242,0.143,0.486,0.281,0.731,0.42c0.435,0.248,0.869,0.494,1.312,0.73
		c0.053,0.027,0.106,0.053,0.158,0.082c0.981,0.518,1.982,1.006,2.998,1.467c0.236,0.107,0.472,0.217,0.71,0.32
		c0.461,0.203,0.927,0.396,1.395,0.586c0.248,0.102,0.498,0.199,0.748,0.295c0.485,0.189,0.97,0.377,1.461,0.553
		c0.007,0.002,0.014,0.004,0.021,0.006c1.121,0.4,2.261,0.758,3.414,1.086c0.229,0.066,0.458,0.133,0.688,0.195
		c0.508,0.139,1.019,0.268,1.531,0.391c0.246,0.06,0.493,0.115,0.741,0.172c1.719,0.39,3.468,0.697,5.243,0.924
		c0.233,0.029,0.465,0.062,0.698,0.089c0.536,0.062,1.074,0.112,1.615,0.159c0.263,0.023,0.526,0.041,0.79,0.062
		c0.551,0.039,1.101,0.078,1.656,0.101c0.003,0.002,0.006,0.002,0.009,0.002l0,0c0.696,0.026,1.395,0.049,2.098,0.053l0,0
		c0.091,0,0.181,0.006,0.271,0.006c0.861,0,1.717-0.025,2.568-0.064c0.254-0.012,0.506-0.026,0.76-0.043
		C61.562,113.331,62.191,113.284,62.818,113.226z M63.372,93.017l-0.004-2.802l2.805-0.004v2.804L63.372,93.017z M66.179,97.522
		l0.003,2.803l-2.805,0.002l-0.004-2.801L66.179,97.522z M63.364,85.704l-0.004-2.803l2.805-0.002l0.002,2.801L63.364,85.704z
		 M63.355,78.394l-0.003-2.802l2.805-0.004l0.002,2.802L63.355,78.394z M70.961,85.694l-0.002-2.801l2.801-0.002l0.004,2.801
		L70.961,85.694z M73.767,90.204l0.002,2.803h-2.802l-0.002-2.799L73.767,90.204z M70.954,78.383l-0.004-2.801l2.803-0.002
		l0.002,2.801L70.954,78.383z M70.976,100.319l-0.002-2.801l2.801-0.004l0.003,1.932c-0.806,0.312-1.619,0.607-2.447,0.873H70.976z
		 M78.559,85.687l-0.002-2.801l2.804-0.003l0.002,2.802L78.559,85.687z M81.368,90.196l0.002,2.801l-2.803,0.002l-0.003-2.801
		L81.368,90.196z M78.551,78.375l-0.002-2.801l2.804-0.004l0.002,2.803L78.551,78.375z M31.003,82.524L31,79.724l2.805-0.004
		l0.001,2.803L31.003,82.524z M33.812,87.03l0.003,2.803l-2.804,0.002l-0.004-2.801L33.812,87.03z M30.997,75.211l-0.004-2.803
		l2.805-0.002l0.001,2.801L30.997,75.211z M30.988,67.899l-0.003-2.801l2.804-0.002l0.002,2.801L30.988,67.899z M33.82,94.343
		l0.001,1.288c-0.657-0.411-1.303-0.842-1.938-1.288H33.82z M38.609,89.827l-0.002-2.801l2.801-0.004l0.004,2.803L38.609,89.827z
		 M41.416,94.334l0.004,2.802l-2.802,0.004l-0.002-2.804L41.416,94.334z M38.6,82.515l-0.002-2.8l2.802-0.004l0.002,2.804H38.6z
		 M38.594,75.202l-0.002-2.801l2.801-0.002l0.004,2.801L38.594,75.202z M38.585,67.892l-0.004-2.802l2.803-0.002l0.002,2.802
		L38.585,67.892z M46.208,89.817l-0.003-2.799l2.804-0.004l0.002,2.803H46.208z M49.017,94.327l0.002,2.799l-2.804,0.002
		l-0.002-2.799L49.017,94.327z M46.2,82.506l-0.003-2.801L49,79.704l0.002,2.801L46.2,82.506z M46.192,75.194l-0.002-2.801
		l2.804-0.002l0.002,2.801L46.192,75.194z M46.184,67.883l-0.002-2.803l2.804-0.002l0.002,2.801L46.184,67.883z M55.231,102.413
		v-43.77h-30.71V87.89C17.2,79.901,12.724,69.265,12.724,57.601c0-24.744,20.131-44.876,44.876-44.876s44.876,20.132,44.876,44.876
		c0,13.004-5.563,24.728-14.433,32.933V69.29H57.329v33.181C56.625,102.465,55.926,102.448,55.231,102.413z"/>
</g>
</svg>
