<?xml version="1.0" encoding="utf-8"?>
<!-- Generator: Adobe Illustrator 16.0.0, SVG Export Plug-In . SVG Version: 6.00 Build 0)  -->
<!DOCTYPE svg PUBLIC "-//W3C//DTD SVG 1.1//EN" "http://www.w3.org/Graphics/SVG/1.1/DTD/svg11.dtd">
<svg version="1.1" id="Layer_1" xmlns="http://www.w3.org/2000/svg" xmlns:xlink="http://www.w3.org/1999/xlink" x="0px" y="0px"
	 width="115.2px" height="115.2px" viewBox="0 0 115.2 115.2" enable-background="new 0 0 115.2 115.2" xml:space="preserve">
<circle fill="#FFFFFF" cx="57.6" cy="57.599" r="47.023"/>
<path fill="#010101" d="M35.12,43.45c-4.506,0-8.159,3.652-8.159,8.158s3.653,8.16,8.159,8.16c4.506,0,8.159-3.654,8.159-8.16
	S39.625,43.45,35.12,43.45z M38.219,54.994c-0.843,0.477-1.943,0.739-3.099,0.739c-1.157,0-2.257-0.263-3.1-0.739
	c-0.24-0.136-0.325-0.441-0.188-0.682c0.135-0.24,0.441-0.324,0.682-0.188c1.387,0.786,3.823,0.785,5.213,0
	c0.24-0.136,0.545-0.052,0.681,0.189C38.544,54.554,38.459,54.858,38.219,54.994z M57.117,64.309c4.506,0,8.159-3.654,8.159-8.16
	s-3.652-8.158-8.159-8.158s-8.159,3.652-8.159,8.158C48.958,60.654,52.611,64.309,57.117,64.309z M53.829,58.854
	c0.136-0.242,0.44-0.328,0.682-0.189c1.384,0.785,3.827,0.785,5.213,0c0.241-0.139,0.546-0.053,0.683,0.189
	c0.135,0.24,0.051,0.544-0.189,0.68c-0.84,0.477-1.941,0.739-3.099,0.739c-1.158,0-2.259-0.265-3.1-0.739
	C53.777,59.398,53.693,59.092,53.829,58.854z M79.116,59.768c4.506,0,8.158-3.654,8.158-8.16s-3.652-8.158-8.158-8.158
	c-4.507,0-8.16,3.652-8.16,8.158S74.608,59.768,79.116,59.768z M75.827,54.312c0.137-0.24,0.44-0.324,0.682-0.188
	c1.388,0.786,3.824,0.785,5.214,0c0.239-0.136,0.545-0.052,0.681,0.189c0.137,0.241,0.051,0.545-0.189,0.681
	c-0.842,0.477-1.942,0.739-3.098,0.739c-1.158,0-2.258-0.263-3.101-0.739C75.775,54.857,75.69,54.553,75.827,54.312z M98.202,95.967
	c9.461-10.01,15.274-23.506,15.274-38.367c0-30.859-25.017-55.877-55.876-55.877C26.741,1.723,1.724,26.741,1.724,57.6
	c0,14.861,5.813,28.357,15.275,38.367l0,0c0.002,0.002,0.005,0.004,0.007,0.006c0.711,0.754,1.443,1.486,2.195,2.197
	c0.041,0.039,0.081,0.078,0.122,0.115c1.927,1.813,3.983,3.491,6.153,5.02l0,0c0.001,0.002,0.001,0.002,0.002,0.002
	c0.709,0.5,1.43,0.982,2.163,1.449c0.011,0.006,0.021,0.014,0.032,0.02c0.729,0.465,1.47,0.91,2.222,1.342
	c0.011,0.006,0.022,0.012,0.034,0.021c0.754,0.43,1.519,0.844,2.294,1.239c0.008,0.004,0.016,0.009,0.024,0.013
	c0.778,0.396,1.565,0.774,2.363,1.137c0.004,0.002,0.008,0.004,0.012,0.007l0,0c0.672,0.303,1.35,0.596,2.035,0.872l0,0
	c0.001,0,0.002,0,0.002,0c2.823,1.144,5.76,2.062,8.79,2.732c0.007,0,0.014,0.002,0.021,0.004l0,0c0.662,0.146,1.329,0.278,2,0.401
	l0,0c0.004,0.002,0.008,0.002,0.012,0.002c2.962,0.543,6.005,0.853,9.111,0.906c0.009,0,0.017,0,0.026,0l0,0
	c0.327,0.006,0.65,0.025,0.979,0.025c0.354,0,0.703-0.021,1.057-0.027l0,0c0.008,0,0.018,0,0.025,0
	c3.812-0.072,7.531-0.525,11.121-1.326l0,0c0,0,0.002,0,0.003,0c8.894-1.981,16.987-6.078,23.725-11.742l0,0
	c0.005-0.004,0.009-0.008,0.013-0.012c0.797-0.67,1.57-1.365,2.328-2.078c0.045-0.041,0.088-0.084,0.133-0.125
	c0.75-0.711,1.479-1.44,2.189-2.192C98.196,95.971,98.2,95.969,98.202,95.967L98.202,95.967z M12.724,57.6
	c0-24.745,20.131-44.877,44.876-44.877s44.876,20.132,44.876,44.877c0,6.824-1.538,13.294-4.274,19.091v-4.494
	c0-5.418-3.185-10.729-9.523-10.729L70.39,61.461c-2.603,0-4.761,0.961-6.353,2.547l2.643,0.002c3.576,0,6.587,1.414,8.707,4.09
	c1.816,2.293,2.816,5.361,2.816,8.639v20.709c-0.658,0.34-1.324,0.666-2,0.975V76.738c0-5.418-3.185-10.729-9.523-10.729
	l-4.169-0.002L48.392,66c-5.777,0-9.396,4.711-9.396,10.588V98.42c-0.676-0.309-1.343-0.635-2-0.975V76.59
	c0-7.295,4.792-12.588,11.396-12.588h0.001h2.286c-0.488-0.4-0.93-0.854-1.336-1.338c-1.297-0.75-2.845-1.195-4.661-1.195
	l-18.288-0.008c-5.777,0-9.396,4.711-9.396,10.588v4.643C14.262,70.895,12.724,64.424,12.724,57.6z M91.817,86.588
	c-0.646,0.762-1.316,1.5-2.012,2.217l0.005-16.088h2.007V86.588z M69.82,100.771c-0.665,0.188-1.336,0.36-2.014,0.521l0.007-24.033
	h1.662h0.345V100.771z M23.432,86.645V72.719h2.048l-0.002,16.174C24.771,88.167,24.089,87.418,23.432,86.645z M45.43,100.786V77.26
	h0.384h1.664l-0.003,24.051C46.787,101.15,46.105,100.977,45.43,100.786z"/>
</svg>
