<?xml version="1.0" encoding="utf-8"?>
<!-- Generator: Adobe Illustrator 16.0.0, SVG Export Plug-In . SVG Version: 6.00 Build 0)  -->
<!DOCTYPE svg PUBLIC "-//W3C//DTD SVG 1.1//EN" "http://www.w3.org/Graphics/SVG/1.1/DTD/svg11.dtd">
<svg version="1.1" id="Layer_1" xmlns="http://www.w3.org/2000/svg" xmlns:xlink="http://www.w3.org/1999/xlink" x="0px" y="0px"
	 width="115.2px" height="115.2px" viewBox="0 0 115.2 115.2" enable-background="new 0 0 115.2 115.2" xml:space="preserve">
<circle fill="#FFFFFF" cx="57.6" cy="57.6" r="48.5"/>
<path fill="#010101" d="M57.6,38.337c-10.641,0-19.263,8.622-19.263,19.26c0,10.635,8.624,19.265,19.263,19.265
	c10.64,0,19.262-8.629,19.262-19.265C76.862,46.959,68.24,38.337,57.6,38.337z"/>
<path fill="#FFFFFF" d="M66.189,65.052c-2.327,2.336-5.377,3.623-8.583,3.623c-3.209,0-6.259-1.298-8.587-3.623
	c-0.672-0.667-0.905-2.166-0.526-3.334c0.376-1.187,1.218-1.608,1.889-0.928c3.834,3.849,10.604,3.849,14.442,0
	c0.669-0.681,1.511-0.259,1.892,0.928C67.085,62.898,66.854,64.385,66.189,65.052z"/>
<g>
	<path d="M57.6,12.724c-24.745,0-44.876,20.132-44.876,44.876s20.131,44.875,44.876,44.875s44.876-20.131,44.876-44.875
		S82.345,12.724,57.6,12.724 M57.6,1.724c30.859,0,55.876,25.017,55.876,55.876c0,30.855-25.017,55.875-55.876,55.875
		S1.724,88.456,1.724,57.6C1.724,26.741,26.741,1.724,57.6,1.724L57.6,1.724z"/>
</g>
<g>
	<circle fill="#FFFFFF" cx="51.649" cy="52.413" r="2.643"/>
	<circle fill="#FFFFFF" cx="63.55" cy="52.413" r="2.643"/>
</g>
</svg>
