<?xml version="1.0" encoding="utf-8"?>
<!-- Generator: Adobe Illustrator 16.0.0, SVG Export Plug-In . SVG Version: 6.00 Build 0)  -->
<!DOCTYPE svg PUBLIC "-//W3C//DTD SVG 1.1//EN" "http://www.w3.org/Graphics/SVG/1.1/DTD/svg11.dtd">
<svg version="1.1" id="Layer_1" xmlns="http://www.w3.org/2000/svg" xmlns:xlink="http://www.w3.org/1999/xlink" x="0px" y="0px"
	 width="115.2px" height="115.2px" viewBox="0 0 115.2 115.2" enable-background="new 0 0 115.2 115.2" xml:space="preserve">
<circle fill="#FFFFFF" cx="57.6" cy="57.599" r="47.023"/>
<path d="M48.697,69.597L37.95,57.137V42.881c0-2.724,2.207-4.931,4.929-4.931h29.443c0.304,0,0.597,0.037,0.884,0.089L48.697,69.597
	z M72.322,77.25c2.722,0,4.929-2.207,4.929-4.93V57.286L61.745,77.25H72.322z M83.144,30.135L48.842,74.299L33.011,55.687
	l-6.855,5.83l23.003,27.047l41.093-52.908L83.144,30.135z M57.6,12.725c24.745,0,44.876,20.132,44.876,44.876
	S82.345,102.476,57.6,102.476S12.724,82.345,12.724,57.601S32.855,12.725,57.6,12.725 M57.6,1.725
	c-30.86,0-55.876,25.017-55.876,55.876c0,30.856,25.016,55.875,55.876,55.875c30.859,0,55.876-25.019,55.876-55.875
	C113.476,26.741,88.459,1.725,57.6,1.725L57.6,1.725z"/>
</svg>
