<?xml version="1.0" encoding="utf-8"?>
<!-- Generator: Adobe Illustrator 16.0.0, SVG Export Plug-In . SVG Version: 6.00 Build 0)  -->
<!DOCTYPE svg PUBLIC "-//W3C//DTD SVG 1.1//EN" "http://www.w3.org/Graphics/SVG/1.1/DTD/svg11.dtd">
<svg version="1.1" id="Layer_1" xmlns="http://www.w3.org/2000/svg" xmlns:xlink="http://www.w3.org/1999/xlink" x="0px" y="0px"
	 width="115.2px" height="115.2px" viewBox="0 0 115.2 115.2" enable-background="new 0 0 115.2 115.2" xml:space="preserve">
<circle fill="#FFFFFF" cx="57.6" cy="57.599" r="47.023"/>
<path d="M57.6,12.725c24.745,0,44.876,20.132,44.876,44.876S82.345,102.476,57.6,102.476S12.724,82.345,12.724,57.601
	S32.855,12.725,57.6,12.725 M57.6,1.725c-30.86,0-55.876,25.017-55.876,55.876c0,30.856,25.016,55.875,55.876,55.875
	c30.859,0,55.876-25.019,55.876-55.875C113.476,26.741,88.459,1.725,57.6,1.725L57.6,1.725z M77.772,49.859l-6.363-6.364
	L52.744,62.159l-6.952-6.952l-6.363,6.365l13.315,13.313L77.772,49.859z"/>
</svg>
