<?xml version="1.0" encoding="utf-8"?>
<!-- Generator: Adobe Illustrator 16.0.0, SVG Export Plug-In . SVG Version: 6.00 Build 0)  -->
<!DOCTYPE svg PUBLIC "-//W3C//DTD SVG 1.1//EN" "http://www.w3.org/Graphics/SVG/1.1/DTD/svg11.dtd">
<svg version="1.1" id="Layer_1" xmlns="http://www.w3.org/2000/svg" xmlns:xlink="http://www.w3.org/1999/xlink" x="0px" y="0px"
	 width="115.2px" height="115.2px" viewBox="0 0 115.2 115.2" enable-background="new 0 0 115.2 115.2" xml:space="preserve">
<circle fill="#FFFFFF" cx="57.6" cy="57.599" r="47.023"/>
<g>
	<path d="M74.129,72.184c1.931,0,3.496-1.565,3.496-3.494V48.873v-1.588c0-1.929-1.565-3.494-3.496-3.494H41.068
		c-1.929,0-3.494,1.565-3.494,3.494V68.69c0,1.929,1.565,3.494,3.494,3.494h2.979v9.226l6.302-6.3l2.926-2.928L74.129,72.184
		L74.129,72.184z M57.6,12.725c-24.745,0-44.876,20.132-44.876,44.876s20.131,44.875,44.876,44.875s44.876-20.131,44.876-44.875
		S82.345,12.725,57.6,12.725 M57.6,1.725c30.859,0,55.876,25.017,55.876,55.876c0,30.856-25.017,55.875-55.876,55.875
		c-30.86,0-55.876-25.019-55.876-55.875C1.724,26.741,26.74,1.725,57.6,1.725L57.6,1.725z"/>
</g>
</svg>
