<?xml version="1.0" encoding="utf-8"?>
<!-- Generator: Adobe Illustrator 16.0.0, SVG Export Plug-In . SVG Version: 6.00 Build 0)  -->
<!DOCTYPE svg PUBLIC "-//W3C//DTD SVG 1.1//EN" "http://www.w3.org/Graphics/SVG/1.1/DTD/svg11.dtd">
<svg version="1.1" id="Layer_1" xmlns="http://www.w3.org/2000/svg" xmlns:xlink="http://www.w3.org/1999/xlink" x="0px" y="0px"
	 width="115.2px" height="115.2px" viewBox="0 0 115.2 115.2" enable-background="new 0 0 115.2 115.2" xml:space="preserve">
<circle fill="#FFFFFF" cx="57.6" cy="57.599" r="47.023"/>
<path d="M88.989,48.281v28.085c0,2.533-2.053,4.586-4.584,4.586h-2.598v9.234l-9.234-9.234H41.022c-1.178,0-2.24-0.457-3.052-1.186
	l3.483-3.484h30.723c3.632,0,6.586-2.953,6.586-6.584V43.695h5.643C86.936,43.695,88.989,45.749,88.989,48.281z M72.176,74.282
	c2.533,0,4.586-2.053,4.586-4.584V43.695v-2.083c0-2.533-2.053-4.586-4.586-4.586H28.793c-2.531,0-4.584,2.053-4.584,4.586v28.086
	c0,2.531,2.053,4.584,4.584,4.584h2.598v9.234l5.396-5.395l3.839-3.841L72.176,74.282L72.176,74.282z M57.6,12.725
	c-24.745,0-44.876,20.132-44.876,44.876s20.131,44.875,44.876,44.875s44.876-20.131,44.876-44.875S82.345,12.725,57.6,12.725
	 M57.6,1.725c30.859,0,55.876,25.017,55.876,55.876c0,30.856-25.017,55.875-55.876,55.875c-30.86,0-55.876-25.019-55.876-55.875
	C1.724,26.741,26.74,1.725,57.6,1.725L57.6,1.725z"/>
</svg>
